M48
; DRILL file {KiCad 9.0.2} date 2025-12-20T16:45:06-0500
; FORMAT={-:-/ absolute / metric / decimal}
; #@! TF.CreationDate,2025-12-20T16:45:06-05:00
; #@! TF.GenerationSoftware,Kicad,Pcbnew,9.0.2
; #@! TF.FileFunction,NonPlated,1,4,NPTH
FMAT,2
METRIC
; #@! TA.AperFunction,NonPlated,NPTH,ComponentDrill
T1C0.500
; #@! TA.AperFunction,NonPlated,NPTH,ComponentDrill
T2C1.750
%
G90
G05
T1
X24.2Y-100.38
X24.2Y-102.58
X25.0Y-100.38
X25.0Y-102.58
X25.8Y-100.38
X25.8Y-102.58
X39.35Y-106.95
X39.35Y-107.75
X39.35Y-108.55
X41.55Y-106.95
X41.55Y-107.75
X41.55Y-108.55
X50.75Y-100.38
X50.75Y-102.58
X51.55Y-100.38
X51.55Y-102.58
X52.35Y-100.38
X52.35Y-102.58
X65.9Y-106.95
X65.9Y-107.75
X65.9Y-108.55
X68.1Y-106.95
X68.1Y-107.75
X68.1Y-108.55
X77.245Y-100.35
X77.245Y-102.55
X78.045Y-100.35
X78.045Y-102.55
X78.845Y-100.35
X78.845Y-102.55
X92.395Y-106.92
X92.395Y-107.72
X92.395Y-108.52
X94.595Y-106.92
X94.595Y-107.72
X94.595Y-108.52
X103.745Y-100.35
X103.745Y-102.55
X104.545Y-100.35
X104.545Y-102.55
X105.345Y-100.35
X105.345Y-102.55
X118.895Y-106.92
X118.895Y-107.72
X118.895Y-108.52
X121.095Y-106.92
X121.095Y-107.72
X121.095Y-108.52
X130.245Y-100.35
X130.245Y-102.55
X131.045Y-100.35
X131.045Y-102.55
X131.845Y-100.35
X131.845Y-102.55
X145.395Y-106.92
X145.395Y-107.72
X145.395Y-108.52
X147.595Y-106.92
X147.595Y-107.72
X147.595Y-108.52
X156.745Y-100.35
X156.745Y-102.55
X157.545Y-100.35
X157.545Y-102.55
X158.345Y-100.35
X158.345Y-102.55
X171.895Y-106.92
X171.895Y-107.72
X171.895Y-108.52
X174.095Y-106.92
X174.095Y-107.72
X174.095Y-108.52
X183.245Y-100.35
X183.245Y-102.55
X184.045Y-100.35
X184.045Y-102.55
X184.845Y-100.35
X184.845Y-102.55
X198.395Y-106.92
X198.395Y-107.72
X198.395Y-108.52
X200.595Y-106.92
X200.595Y-107.72
X200.595Y-108.52
X209.745Y-100.35
X209.745Y-102.55
X210.545Y-100.35
X210.545Y-102.55
X211.345Y-100.35
X211.345Y-102.55
X224.895Y-106.92
X224.895Y-107.72
X224.895Y-108.52
X227.095Y-106.92
X227.095Y-107.72
X227.095Y-108.52
X236.245Y-100.35
X236.245Y-102.55
X237.045Y-100.35
X237.045Y-102.55
X237.845Y-100.35
X237.845Y-102.55
X251.395Y-106.92
X251.395Y-107.72
X251.395Y-108.52
X253.595Y-106.92
X253.595Y-107.72
X253.595Y-108.52
X262.745Y-100.35
X262.745Y-102.55
X263.545Y-100.35
X263.545Y-102.55
X264.345Y-100.35
X264.345Y-102.55
T2
X19.595Y-85.7
X29.12Y-66.65
X29.755Y-85.7
X38.645Y-85.7
X39.28Y-66.65
X48.17Y-66.65
X48.805Y-85.7
X57.695Y-85.7
X58.33Y-66.65
X67.22Y-38.075
X67.855Y-85.7
X76.745Y-85.7
X77.38Y-38.075
X86.27Y-38.075
X86.27Y-66.65
X86.905Y-85.7
X95.795Y-85.7
X96.43Y-38.075
X96.43Y-66.65
X105.32Y-38.075
X105.32Y-66.65
X105.955Y-85.7
X114.845Y-85.7
X115.48Y-38.075
X115.48Y-66.65
X124.37Y-38.075
X124.37Y-66.65
X125.005Y-85.7
X133.895Y-85.7
X134.53Y-38.075
X134.53Y-66.65
X143.42Y-38.075
X144.055Y-85.7
X152.945Y-85.7
X153.58Y-38.075
X162.47Y-38.075
X162.47Y-66.65
X163.105Y-85.7
X171.995Y-85.7
X172.63Y-38.075
X172.63Y-66.65
X181.52Y-38.075
X181.52Y-66.65
X182.155Y-85.7
X191.045Y-85.7
X191.68Y-38.075
X191.68Y-66.65
X200.57Y-38.075
X201.205Y-85.7
X210.095Y-85.7
X210.73Y-38.075
X219.62Y-66.65
X220.255Y-85.7
X229.145Y-85.7
X229.78Y-66.65
X238.67Y-66.65
X239.305Y-85.7
X248.195Y-85.7
X248.83Y-66.65
X257.72Y-66.65
X258.355Y-85.7
X267.245Y-85.7
X267.88Y-66.65
X277.405Y-85.7
M30
