%TF.GenerationSoftware,KiCad,Pcbnew,9.0.2*%
%TF.CreationDate,2026-01-01T18:40:39-05:00*%
%TF.ProjectId,Fracture,46726163-7475-4726-952e-6b696361645f,rev?*%
%TF.SameCoordinates,Original*%
%TF.FileFunction,Soldermask,Bot*%
%TF.FilePolarity,Negative*%
%FSLAX46Y46*%
G04 Gerber Fmt 4.6, Leading zero omitted, Abs format (unit mm)*
G04 Created by KiCad (PCBNEW 9.0.2) date 2026-01-01 18:40:39*
%MOMM*%
%LPD*%
G01*
G04 APERTURE LIST*
G04 Aperture macros list*
%AMRoundRect*
0 Rectangle with rounded corners*
0 $1 Rounding radius*
0 $2 $3 $4 $5 $6 $7 $8 $9 X,Y pos of 4 corners*
0 Add a 4 corners polygon primitive as box body*
4,1,4,$2,$3,$4,$5,$6,$7,$8,$9,$2,$3,0*
0 Add four circle primitives for the rounded corners*
1,1,$1+$1,$2,$3*
1,1,$1+$1,$4,$5*
1,1,$1+$1,$6,$7*
1,1,$1+$1,$8,$9*
0 Add four rect primitives between the rounded corners*
20,1,$1+$1,$2,$3,$4,$5,0*
20,1,$1+$1,$4,$5,$6,$7,0*
20,1,$1+$1,$6,$7,$8,$9,0*
20,1,$1+$1,$8,$9,$2,$3,0*%
%AMFreePoly0*
4,1,21,4.105355,5.175355,4.120000,5.140000,4.120000,-5.780000,4.105355,-5.815355,4.070000,-5.830000,2.540000,-5.830000,2.504645,-5.815355,2.490000,-5.780000,2.490000,-4.050000,-4.060000,-4.050000,-4.095355,-4.035355,-4.110000,-4.000000,-4.110000,4.000000,-4.095355,4.035355,-4.060000,4.050000,2.490000,4.050000,2.490000,5.140000,2.504645,5.175355,2.540000,5.190000,4.070000,5.190000,
4.105355,5.175355,4.105355,5.175355,$1*%
G04 Aperture macros list end*
%ADD10C,0.000000*%
%ADD11C,1.750000*%
%ADD12R,1.250000X0.700000*%
%ADD13C,0.800000*%
%ADD14C,6.400000*%
%ADD15R,1.700000X1.700000*%
%ADD16C,1.700000*%
%ADD17R,2.000000X2.000000*%
%ADD18C,2.000000*%
%ADD19R,3.200000X2.000000*%
%ADD20R,4.000000X1.600000*%
%ADD21R,1.410000X1.350000*%
%ADD22R,1.380000X1.130000*%
%ADD23R,1.450000X0.820000*%
%ADD24RoundRect,0.205000X0.520000X0.205000X-0.520000X0.205000X-0.520000X-0.205000X0.520000X-0.205000X0*%
%ADD25R,1.500000X5.000000*%
%ADD26R,1.360000X1.230000*%
%ADD27R,1.350000X1.410000*%
%ADD28C,0.900000*%
%ADD29R,1.200000X2.200000*%
%ADD30R,1.650000X0.400000*%
%ADD31R,2.060000X1.540000*%
%ADD32R,1.130000X1.380000*%
%ADD33R,0.820000X1.450000*%
%ADD34RoundRect,0.205000X-0.205000X0.520000X-0.205000X-0.520000X0.205000X-0.520000X0.205000X0.520000X0*%
%ADD35RoundRect,0.375000X-0.375000X0.625000X-0.375000X-0.625000X0.375000X-0.625000X0.375000X0.625000X0*%
%ADD36RoundRect,0.500000X-1.400000X0.500000X-1.400000X-0.500000X1.400000X-0.500000X1.400000X0.500000X0*%
%ADD37RoundRect,0.375000X0.625000X0.375000X-0.625000X0.375000X-0.625000X-0.375000X0.625000X-0.375000X0*%
%ADD38RoundRect,0.500000X0.500000X1.400000X-0.500000X1.400000X-0.500000X-1.400000X0.500000X-1.400000X0*%
%ADD39R,3.200000X1.150000*%
%ADD40FreePoly0,180.000000*%
%ADD41O,0.570000X1.950000*%
%ADD42R,1.000000X0.800000*%
%ADD43R,4.000000X3.500000*%
%ADD44C,1.200000*%
%ADD45R,3.000000X1.400000*%
%ADD46R,1.200000X3.500000*%
%ADD47R,1.000000X1.250000*%
%ADD48R,1.100000X0.400000*%
%ADD49R,1.540000X2.060000*%
%ADD50C,0.750000*%
%ADD51O,1.200000X2.000000*%
%ADD52O,1.200000X1.800000*%
%ADD53R,0.300000X1.300000*%
%ADD54O,1.600000X0.600000*%
%ADD55O,3.800000X1.500000*%
%ADD56O,1.500000X3.400000*%
%ADD57C,0.400000*%
%ADD58R,1.500000X0.900000*%
%ADD59R,0.900000X1.500000*%
%ADD60R,0.900000X0.900000*%
G04 APERTURE END LIST*
D10*
%TO.C,G\u002A\u002A\u002A*%
G36*
X265965564Y-29487091D02*
G01*
X266061455Y-29516194D01*
X266385110Y-29666179D01*
X266676918Y-29870096D01*
X266893980Y-30092039D01*
X266993394Y-30296104D01*
X266993402Y-30296156D01*
X266983423Y-30544666D01*
X266852806Y-30730441D01*
X266605770Y-30877892D01*
X266373480Y-30961338D01*
X266159145Y-30960685D01*
X265893150Y-30881890D01*
X265610630Y-30801227D01*
X265445842Y-30812106D01*
X265408507Y-30840645D01*
X265262933Y-30897662D01*
X265072297Y-30854176D01*
X264901437Y-30738510D01*
X264815551Y-30581625D01*
X264826204Y-30478790D01*
X265074911Y-30478790D01*
X265165141Y-30561591D01*
X265269582Y-30565545D01*
X265430659Y-30516172D01*
X265487226Y-30466339D01*
X265568920Y-30454413D01*
X265735020Y-30519123D01*
X265763770Y-30534639D01*
X266007548Y-30620834D01*
X266269155Y-30640134D01*
X266494566Y-30597460D01*
X266629753Y-30497729D01*
X266645165Y-30454374D01*
X266596959Y-30264024D01*
X266419324Y-30067529D01*
X266147161Y-29899610D01*
X266044866Y-29857234D01*
X265824928Y-29799166D01*
X265675221Y-29839342D01*
X265572363Y-29931705D01*
X265386895Y-30102870D01*
X265236286Y-30211478D01*
X265097011Y-30344905D01*
X265074911Y-30478790D01*
X264826204Y-30478790D01*
X264834273Y-30400892D01*
X264889786Y-30269481D01*
X264913339Y-30213727D01*
X265019442Y-30080509D01*
X265106162Y-30054847D01*
X265182483Y-30004772D01*
X265257527Y-29859687D01*
X265417684Y-29586974D01*
X265650494Y-29464144D01*
X265965564Y-29487091D01*
G37*
G36*
X268969935Y-30254707D02*
G01*
X269291658Y-30359145D01*
X269313598Y-30371142D01*
X269557714Y-30582885D01*
X269725056Y-30868413D01*
X269788945Y-31169285D01*
X269760581Y-31350378D01*
X269739155Y-31508496D01*
X269781089Y-31576181D01*
X269891976Y-31695960D01*
X269941539Y-31910337D01*
X269915585Y-32151273D01*
X269906764Y-32178616D01*
X269766311Y-32403046D01*
X269542382Y-32492251D01*
X269222746Y-32449717D01*
X269098552Y-32408963D01*
X268866769Y-32316550D01*
X268763120Y-32239946D01*
X268753988Y-32144828D01*
X268774810Y-32078373D01*
X268798243Y-31934045D01*
X268698537Y-31869436D01*
X268631636Y-31856325D01*
X268321800Y-31753814D01*
X268030393Y-31571671D01*
X267823763Y-31354048D01*
X267792463Y-31297857D01*
X267750374Y-31021846D01*
X267783810Y-30908656D01*
X268029247Y-30908656D01*
X268052185Y-31066292D01*
X268187113Y-31258835D01*
X268396039Y-31442581D01*
X268589661Y-31553323D01*
X268802543Y-31647162D01*
X268950643Y-31713806D01*
X268962548Y-31719357D01*
X269026677Y-31826403D01*
X269033393Y-31934745D01*
X269084986Y-32104659D01*
X269266835Y-32183689D01*
X269466205Y-32178592D01*
X269602358Y-32130777D01*
X269629453Y-32004101D01*
X269622738Y-31942740D01*
X269585233Y-31758804D01*
X269552123Y-31673045D01*
X269514202Y-31555013D01*
X269476884Y-31345785D01*
X269472834Y-31314846D01*
X269390016Y-30939573D01*
X269246227Y-30703630D01*
X269078202Y-30599548D01*
X268820938Y-30563628D01*
X268527186Y-30603602D01*
X268256739Y-30701851D01*
X268069390Y-30840755D01*
X268029247Y-30908656D01*
X267783810Y-30908656D01*
X267807636Y-30827996D01*
X267841014Y-30715003D01*
X268035150Y-30443926D01*
X268278873Y-30300674D01*
X268611404Y-30236409D01*
X268969935Y-30254707D01*
G37*
%TD*%
D11*
%TO.C,S1*%
X67220000Y-38075000D03*
X77380000Y-38075000D03*
D12*
X71325000Y-39050000D03*
X71325000Y-37150000D03*
X73325000Y-38100000D03*
%TD*%
D11*
%TO.C,S13*%
X124370000Y-66650000D03*
X134530000Y-66650000D03*
D12*
X128475000Y-67625000D03*
X128475000Y-65725000D03*
X130475000Y-66675000D03*
%TD*%
D11*
%TO.C,S7*%
X181520000Y-38075000D03*
X191680000Y-38075000D03*
D12*
X185625000Y-39050000D03*
X185625000Y-37150000D03*
X187625000Y-38100000D03*
%TD*%
D11*
%TO.C,S25*%
X133895000Y-85700000D03*
X144055000Y-85700000D03*
D12*
X138000000Y-86675000D03*
X138000000Y-84775000D03*
X140000000Y-85725000D03*
%TD*%
D11*
%TO.C,S31*%
X248195000Y-85700000D03*
X258355000Y-85700000D03*
D12*
X252300000Y-86675000D03*
X252300000Y-84775000D03*
X254300000Y-85725000D03*
%TD*%
D11*
%TO.C,S10*%
X48170000Y-66650000D03*
X58330000Y-66650000D03*
D12*
X52275000Y-67625000D03*
X52275000Y-65725000D03*
X54275000Y-66675000D03*
%TD*%
D13*
%TO.C,H2*%
X276302944Y-96497056D03*
X277005888Y-94800000D03*
X277005888Y-98194112D03*
X278702944Y-94097056D03*
D14*
X278702944Y-96497056D03*
D13*
X278702944Y-98897056D03*
X280400000Y-94800000D03*
X280400000Y-98194112D03*
X281102944Y-96497056D03*
%TD*%
D11*
%TO.C,S21*%
X57695000Y-85700000D03*
X67855000Y-85700000D03*
D12*
X61800000Y-86675000D03*
X61800000Y-84775000D03*
X63800000Y-85725000D03*
%TD*%
D11*
%TO.C,S32*%
X267245000Y-85700000D03*
X277405000Y-85700000D03*
D12*
X271350000Y-86675000D03*
X271350000Y-84775000D03*
X273350000Y-85725000D03*
%TD*%
D11*
%TO.C,S26*%
X152945000Y-85700000D03*
X163105000Y-85700000D03*
D12*
X157050000Y-86675000D03*
X157050000Y-84775000D03*
X159050000Y-85725000D03*
%TD*%
D11*
%TO.C,S15*%
X181520000Y-66650000D03*
X191680000Y-66650000D03*
D12*
X185625000Y-67625000D03*
X185625000Y-65725000D03*
X187625000Y-66675000D03*
%TD*%
D11*
%TO.C,S5*%
X143420000Y-38075000D03*
X153580000Y-38075000D03*
D12*
X147525000Y-39050000D03*
X147525000Y-37150000D03*
X149525000Y-38100000D03*
%TD*%
D11*
%TO.C,S18*%
X257720000Y-66650000D03*
X267880000Y-66650000D03*
D12*
X261825000Y-67625000D03*
X261825000Y-65725000D03*
X263825000Y-66675000D03*
%TD*%
D11*
%TO.C,S11*%
X86270000Y-66650000D03*
X96430000Y-66650000D03*
D12*
X90375000Y-67625000D03*
X90375000Y-65725000D03*
X92375000Y-66675000D03*
%TD*%
D13*
%TO.C,H5*%
X146400000Y-62800000D03*
X147102944Y-61102944D03*
X147102944Y-64497056D03*
X148800000Y-60400000D03*
D14*
X148800000Y-62800000D03*
D13*
X148800000Y-65200000D03*
X150497056Y-61102944D03*
X150497056Y-64497056D03*
X151200000Y-62800000D03*
%TD*%
D11*
%TO.C,S14*%
X162470000Y-66650000D03*
X172630000Y-66650000D03*
D12*
X166575000Y-67625000D03*
X166575000Y-65725000D03*
X168575000Y-66675000D03*
%TD*%
D15*
%TO.C,J3*%
X17000000Y-35520000D03*
D16*
X17000000Y-38060000D03*
X17000000Y-40600000D03*
X17000000Y-43140000D03*
X17000000Y-45680000D03*
X17000000Y-48220000D03*
X17000000Y-50760000D03*
X17000000Y-53300000D03*
%TD*%
D11*
%TO.C,S29*%
X210095000Y-85700000D03*
X220255000Y-85700000D03*
D12*
X214200000Y-86675000D03*
X214200000Y-84775000D03*
X216200000Y-85725000D03*
%TD*%
D11*
%TO.C,S27*%
X171995000Y-85700000D03*
X182155000Y-85700000D03*
D12*
X176100000Y-86675000D03*
X176100000Y-84775000D03*
X178100000Y-85725000D03*
%TD*%
D11*
%TO.C,S8*%
X200570000Y-38075000D03*
X210730000Y-38075000D03*
D12*
X204675000Y-39050000D03*
X204675000Y-37150000D03*
X206675000Y-38100000D03*
%TD*%
D11*
%TO.C,S30*%
X229145000Y-85700000D03*
X239305000Y-85700000D03*
D12*
X233250000Y-86675000D03*
X233250000Y-84775000D03*
X235250000Y-85725000D03*
%TD*%
D11*
%TO.C,S3*%
X105320000Y-38075000D03*
X115480000Y-38075000D03*
D12*
X109425000Y-39050000D03*
X109425000Y-37150000D03*
X111425000Y-38100000D03*
%TD*%
D11*
%TO.C,S17*%
X238670000Y-66650000D03*
X248830000Y-66650000D03*
D12*
X242775000Y-67625000D03*
X242775000Y-65725000D03*
X244775000Y-66675000D03*
%TD*%
D11*
%TO.C,S9*%
X29120000Y-66650000D03*
X39280000Y-66650000D03*
D12*
X33225000Y-67625000D03*
X33225000Y-65725000D03*
X35225000Y-66675000D03*
%TD*%
D17*
%TO.C,SW4*%
X217575000Y-35400000D03*
D18*
X217575000Y-40400000D03*
X217575000Y-37900000D03*
D19*
X225075000Y-32300000D03*
X225075000Y-43500000D03*
D18*
X232075000Y-40400000D03*
X232075000Y-35400000D03*
%TD*%
D11*
%TO.C,S20*%
X38645000Y-85700000D03*
X48805000Y-85700000D03*
D12*
X42750000Y-86675000D03*
X42750000Y-84775000D03*
X44750000Y-85725000D03*
%TD*%
D11*
%TO.C,S16*%
X219620000Y-66650000D03*
X229780000Y-66650000D03*
D12*
X223725000Y-67625000D03*
X223725000Y-65725000D03*
X225725000Y-66675000D03*
%TD*%
D11*
%TO.C,S6*%
X162470000Y-38075000D03*
X172630000Y-38075000D03*
D12*
X166575000Y-39050000D03*
X166575000Y-37150000D03*
X168575000Y-38100000D03*
%TD*%
D11*
%TO.C,S19*%
X19595000Y-85700000D03*
X29755000Y-85700000D03*
D12*
X23700000Y-86675000D03*
X23700000Y-84775000D03*
X25700000Y-85725000D03*
%TD*%
D11*
%TO.C,S4*%
X124370000Y-38075000D03*
X134530000Y-38075000D03*
D12*
X128475000Y-39050000D03*
X128475000Y-37150000D03*
X130475000Y-38100000D03*
%TD*%
D13*
%TO.C,H3*%
X16400000Y-28800000D03*
X17102944Y-27102944D03*
X17102944Y-30497056D03*
X18800000Y-26400000D03*
D14*
X18800000Y-28800000D03*
D13*
X18800000Y-31200000D03*
X20497056Y-27102944D03*
X20497056Y-30497056D03*
X21200000Y-28800000D03*
%TD*%
D11*
%TO.C,S24*%
X114845000Y-85700000D03*
X125005000Y-85700000D03*
D12*
X118950000Y-86675000D03*
X118950000Y-84775000D03*
X120950000Y-85725000D03*
%TD*%
D11*
%TO.C,S23*%
X95795000Y-85700000D03*
X105955000Y-85700000D03*
D12*
X99900000Y-86675000D03*
X99900000Y-84775000D03*
X101900000Y-85725000D03*
%TD*%
D13*
%TO.C,H4*%
X276200000Y-28800000D03*
X276902944Y-27102944D03*
X276902944Y-30497056D03*
X278600000Y-26400000D03*
D14*
X278600000Y-28800000D03*
D13*
X278600000Y-31200000D03*
X280297056Y-27102944D03*
X280297056Y-30497056D03*
X281000000Y-28800000D03*
%TD*%
%TO.C,H1*%
X16400000Y-96600000D03*
X17102944Y-94902944D03*
X17102944Y-98297056D03*
X18800000Y-94200000D03*
D14*
X18800000Y-96600000D03*
D13*
X18800000Y-99000000D03*
X20497056Y-94902944D03*
X20497056Y-98297056D03*
X21200000Y-96600000D03*
%TD*%
D15*
%TO.C,J4*%
X280400000Y-35520000D03*
D16*
X280400000Y-38060000D03*
X280400000Y-40600000D03*
X280400000Y-43140000D03*
X280400000Y-45680000D03*
X280400000Y-48220000D03*
X280400000Y-50760000D03*
X280400000Y-53300000D03*
%TD*%
D11*
%TO.C,S22*%
X76745000Y-85700000D03*
X86905000Y-85700000D03*
D12*
X80850000Y-86675000D03*
X80850000Y-84775000D03*
X82850000Y-85725000D03*
%TD*%
D11*
%TO.C,S12*%
X105320000Y-66650000D03*
X115480000Y-66650000D03*
D12*
X109425000Y-67625000D03*
X109425000Y-65725000D03*
X111425000Y-66675000D03*
%TD*%
D11*
%TO.C,S28*%
X191045000Y-85700000D03*
X201205000Y-85700000D03*
D12*
X195150000Y-86675000D03*
X195150000Y-84775000D03*
X197150000Y-85725000D03*
%TD*%
D11*
%TO.C,S2*%
X86270000Y-38075000D03*
X96430000Y-38075000D03*
D12*
X90375000Y-39050000D03*
X90375000Y-37150000D03*
X92375000Y-38100000D03*
%TD*%
D20*
%TO.C,C13*%
X36500000Y-55000000D03*
X29500000Y-55000000D03*
%TD*%
D21*
%TO.C,C22*%
X187600000Y-40800000D03*
X185600000Y-40800000D03*
%TD*%
D22*
%TO.C,R4*%
X46600000Y-35200000D03*
X46600000Y-37200000D03*
%TD*%
%TO.C,R13*%
X77800000Y-56400000D03*
X77800000Y-58400000D03*
%TD*%
D23*
%TO.C,LED11*%
X94050000Y-60925000D03*
D24*
X88700000Y-60925000D03*
D23*
X88700000Y-62425000D03*
X94050000Y-62425000D03*
%TD*%
%TO.C,LED23*%
X103575000Y-79975000D03*
D24*
X98225000Y-79975000D03*
D23*
X98225000Y-81475000D03*
X103575000Y-81475000D03*
%TD*%
D22*
%TO.C,R9*%
X239400000Y-33600000D03*
X239400000Y-31600000D03*
%TD*%
D23*
%TO.C,LED7*%
X189300000Y-32350000D03*
D24*
X183950000Y-32350000D03*
D23*
X183950000Y-33850000D03*
X189300000Y-33850000D03*
%TD*%
D21*
%TO.C,C45*%
X235400000Y-88400000D03*
X233400000Y-88400000D03*
%TD*%
%TO.C,C30*%
X187800000Y-69400000D03*
X185800000Y-69400000D03*
%TD*%
%TO.C,C29*%
X168800000Y-69400000D03*
X166800000Y-69400000D03*
%TD*%
D23*
%TO.C,LED33*%
X239475000Y-37050000D03*
D24*
X234125000Y-37050000D03*
D23*
X234125000Y-38550000D03*
X239475000Y-38550000D03*
%TD*%
D21*
%TO.C,C17*%
X92400000Y-40800000D03*
X90400000Y-40800000D03*
%TD*%
D25*
%TO.C,BUZZER1*%
X143400000Y-72800000D03*
X154200000Y-72800000D03*
%TD*%
D15*
%TO.C,J1*%
X26000000Y-34710000D03*
D16*
X26000000Y-37250000D03*
%TD*%
D23*
%TO.C,LED14*%
X170250000Y-60925000D03*
D24*
X164900000Y-60925000D03*
D23*
X164900000Y-62425000D03*
X170250000Y-62425000D03*
%TD*%
D21*
%TO.C,C33*%
X263600000Y-69400000D03*
X261600000Y-69400000D03*
%TD*%
D26*
%TO.C,SW2*%
X252800000Y-31400000D03*
X252800000Y-27040000D03*
%TD*%
D21*
%TO.C,C39*%
X121000000Y-88400000D03*
X119000000Y-88400000D03*
%TD*%
D23*
%TO.C,LED15*%
X189300000Y-60925000D03*
D24*
X183950000Y-60925000D03*
D23*
X183950000Y-62425000D03*
X189300000Y-62425000D03*
%TD*%
D21*
%TO.C,C27*%
X111400000Y-69400000D03*
X109400000Y-69400000D03*
%TD*%
D27*
%TO.C,C2*%
X96200000Y-52400000D03*
X96200000Y-50400000D03*
%TD*%
%TO.C,C10*%
X60550000Y-55700000D03*
X60550000Y-53700000D03*
%TD*%
D21*
%TO.C,C32*%
X244800000Y-69400000D03*
X242800000Y-69400000D03*
%TD*%
%TO.C,C35*%
X45200000Y-88400000D03*
X43200000Y-88400000D03*
%TD*%
D23*
%TO.C,LED8*%
X208350000Y-32350000D03*
D24*
X203000000Y-32350000D03*
D23*
X203000000Y-33850000D03*
X208350000Y-33850000D03*
%TD*%
D27*
%TO.C,C61*%
X71000000Y-49000000D03*
X71000000Y-51000000D03*
%TD*%
D23*
%TO.C,LED3*%
X113100000Y-32350000D03*
D24*
X107750000Y-32350000D03*
D23*
X107750000Y-33850000D03*
X113100000Y-33850000D03*
%TD*%
%TO.C,LED39*%
X239350000Y-45850000D03*
D24*
X234000000Y-45850000D03*
D23*
X234000000Y-47350000D03*
X239350000Y-47350000D03*
%TD*%
D27*
%TO.C,C12*%
X41000000Y-47600000D03*
X41000000Y-49600000D03*
%TD*%
D21*
%TO.C,C34*%
X26000000Y-88400000D03*
X24000000Y-88400000D03*
%TD*%
D28*
%TO.C,SW1*%
X38200000Y-27187500D03*
X45000000Y-27187500D03*
D29*
X39100000Y-30387500D03*
X41600000Y-30387500D03*
X44100000Y-30387500D03*
%TD*%
D23*
%TO.C,LED10*%
X55950000Y-60925000D03*
D24*
X50600000Y-60925000D03*
D23*
X50600000Y-62425000D03*
X55950000Y-62425000D03*
%TD*%
%TO.C,LED22*%
X122625000Y-79975000D03*
D24*
X117275000Y-79975000D03*
D23*
X117275000Y-81475000D03*
X122625000Y-81475000D03*
%TD*%
D21*
%TO.C,C47*%
X273400000Y-88400000D03*
X271400000Y-88400000D03*
%TD*%
%TO.C,C25*%
X54400000Y-69400000D03*
X52400000Y-69400000D03*
%TD*%
D23*
%TO.C,LED36*%
X239475000Y-41450000D03*
D24*
X234125000Y-41450000D03*
D23*
X234125000Y-42950000D03*
X239475000Y-42950000D03*
%TD*%
D30*
%TO.C,U2*%
X127800000Y-49000000D03*
X127800000Y-49650000D03*
X127800000Y-50300000D03*
X127800000Y-50950000D03*
X127800000Y-51600000D03*
X127800000Y-52250000D03*
X127800000Y-52890000D03*
X127800000Y-53550000D03*
X127800000Y-54200000D03*
X127800000Y-54850000D03*
X127800000Y-55500000D03*
X127800000Y-56140000D03*
X121760000Y-56140000D03*
X121760000Y-55500000D03*
X121760000Y-54850000D03*
X121760000Y-54200000D03*
X121760000Y-53550000D03*
X121760000Y-52890000D03*
X121760000Y-52250000D03*
X121760000Y-51600000D03*
X121760000Y-50950000D03*
X121760000Y-50300000D03*
X121760000Y-49650000D03*
X121760000Y-49000000D03*
%TD*%
D23*
%TO.C,LED32*%
X275025000Y-79975000D03*
D24*
X269675000Y-79975000D03*
D23*
X269675000Y-81475000D03*
X275025000Y-81475000D03*
%TD*%
%TO.C,LED44*%
X253275000Y-50250000D03*
D24*
X247925000Y-50250000D03*
D23*
X247925000Y-51750000D03*
X253275000Y-51750000D03*
%TD*%
D27*
%TO.C,C49*%
X86200000Y-48400000D03*
X86200000Y-50400000D03*
%TD*%
D31*
%TO.C,D1*%
X86530000Y-45800000D03*
X91530000Y-45800000D03*
%TD*%
D23*
%TO.C,LED42*%
X239275000Y-50250000D03*
D24*
X233925000Y-50250000D03*
D23*
X233925000Y-51750000D03*
X239275000Y-51750000D03*
%TD*%
D32*
%TO.C,R7*%
X216600000Y-75600000D03*
X218600000Y-75600000D03*
%TD*%
D33*
%TO.C,LED45*%
X256850000Y-27125000D03*
D34*
X256850000Y-32475000D03*
D33*
X258350000Y-32475000D03*
X258350000Y-27125000D03*
%TD*%
D27*
%TO.C,C55*%
X61250000Y-45400000D03*
X61250000Y-47400000D03*
%TD*%
D32*
%TO.C,R16*%
X67600000Y-54000000D03*
X65600000Y-54000000D03*
%TD*%
D23*
%TO.C,LED25*%
X65475000Y-79975000D03*
D24*
X60125000Y-79975000D03*
D23*
X60125000Y-81475000D03*
X65475000Y-81475000D03*
%TD*%
D27*
%TO.C,C48*%
X84200000Y-47000000D03*
X84200000Y-49000000D03*
%TD*%
D23*
%TO.C,LED20*%
X160725000Y-79975000D03*
D24*
X155375000Y-79975000D03*
D23*
X155375000Y-81475000D03*
X160725000Y-81475000D03*
%TD*%
D21*
%TO.C,C28*%
X130600000Y-69400000D03*
X128600000Y-69400000D03*
%TD*%
D30*
%TO.C,U3*%
X183220000Y-48950000D03*
X183220000Y-49600000D03*
X183220000Y-50250000D03*
X183220000Y-50900000D03*
X183220000Y-51550000D03*
X183220000Y-52200000D03*
X183220000Y-52840000D03*
X183220000Y-53500000D03*
X183220000Y-54150000D03*
X183220000Y-54800000D03*
X183220000Y-55450000D03*
X183220000Y-56090000D03*
X177180000Y-56090000D03*
X177180000Y-55450000D03*
X177180000Y-54800000D03*
X177180000Y-54150000D03*
X177180000Y-53500000D03*
X177180000Y-52840000D03*
X177180000Y-52200000D03*
X177180000Y-51550000D03*
X177180000Y-50900000D03*
X177180000Y-50250000D03*
X177180000Y-49600000D03*
X177180000Y-48950000D03*
%TD*%
D21*
%TO.C,C26*%
X92200000Y-69400000D03*
X90200000Y-69400000D03*
%TD*%
%TO.C,C19*%
X130600000Y-40800000D03*
X128600000Y-40800000D03*
%TD*%
%TO.C,C15*%
X39400000Y-40800000D03*
X37400000Y-40800000D03*
%TD*%
%TO.C,C24*%
X35200000Y-69400000D03*
X33200000Y-69400000D03*
%TD*%
D23*
%TO.C,LED17*%
X217875000Y-79975000D03*
D24*
X212525000Y-79975000D03*
D23*
X212525000Y-81475000D03*
X217875000Y-81475000D03*
%TD*%
D35*
%TO.C,U1*%
X98500000Y-45050000D03*
X100800000Y-45050000D03*
D36*
X100800000Y-51350000D03*
D35*
X103100000Y-45050000D03*
%TD*%
D21*
%TO.C,C23*%
X206800000Y-40800000D03*
X204800000Y-40800000D03*
%TD*%
%TO.C,C6*%
X175000000Y-47400000D03*
X177000000Y-47400000D03*
%TD*%
D23*
%TO.C,LED24*%
X84525000Y-79975000D03*
D24*
X79175000Y-79975000D03*
D23*
X79175000Y-81475000D03*
X84525000Y-81475000D03*
%TD*%
D21*
%TO.C,C31*%
X225800000Y-69400000D03*
X223800000Y-69400000D03*
%TD*%
D37*
%TO.C,U4*%
X58150000Y-53700000D03*
X58150000Y-56000000D03*
D38*
X51850000Y-56000000D03*
D37*
X58150000Y-58300000D03*
%TD*%
D23*
%TO.C,LED21*%
X141675000Y-79975000D03*
D24*
X136325000Y-79975000D03*
D23*
X136325000Y-81475000D03*
X141675000Y-81475000D03*
%TD*%
D39*
%TO.C,U6*%
X34610000Y-42000000D03*
X34610000Y-43700000D03*
X34610000Y-45400000D03*
X34610000Y-47100000D03*
X34610000Y-48800000D03*
D40*
X24590000Y-45720000D03*
%TD*%
D21*
%TO.C,C43*%
X197200000Y-88400000D03*
X195200000Y-88400000D03*
%TD*%
%TO.C,C37*%
X83000000Y-88400000D03*
X81000000Y-88400000D03*
%TD*%
%TO.C,C16*%
X73600000Y-40800000D03*
X71600000Y-40800000D03*
%TD*%
D32*
%TO.C,R17*%
X67600000Y-56000000D03*
X65600000Y-56000000D03*
%TD*%
D21*
%TO.C,C42*%
X178200000Y-88400000D03*
X176200000Y-88400000D03*
%TD*%
D23*
%TO.C,LED1*%
X75000000Y-32350000D03*
D24*
X69650000Y-32350000D03*
D23*
X69650000Y-33850000D03*
X75000000Y-33850000D03*
%TD*%
%TO.C,LED29*%
X246450000Y-60925000D03*
D24*
X241100000Y-60925000D03*
D23*
X241100000Y-62425000D03*
X246450000Y-62425000D03*
%TD*%
%TO.C,LED12*%
X113100000Y-60925000D03*
D24*
X107750000Y-60925000D03*
D23*
X107750000Y-62425000D03*
X113100000Y-62425000D03*
%TD*%
D21*
%TO.C,C20*%
X149600000Y-40800000D03*
X147600000Y-40800000D03*
%TD*%
D41*
%TO.C,U7*%
X70490000Y-81890000D03*
X71770000Y-81890000D03*
X73030000Y-81890000D03*
X74300000Y-81890000D03*
X74300000Y-87310000D03*
X73030000Y-87310000D03*
X71770000Y-87310000D03*
X70490000Y-87310000D03*
%TD*%
D22*
%TO.C,R1*%
X127800000Y-45600000D03*
X127800000Y-47600000D03*
%TD*%
D23*
%TO.C,LED2*%
X94050000Y-32350000D03*
D24*
X88700000Y-32350000D03*
D23*
X88700000Y-33850000D03*
X94050000Y-33850000D03*
%TD*%
D21*
%TO.C,C52*%
X67200000Y-40200000D03*
X69200000Y-40200000D03*
%TD*%
D23*
%TO.C,LED4*%
X132150000Y-32350000D03*
D24*
X126800000Y-32350000D03*
D23*
X126800000Y-33850000D03*
X132150000Y-33850000D03*
%TD*%
D21*
%TO.C,C3*%
X181000000Y-45200000D03*
X179000000Y-45200000D03*
%TD*%
D23*
%TO.C,LED31*%
X255975000Y-79975000D03*
D24*
X250625000Y-79975000D03*
D23*
X250625000Y-81475000D03*
X255975000Y-81475000D03*
%TD*%
D21*
%TO.C,C21*%
X168800000Y-40800000D03*
X166800000Y-40800000D03*
%TD*%
%TO.C,C44*%
X216200000Y-88400000D03*
X214200000Y-88400000D03*
%TD*%
D22*
%TO.C,R3*%
X48600000Y-37200000D03*
X48600000Y-35200000D03*
%TD*%
D21*
%TO.C,C18*%
X111600000Y-40600000D03*
X109600000Y-40600000D03*
%TD*%
D23*
%TO.C,LED41*%
X253400000Y-45800000D03*
D24*
X248050000Y-45800000D03*
D23*
X248050000Y-47300000D03*
X253400000Y-47300000D03*
%TD*%
%TO.C,LED28*%
X265500000Y-60925000D03*
D24*
X260150000Y-60925000D03*
D23*
X260150000Y-62425000D03*
X265500000Y-62425000D03*
%TD*%
%TO.C,LED26*%
X46425000Y-79975000D03*
D24*
X41075000Y-79975000D03*
D23*
X41075000Y-81475000D03*
X46425000Y-81475000D03*
%TD*%
D21*
%TO.C,C38*%
X102000000Y-88400000D03*
X100000000Y-88400000D03*
%TD*%
D23*
%TO.C,LED18*%
X198825000Y-79975000D03*
D24*
X193475000Y-79975000D03*
D23*
X193475000Y-81475000D03*
X198825000Y-81475000D03*
%TD*%
D42*
%TO.C,U9*%
X66600000Y-42200000D03*
X68400000Y-42200000D03*
X68400000Y-43400000D03*
X66600000Y-43400000D03*
%TD*%
D27*
%TO.C,C53*%
X77800000Y-54400000D03*
X77800000Y-52400000D03*
%TD*%
D21*
%TO.C,C4*%
X125600000Y-45600000D03*
X123600000Y-45600000D03*
%TD*%
D23*
%TO.C,LED37*%
X246475000Y-41450000D03*
D24*
X241125000Y-41450000D03*
D23*
X241125000Y-42950000D03*
X246475000Y-42950000D03*
%TD*%
D27*
%TO.C,C50*%
X84200000Y-51000000D03*
X84200000Y-53000000D03*
%TD*%
D31*
%TO.C,D5*%
X94900000Y-58000000D03*
X89900000Y-58000000D03*
%TD*%
D43*
%TO.C,L2*%
X44000000Y-54200000D03*
X44000000Y-63800000D03*
%TD*%
D37*
%TO.C,U8*%
X76150000Y-63300000D03*
X76150000Y-65600000D03*
D38*
X69850000Y-65600000D03*
D37*
X76150000Y-67900000D03*
%TD*%
D23*
%TO.C,LED13*%
X132150000Y-60925000D03*
D24*
X126800000Y-60925000D03*
D23*
X126800000Y-62425000D03*
X132150000Y-62425000D03*
%TD*%
D27*
%TO.C,C62*%
X74600000Y-48800000D03*
X74600000Y-50800000D03*
%TD*%
D23*
%TO.C,LED34*%
X246550000Y-37062000D03*
D24*
X241200000Y-37062000D03*
D23*
X241200000Y-38562000D03*
X246550000Y-38562000D03*
%TD*%
D21*
%TO.C,C5*%
X119600000Y-47600000D03*
X121600000Y-47600000D03*
%TD*%
D27*
%TO.C,C51*%
X86200000Y-52600000D03*
X86200000Y-54600000D03*
%TD*%
D23*
%TO.C,LED27*%
X27375000Y-79975000D03*
D24*
X22025000Y-79975000D03*
D23*
X22025000Y-81475000D03*
X27375000Y-81475000D03*
%TD*%
%TO.C,LED9*%
X36900000Y-60925000D03*
D24*
X31550000Y-60925000D03*
D23*
X31550000Y-62425000D03*
X36900000Y-62425000D03*
%TD*%
D22*
%TO.C,R10*%
X237200000Y-31600000D03*
X237200000Y-33600000D03*
%TD*%
D26*
%TO.C,SW3*%
X247800000Y-31380000D03*
X247800000Y-27020000D03*
%TD*%
D32*
%TO.C,L1*%
X95770000Y-45800000D03*
X93830000Y-45800000D03*
%TD*%
D27*
%TO.C,C11*%
X239400000Y-27600000D03*
X239400000Y-29600000D03*
%TD*%
D22*
%TO.C,R2*%
X183200000Y-45400000D03*
X183200000Y-47400000D03*
%TD*%
D44*
%TO.C,CN1*%
X61400000Y-36245000D03*
X61400000Y-29245000D03*
D45*
X64400000Y-38845000D03*
X58400000Y-30745000D03*
X58400000Y-33745000D03*
X58400000Y-37745000D03*
%TD*%
D46*
%TO.C,C7*%
X41600000Y-33530000D03*
X41600000Y-38870000D03*
%TD*%
D21*
%TO.C,C46*%
X254400000Y-88400000D03*
X252400000Y-88400000D03*
%TD*%
D23*
%TO.C,LED40*%
X246350000Y-45850000D03*
D24*
X241000000Y-45850000D03*
D23*
X241000000Y-47350000D03*
X246350000Y-47350000D03*
%TD*%
D46*
%TO.C,C59*%
X55400000Y-46070000D03*
X55400000Y-40730000D03*
%TD*%
D47*
%TO.C,D2*%
X71771904Y-27721000D03*
X69571904Y-27721000D03*
%TD*%
D48*
%TO.C,U10*%
X68950000Y-48825000D03*
X68950000Y-49475000D03*
X68950000Y-50125000D03*
X68950000Y-50775000D03*
X64650000Y-50775000D03*
X64650000Y-50125000D03*
X64650000Y-49475000D03*
X64650000Y-48825000D03*
%TD*%
D27*
%TO.C,C8*%
X243000000Y-27600000D03*
X243000000Y-29600000D03*
%TD*%
D49*
%TO.C,D3*%
X38400000Y-46700000D03*
X38400000Y-51700000D03*
%TD*%
D21*
%TO.C,C58*%
X69600000Y-69600000D03*
X67600000Y-69600000D03*
%TD*%
D32*
%TO.C,R15*%
X74800000Y-44600000D03*
X72800000Y-44600000D03*
%TD*%
D27*
%TO.C,C1*%
X105400000Y-47000000D03*
X105400000Y-45000000D03*
%TD*%
D50*
%TO.C,P1*%
X48700000Y-31862500D03*
X54500000Y-31862500D03*
D51*
X47270000Y-32362500D03*
X55930000Y-32362500D03*
D52*
X55930000Y-28182500D03*
X47270000Y-28182500D03*
D53*
X48250000Y-33122500D03*
X49050000Y-33122500D03*
X50350000Y-33122500D03*
X51350000Y-33122500D03*
X51850000Y-33122500D03*
X52850000Y-33122500D03*
X54150000Y-33122500D03*
X54950000Y-33122500D03*
X54650000Y-33122500D03*
X53850000Y-33122500D03*
X53350000Y-33122500D03*
X52350000Y-33122500D03*
X50850000Y-33122500D03*
X49850000Y-33122500D03*
X49350000Y-33122500D03*
X48550000Y-33122500D03*
%TD*%
D21*
%TO.C,C36*%
X64000000Y-88400000D03*
X62000000Y-88400000D03*
%TD*%
D23*
%TO.C,LED19*%
X179775000Y-79975000D03*
D24*
X174425000Y-79975000D03*
D23*
X174425000Y-81475000D03*
X179775000Y-81475000D03*
%TD*%
D32*
%TO.C,R11*%
X18800000Y-57000000D03*
X16800000Y-57000000D03*
%TD*%
D23*
%TO.C,LED16*%
X236925000Y-79975000D03*
D24*
X231575000Y-79975000D03*
D23*
X231575000Y-81475000D03*
X236925000Y-81475000D03*
%TD*%
D32*
%TO.C,R5*%
X65600000Y-27800000D03*
X67600000Y-27800000D03*
%TD*%
D23*
%TO.C,LED43*%
X246275000Y-50250000D03*
D24*
X240925000Y-50250000D03*
D23*
X240925000Y-51750000D03*
X246275000Y-51750000D03*
%TD*%
D54*
%TO.C,U11*%
X82000000Y-41735000D03*
X82000000Y-43005000D03*
X82000000Y-44275000D03*
X82000000Y-45545000D03*
X82000000Y-46815000D03*
X82000000Y-48085000D03*
X82000000Y-49355000D03*
X82000000Y-50615000D03*
X76800000Y-50615000D03*
X76800000Y-49355000D03*
X76800000Y-48085000D03*
X76800000Y-46815000D03*
X76800000Y-45545000D03*
X76800000Y-44275000D03*
X76800000Y-43005000D03*
X76800000Y-41735000D03*
%TD*%
D32*
%TO.C,R8*%
X218600000Y-73600000D03*
X216600000Y-73600000D03*
%TD*%
D22*
%TO.C,R12*%
X79400000Y-35400000D03*
X79400000Y-37400000D03*
%TD*%
%TO.C,R14*%
X79800000Y-56400000D03*
X79800000Y-58400000D03*
%TD*%
D46*
%TO.C,C60*%
X48500000Y-46070000D03*
X48500000Y-40730000D03*
%TD*%
D23*
%TO.C,LED38*%
X253550000Y-41450000D03*
D24*
X248200000Y-41450000D03*
D23*
X248200000Y-42950000D03*
X253550000Y-42950000D03*
%TD*%
%TO.C,LED30*%
X227400000Y-60925000D03*
D24*
X222050000Y-60925000D03*
D23*
X222050000Y-62425000D03*
X227400000Y-62425000D03*
%TD*%
%TO.C,LED5*%
X151200000Y-32350000D03*
D24*
X145850000Y-32350000D03*
D23*
X145850000Y-33850000D03*
X151200000Y-33850000D03*
%TD*%
D55*
%TO.C,J2*%
X32435000Y-39037500D03*
X32435000Y-33037500D03*
D56*
X37095000Y-36537500D03*
%TD*%
D21*
%TO.C,C41*%
X159000000Y-88400000D03*
X157000000Y-88400000D03*
%TD*%
D27*
%TO.C,C54*%
X79800000Y-54400000D03*
X79800000Y-52400000D03*
%TD*%
D31*
%TO.C,D4*%
X42700000Y-43600000D03*
X37700000Y-43600000D03*
%TD*%
D21*
%TO.C,C63*%
X74800000Y-46800000D03*
X72800000Y-46800000D03*
%TD*%
D27*
%TO.C,C9*%
X60550000Y-59881000D03*
X60550000Y-57881000D03*
%TD*%
%TO.C,C14*%
X217000000Y-59400000D03*
X217000000Y-57400000D03*
%TD*%
D23*
%TO.C,LED35*%
X253550000Y-37050000D03*
D24*
X248200000Y-37050000D03*
D23*
X248200000Y-38550000D03*
X253550000Y-38550000D03*
%TD*%
D21*
%TO.C,C40*%
X140600000Y-88400000D03*
X138600000Y-88400000D03*
%TD*%
D22*
%TO.C,R6*%
X243000000Y-33600000D03*
X243000000Y-31600000D03*
%TD*%
D27*
%TO.C,C56*%
X63400000Y-45400000D03*
X63400000Y-47400000D03*
%TD*%
%TO.C,C57*%
X78400000Y-68600000D03*
X78400000Y-66600000D03*
%TD*%
D23*
%TO.C,LED6*%
X170250000Y-32350000D03*
D24*
X164900000Y-32350000D03*
D23*
X164900000Y-33850000D03*
X170250000Y-33850000D03*
%TD*%
D32*
%TO.C,L3*%
X85518096Y-58029000D03*
X87458096Y-58029000D03*
%TD*%
D57*
%TO.C,U5*%
X208700000Y-66892500D03*
X208700000Y-65492500D03*
X208000000Y-67592500D03*
X208000000Y-66192500D03*
X208000000Y-64792500D03*
X207300000Y-66892500D03*
X207300000Y-65492500D03*
X206600000Y-67592500D03*
X206600000Y-66192500D03*
X206600000Y-64792500D03*
X205900000Y-66892500D03*
X205900000Y-65492500D03*
D58*
X214700000Y-58482500D03*
X214700000Y-59752500D03*
X214700000Y-61022500D03*
X214700000Y-62292500D03*
X214700000Y-63562500D03*
X214700000Y-64832500D03*
X214700000Y-66102500D03*
X214700000Y-67372500D03*
X214700000Y-68642500D03*
X214700000Y-69912500D03*
X214700000Y-71182500D03*
X214700000Y-72452500D03*
X214700000Y-73722500D03*
X214700000Y-74992500D03*
D59*
X212780000Y-76382500D03*
X211510000Y-76382500D03*
X210240000Y-76382500D03*
X208970000Y-76382500D03*
X207700000Y-76382500D03*
X206430000Y-76382500D03*
X205160000Y-76382500D03*
X203890000Y-76382500D03*
X202620000Y-76382500D03*
X201350000Y-76382500D03*
X200080000Y-76382500D03*
X198810000Y-76382500D03*
D58*
X196900000Y-74992500D03*
X196900000Y-73722500D03*
X196900000Y-72452500D03*
X196900000Y-71182500D03*
X196900000Y-69912500D03*
X196900000Y-68642500D03*
X196900000Y-67372500D03*
X196900000Y-66102500D03*
X196900000Y-64832500D03*
X196900000Y-63562500D03*
X196900000Y-62292500D03*
X196900000Y-61022500D03*
X196900000Y-59752500D03*
X196900000Y-58482500D03*
D60*
X208700000Y-67592500D03*
X208700000Y-66192500D03*
X208700000Y-64792500D03*
X207300000Y-67592500D03*
X207300000Y-66192500D03*
X207300000Y-64792500D03*
X205900000Y-67592500D03*
X205900000Y-66192500D03*
X205900000Y-64792500D03*
%TD*%
M02*
