%TF.GenerationSoftware,KiCad,Pcbnew,9.0.2*%
%TF.CreationDate,2025-12-20T18:09:27-05:00*%
%TF.ProjectId,Fracture,46726163-7475-4726-952e-6b696361645f,rev?*%
%TF.SameCoordinates,Original*%
%TF.FileFunction,Soldermask,Top*%
%TF.FilePolarity,Negative*%
%FSLAX46Y46*%
G04 Gerber Fmt 4.6, Leading zero omitted, Abs format (unit mm)*
G04 Created by KiCad (PCBNEW 9.0.2) date 2025-12-20 18:09:27*
%MOMM*%
%LPD*%
G01*
G04 APERTURE LIST*
%ADD10C,1.750000*%
%ADD11R,1.700000X1.700000*%
%ADD12C,1.700000*%
%ADD13C,0.500000*%
%ADD14C,0.800000*%
%ADD15C,6.400000*%
%ADD16R,3.300000X0.850000*%
%ADD17R,2.000000X2.000000*%
%ADD18C,2.000000*%
%ADD19R,3.200000X2.000000*%
%ADD20C,0.900000*%
%ADD21C,1.200000*%
%ADD22C,0.750000*%
%ADD23O,1.200000X2.000000*%
%ADD24O,1.200000X1.800000*%
%ADD25O,3.800000X1.500000*%
%ADD26O,1.500000X3.400000*%
%ADD27C,0.400000*%
G04 APERTURE END LIST*
D10*
%TO.C,S1*%
X67220000Y-38075000D03*
X77380000Y-38075000D03*
%TD*%
%TO.C,S13*%
X124370000Y-66650000D03*
X134530000Y-66650000D03*
%TD*%
%TO.C,S7*%
X181520000Y-38075000D03*
X191680000Y-38075000D03*
%TD*%
%TO.C,S25*%
X133895000Y-85700000D03*
X144055000Y-85700000D03*
%TD*%
D11*
%TO.C,J5*%
X44730000Y-109570000D03*
D12*
X47270000Y-109570000D03*
X49810000Y-109570000D03*
X52350000Y-109570000D03*
X54890000Y-109570000D03*
X57430000Y-109570000D03*
X59970000Y-109570000D03*
X62510000Y-109570000D03*
%TD*%
D13*
%TO.C,mouse-bite-2.54mm-slot*%
X156745000Y-100350000D03*
X156745000Y-102550000D03*
X157545000Y-100350000D03*
X157545000Y-102550000D03*
X158345000Y-100350000D03*
X158345000Y-102550000D03*
%TD*%
D10*
%TO.C,S31*%
X248195000Y-85700000D03*
X258355000Y-85700000D03*
%TD*%
D13*
%TO.C,mouse-bite-2.54mm-slot*%
X209745000Y-100350000D03*
X209745000Y-102550000D03*
X210545000Y-100350000D03*
X210545000Y-102550000D03*
X211345000Y-100350000D03*
X211345000Y-102550000D03*
%TD*%
D10*
%TO.C,S10*%
X48170000Y-66650000D03*
X58330000Y-66650000D03*
%TD*%
D14*
%TO.C,H2*%
X276302944Y-96497056D03*
X277005888Y-94800000D03*
X277005888Y-98194112D03*
X278702944Y-94097056D03*
D15*
X278702944Y-96497056D03*
D14*
X278702944Y-98897056D03*
X280400000Y-94800000D03*
X280400000Y-98194112D03*
X281102944Y-96497056D03*
%TD*%
D10*
%TO.C,S21*%
X57695000Y-85700000D03*
X67855000Y-85700000D03*
%TD*%
D16*
%TO.C,CO3*%
X266060000Y-37460000D03*
X272200000Y-37460000D03*
X266060000Y-40000000D03*
X272200000Y-40000000D03*
X266060000Y-42540000D03*
X272200000Y-42540000D03*
%TD*%
D10*
%TO.C,S32*%
X267245000Y-85700000D03*
X277405000Y-85700000D03*
%TD*%
D13*
%TO.C,mouse-bite-2.54mm-slot*%
X171895000Y-108520000D03*
X174095000Y-108520000D03*
X171895000Y-107720000D03*
X174095000Y-107720000D03*
X171895000Y-106920000D03*
X174095000Y-106920000D03*
%TD*%
%TO.C,mouse-bite-2.54mm-slot*%
X262745000Y-100350000D03*
X262745000Y-102550000D03*
X263545000Y-100350000D03*
X263545000Y-102550000D03*
X264345000Y-100350000D03*
X264345000Y-102550000D03*
%TD*%
D10*
%TO.C,S26*%
X152945000Y-85700000D03*
X163105000Y-85700000D03*
%TD*%
D13*
%TO.C,mouse-bite-2.54mm-slot*%
X130245000Y-100350000D03*
X130245000Y-102550000D03*
X131045000Y-100350000D03*
X131045000Y-102550000D03*
X131845000Y-100350000D03*
X131845000Y-102550000D03*
%TD*%
D11*
%TO.C,J5*%
X256725000Y-109540000D03*
D12*
X259265000Y-109540000D03*
X261805000Y-109540000D03*
X264345000Y-109540000D03*
X266885000Y-109540000D03*
X269425000Y-109540000D03*
X271965000Y-109540000D03*
X274505000Y-109540000D03*
%TD*%
D13*
%TO.C,mouse-bite-2.54mm-slot*%
X198395000Y-108520000D03*
X200595000Y-108520000D03*
X198395000Y-107720000D03*
X200595000Y-107720000D03*
X198395000Y-106920000D03*
X200595000Y-106920000D03*
%TD*%
D10*
%TO.C,S15*%
X181520000Y-66650000D03*
X191680000Y-66650000D03*
%TD*%
D11*
%TO.C,J5*%
X97725000Y-109540000D03*
D12*
X100265000Y-109540000D03*
X102805000Y-109540000D03*
X105345000Y-109540000D03*
X107885000Y-109540000D03*
X110425000Y-109540000D03*
X112965000Y-109540000D03*
X115505000Y-109540000D03*
%TD*%
D10*
%TO.C,S5*%
X143420000Y-38075000D03*
X153580000Y-38075000D03*
%TD*%
%TO.C,S18*%
X257720000Y-66650000D03*
X267880000Y-66650000D03*
%TD*%
%TO.C,S11*%
X86270000Y-66650000D03*
X96430000Y-66650000D03*
%TD*%
D11*
%TO.C,J6*%
X230220000Y-105965000D03*
D12*
X232760000Y-105965000D03*
X235300000Y-105965000D03*
X237840000Y-105965000D03*
X240380000Y-105965000D03*
X242920000Y-105965000D03*
X245460000Y-105965000D03*
X248000000Y-105965000D03*
%TD*%
D11*
%TO.C,J6*%
X124220000Y-105965000D03*
D12*
X126760000Y-105965000D03*
X129300000Y-105965000D03*
X131840000Y-105965000D03*
X134380000Y-105965000D03*
X136920000Y-105965000D03*
X139460000Y-105965000D03*
X142000000Y-105965000D03*
%TD*%
D14*
%TO.C,H5*%
X146400000Y-62800000D03*
X147102944Y-61102944D03*
X147102944Y-64497056D03*
X148800000Y-60400000D03*
D15*
X148800000Y-62800000D03*
D14*
X148800000Y-65200000D03*
X150497056Y-61102944D03*
X150497056Y-64497056D03*
X151200000Y-62800000D03*
%TD*%
D10*
%TO.C,S14*%
X162470000Y-66650000D03*
X172630000Y-66650000D03*
%TD*%
D11*
%TO.C,J6*%
X177220000Y-105965000D03*
D12*
X179760000Y-105965000D03*
X182300000Y-105965000D03*
X184840000Y-105965000D03*
X187380000Y-105965000D03*
X189920000Y-105965000D03*
X192460000Y-105965000D03*
X195000000Y-105965000D03*
%TD*%
D11*
%TO.C,J3*%
X17000000Y-35520000D03*
D12*
X17000000Y-38060000D03*
X17000000Y-40600000D03*
X17000000Y-43140000D03*
X17000000Y-45680000D03*
X17000000Y-48220000D03*
X17000000Y-50760000D03*
X17000000Y-53300000D03*
%TD*%
D10*
%TO.C,S29*%
X210095000Y-85700000D03*
X220255000Y-85700000D03*
%TD*%
D11*
%TO.C,J6*%
X150720000Y-105965000D03*
D12*
X153260000Y-105965000D03*
X155800000Y-105965000D03*
X158340000Y-105965000D03*
X160880000Y-105965000D03*
X163420000Y-105965000D03*
X165960000Y-105965000D03*
X168500000Y-105965000D03*
%TD*%
D10*
%TO.C,S27*%
X171995000Y-85700000D03*
X182155000Y-85700000D03*
%TD*%
D13*
%TO.C,mouse-bite-2.54mm-slot*%
X145395000Y-108520000D03*
X147595000Y-108520000D03*
X145395000Y-107720000D03*
X147595000Y-107720000D03*
X145395000Y-106920000D03*
X147595000Y-106920000D03*
%TD*%
D11*
%TO.C,J6*%
X44725000Y-105995000D03*
D12*
X47265000Y-105995000D03*
X49805000Y-105995000D03*
X52345000Y-105995000D03*
X54885000Y-105995000D03*
X57425000Y-105995000D03*
X59965000Y-105995000D03*
X62505000Y-105995000D03*
%TD*%
D11*
%TO.C,J6*%
X203720000Y-105965000D03*
D12*
X206260000Y-105965000D03*
X208800000Y-105965000D03*
X211340000Y-105965000D03*
X213880000Y-105965000D03*
X216420000Y-105965000D03*
X218960000Y-105965000D03*
X221500000Y-105965000D03*
%TD*%
D10*
%TO.C,S8*%
X200570000Y-38075000D03*
X210730000Y-38075000D03*
%TD*%
D13*
%TO.C,mouse-bite-2.54mm-slot*%
X92395000Y-108520000D03*
X94595000Y-108520000D03*
X92395000Y-107720000D03*
X94595000Y-107720000D03*
X92395000Y-106920000D03*
X94595000Y-106920000D03*
%TD*%
%TO.C,mouse-bite-2.54mm-slot*%
X77245000Y-100350000D03*
X77245000Y-102550000D03*
X78045000Y-100350000D03*
X78045000Y-102550000D03*
X78845000Y-100350000D03*
X78845000Y-102550000D03*
%TD*%
%TO.C,mouse-bite-2.54mm-slot*%
X65900000Y-108550000D03*
X68100000Y-108550000D03*
X65900000Y-107750000D03*
X68100000Y-107750000D03*
X65900000Y-106950000D03*
X68100000Y-106950000D03*
%TD*%
%TO.C,mouse-bite-2.54mm-slot*%
X236245000Y-100350000D03*
X236245000Y-102550000D03*
X237045000Y-100350000D03*
X237045000Y-102550000D03*
X237845000Y-100350000D03*
X237845000Y-102550000D03*
%TD*%
D11*
%TO.C,J5*%
X124225000Y-109540000D03*
D12*
X126765000Y-109540000D03*
X129305000Y-109540000D03*
X131845000Y-109540000D03*
X134385000Y-109540000D03*
X136925000Y-109540000D03*
X139465000Y-109540000D03*
X142005000Y-109540000D03*
%TD*%
D10*
%TO.C,S30*%
X229145000Y-85700000D03*
X239305000Y-85700000D03*
%TD*%
D11*
%TO.C,J5*%
X203725000Y-109540000D03*
D12*
X206265000Y-109540000D03*
X208805000Y-109540000D03*
X211345000Y-109540000D03*
X213885000Y-109540000D03*
X216425000Y-109540000D03*
X218965000Y-109540000D03*
X221505000Y-109540000D03*
%TD*%
D10*
%TO.C,S3*%
X105320000Y-38075000D03*
X115480000Y-38075000D03*
%TD*%
D13*
%TO.C,mouse-bite-2.54mm-slot*%
X24200000Y-100380000D03*
X24200000Y-102580000D03*
X25000000Y-100380000D03*
X25000000Y-102580000D03*
X25800000Y-100380000D03*
X25800000Y-102580000D03*
%TD*%
D11*
%TO.C,J5*%
X177225000Y-109540000D03*
D12*
X179765000Y-109540000D03*
X182305000Y-109540000D03*
X184845000Y-109540000D03*
X187385000Y-109540000D03*
X189925000Y-109540000D03*
X192465000Y-109540000D03*
X195005000Y-109540000D03*
%TD*%
D10*
%TO.C,S17*%
X238670000Y-66650000D03*
X248830000Y-66650000D03*
%TD*%
D11*
%TO.C,J6*%
X18175000Y-105995000D03*
D12*
X20715000Y-105995000D03*
X23255000Y-105995000D03*
X25795000Y-105995000D03*
X28335000Y-105995000D03*
X30875000Y-105995000D03*
X33415000Y-105995000D03*
X35955000Y-105995000D03*
%TD*%
D13*
%TO.C,mouse-bite-2.54mm-slot*%
X183245000Y-100350000D03*
X183245000Y-102550000D03*
X184045000Y-100350000D03*
X184045000Y-102550000D03*
X184845000Y-100350000D03*
X184845000Y-102550000D03*
%TD*%
D10*
%TO.C,S9*%
X29120000Y-66650000D03*
X39280000Y-66650000D03*
%TD*%
D17*
%TO.C,SW4*%
X217575000Y-35400000D03*
D18*
X217575000Y-40400000D03*
X217575000Y-37900000D03*
D19*
X225075000Y-32300000D03*
X225075000Y-43500000D03*
D18*
X232075000Y-40400000D03*
X232075000Y-35400000D03*
%TD*%
D13*
%TO.C,mouse-bite-2.54mm-slot*%
X251395000Y-108520000D03*
X253595000Y-108520000D03*
X251395000Y-107720000D03*
X253595000Y-107720000D03*
X251395000Y-106920000D03*
X253595000Y-106920000D03*
%TD*%
D11*
%TO.C,J5*%
X230225000Y-109540000D03*
D12*
X232765000Y-109540000D03*
X235305000Y-109540000D03*
X237845000Y-109540000D03*
X240385000Y-109540000D03*
X242925000Y-109540000D03*
X245465000Y-109540000D03*
X248005000Y-109540000D03*
%TD*%
D16*
%TO.C,CO4*%
X266060000Y-46366782D03*
X272200000Y-46366782D03*
X266060000Y-48906782D03*
X272200000Y-48906782D03*
X266060000Y-51446782D03*
X272200000Y-51446782D03*
%TD*%
D11*
%TO.C,J6*%
X256720000Y-105965000D03*
D12*
X259260000Y-105965000D03*
X261800000Y-105965000D03*
X264340000Y-105965000D03*
X266880000Y-105965000D03*
X269420000Y-105965000D03*
X271960000Y-105965000D03*
X274500000Y-105965000D03*
%TD*%
D10*
%TO.C,S20*%
X38645000Y-85700000D03*
X48805000Y-85700000D03*
%TD*%
D13*
%TO.C,mouse-bite-2.54mm-slot*%
X39350000Y-108550000D03*
X41550000Y-108550000D03*
X39350000Y-107750000D03*
X41550000Y-107750000D03*
X39350000Y-106950000D03*
X41550000Y-106950000D03*
%TD*%
D11*
%TO.C,J5*%
X18180000Y-109570000D03*
D12*
X20720000Y-109570000D03*
X23260000Y-109570000D03*
X25800000Y-109570000D03*
X28340000Y-109570000D03*
X30880000Y-109570000D03*
X33420000Y-109570000D03*
X35960000Y-109570000D03*
%TD*%
D11*
%TO.C,J5*%
X71225000Y-109540000D03*
D12*
X73765000Y-109540000D03*
X76305000Y-109540000D03*
X78845000Y-109540000D03*
X81385000Y-109540000D03*
X83925000Y-109540000D03*
X86465000Y-109540000D03*
X89005000Y-109540000D03*
%TD*%
D10*
%TO.C,S16*%
X219620000Y-66650000D03*
X229780000Y-66650000D03*
%TD*%
%TO.C,S6*%
X162470000Y-38075000D03*
X172630000Y-38075000D03*
%TD*%
D11*
%TO.C,J6*%
X71220000Y-105965000D03*
D12*
X73760000Y-105965000D03*
X76300000Y-105965000D03*
X78840000Y-105965000D03*
X81380000Y-105965000D03*
X83920000Y-105965000D03*
X86460000Y-105965000D03*
X89000000Y-105965000D03*
%TD*%
D10*
%TO.C,S19*%
X19595000Y-85700000D03*
X29755000Y-85700000D03*
%TD*%
%TO.C,S4*%
X124370000Y-38075000D03*
X134530000Y-38075000D03*
%TD*%
D16*
%TO.C,CO1*%
X255860000Y-37460000D03*
X262000000Y-37460000D03*
X255860000Y-40000000D03*
X262000000Y-40000000D03*
X255860000Y-42540000D03*
X262000000Y-42540000D03*
%TD*%
D14*
%TO.C,H3*%
X16400000Y-28800000D03*
X17102944Y-27102944D03*
X17102944Y-30497056D03*
X18800000Y-26400000D03*
D15*
X18800000Y-28800000D03*
D14*
X18800000Y-31200000D03*
X20497056Y-27102944D03*
X20497056Y-30497056D03*
X21200000Y-28800000D03*
%TD*%
D10*
%TO.C,S24*%
X114845000Y-85700000D03*
X125005000Y-85700000D03*
%TD*%
%TO.C,S23*%
X95795000Y-85700000D03*
X105955000Y-85700000D03*
%TD*%
D14*
%TO.C,H4*%
X276200000Y-28800000D03*
X276902944Y-27102944D03*
X276902944Y-30497056D03*
X278600000Y-26400000D03*
D15*
X278600000Y-28800000D03*
D14*
X278600000Y-31200000D03*
X280297056Y-27102944D03*
X280297056Y-30497056D03*
X281000000Y-28800000D03*
%TD*%
%TO.C,H1*%
X16400000Y-96600000D03*
X17102944Y-94902944D03*
X17102944Y-98297056D03*
X18800000Y-94200000D03*
D15*
X18800000Y-96600000D03*
D14*
X18800000Y-99000000D03*
X20497056Y-94902944D03*
X20497056Y-98297056D03*
X21200000Y-96600000D03*
%TD*%
D11*
%TO.C,J4*%
X280400000Y-35520000D03*
D12*
X280400000Y-38060000D03*
X280400000Y-40600000D03*
X280400000Y-43140000D03*
X280400000Y-45680000D03*
X280400000Y-48220000D03*
X280400000Y-50760000D03*
X280400000Y-53300000D03*
%TD*%
D10*
%TO.C,S22*%
X76745000Y-85700000D03*
X86905000Y-85700000D03*
%TD*%
%TO.C,S12*%
X105320000Y-66650000D03*
X115480000Y-66650000D03*
%TD*%
%TO.C,S28*%
X191045000Y-85700000D03*
X201205000Y-85700000D03*
%TD*%
D13*
%TO.C,mouse-bite-2.54mm-slot*%
X103745000Y-100350000D03*
X103745000Y-102550000D03*
X104545000Y-100350000D03*
X104545000Y-102550000D03*
X105345000Y-100350000D03*
X105345000Y-102550000D03*
%TD*%
D10*
%TO.C,S2*%
X86270000Y-38075000D03*
X96430000Y-38075000D03*
%TD*%
D11*
%TO.C,J5*%
X150725000Y-109540000D03*
D12*
X153265000Y-109540000D03*
X155805000Y-109540000D03*
X158345000Y-109540000D03*
X160885000Y-109540000D03*
X163425000Y-109540000D03*
X165965000Y-109540000D03*
X168505000Y-109540000D03*
%TD*%
D11*
%TO.C,J6*%
X97720000Y-105965000D03*
D12*
X100260000Y-105965000D03*
X102800000Y-105965000D03*
X105340000Y-105965000D03*
X107880000Y-105965000D03*
X110420000Y-105965000D03*
X112960000Y-105965000D03*
X115500000Y-105965000D03*
%TD*%
D13*
%TO.C,mouse-bite-2.54mm-slot*%
X118895000Y-108520000D03*
X121095000Y-108520000D03*
X118895000Y-107720000D03*
X121095000Y-107720000D03*
X118895000Y-106920000D03*
X121095000Y-106920000D03*
%TD*%
D16*
%TO.C,CO2*%
X255860000Y-46366782D03*
X262000000Y-46366782D03*
X255860000Y-48906782D03*
X262000000Y-48906782D03*
X255860000Y-51446782D03*
X262000000Y-51446782D03*
%TD*%
D13*
%TO.C,mouse-bite-2.54mm-slot*%
X224895000Y-108520000D03*
X227095000Y-108520000D03*
X224895000Y-107720000D03*
X227095000Y-107720000D03*
X224895000Y-106920000D03*
X227095000Y-106920000D03*
%TD*%
%TO.C,mouse-bite-2.54mm-slot*%
X50750000Y-100380000D03*
X50750000Y-102580000D03*
X51550000Y-100380000D03*
X51550000Y-102580000D03*
X52350000Y-100380000D03*
X52350000Y-102580000D03*
%TD*%
D11*
%TO.C,J1*%
X26000000Y-34710000D03*
D12*
X26000000Y-37250000D03*
%TD*%
D20*
%TO.C,SW1*%
X38200000Y-27187500D03*
X45000000Y-27187500D03*
%TD*%
D21*
%TO.C,CN1*%
X61400000Y-36245000D03*
X61400000Y-29245000D03*
%TD*%
D22*
%TO.C,P1*%
X48700000Y-31862500D03*
X54500000Y-31862500D03*
D23*
X47270000Y-32362500D03*
X55930000Y-32362500D03*
D24*
X55930000Y-28182500D03*
X47270000Y-28182500D03*
%TD*%
D25*
%TO.C,J2*%
X32435000Y-39037500D03*
X32435000Y-33037500D03*
D26*
X37095000Y-36537500D03*
%TD*%
D27*
%TO.C,U5*%
X208700000Y-66892500D03*
X208700000Y-65492500D03*
X208000000Y-67592500D03*
X208000000Y-66192500D03*
X208000000Y-64792500D03*
X207300000Y-66892500D03*
X207300000Y-65492500D03*
X206600000Y-67592500D03*
X206600000Y-66192500D03*
X206600000Y-64792500D03*
X205900000Y-66892500D03*
X205900000Y-65492500D03*
%TD*%
M02*
