%TF.GenerationSoftware,KiCad,Pcbnew,9.0.2*%
%TF.CreationDate,2026-01-01T18:40:39-05:00*%
%TF.ProjectId,Fracture,46726163-7475-4726-952e-6b696361645f,rev?*%
%TF.SameCoordinates,Original*%
%TF.FileFunction,Profile,NP*%
%FSLAX46Y46*%
G04 Gerber Fmt 4.6, Leading zero omitted, Abs format (unit mm)*
G04 Created by KiCad (PCBNEW 9.0.2) date 2026-01-01 18:40:39*
%MOMM*%
%LPD*%
G01*
G04 APERTURE LIST*
%TA.AperFunction,Profile*%
%ADD10C,0.200000*%
%TD*%
%TA.AperFunction,Profile*%
%ADD11C,0.050000*%
%TD*%
%TA.AperFunction,Profile*%
%ADD12C,0.120000*%
%TD*%
G04 APERTURE END LIST*
D10*
X19200000Y-25200000D02*
X278200000Y-25200000D01*
X19200000Y-100200000D02*
G75*
G02*
X15200000Y-96200000I0J4000000D01*
G01*
X278200000Y-25200000D02*
G75*
G02*
X282200000Y-29200000I0J-4000000D01*
G01*
X282200000Y-29200000D02*
X282200000Y-96200000D01*
D11*
X278200000Y-100200000D02*
X19200000Y-100200000D01*
D10*
X282200000Y-96200000D02*
G75*
G02*
X278200000Y-100200000I-4000000J0D01*
G01*
X15200000Y-96200000D02*
X15200000Y-29200000D01*
X15200000Y-29200000D02*
G75*
G02*
X19200000Y-25200000I4000000J0D01*
G01*
D12*
%TO.C,LED11*%
X89475000Y-60375000D02*
X89475000Y-62975000D01*
X89675000Y-63175000D02*
X93075000Y-63175000D01*
X93075000Y-60175000D02*
X89675000Y-60175000D01*
X93275000Y-62975000D02*
X93275000Y-60375000D01*
X89475000Y-60375000D02*
G75*
G02*
X89675000Y-60175000I200000J0D01*
G01*
X89675000Y-63175000D02*
G75*
G02*
X89475000Y-62975000I0J200000D01*
G01*
X93075000Y-60175000D02*
G75*
G02*
X93275000Y-60375000I-1J-200001D01*
G01*
X93275000Y-62975000D02*
G75*
G02*
X93075000Y-63175000I-200001J1D01*
G01*
%TO.C,LED23*%
X99000000Y-79425000D02*
X99000000Y-82025000D01*
X99200000Y-82225000D02*
X102600000Y-82225000D01*
X102600000Y-79225000D02*
X99200000Y-79225000D01*
X102800000Y-82025000D02*
X102800000Y-79425000D01*
X99000000Y-79425000D02*
G75*
G02*
X99200000Y-79225000I200000J0D01*
G01*
X99200000Y-82225000D02*
G75*
G02*
X99000000Y-82025000I0J200000D01*
G01*
X102600000Y-79225000D02*
G75*
G02*
X102800000Y-79425000I-1J-200001D01*
G01*
X102800000Y-82025000D02*
G75*
G02*
X102600000Y-82225000I-200001J1D01*
G01*
%TO.C,LED7*%
X184725000Y-31800000D02*
X184725000Y-34400000D01*
X184925000Y-34600000D02*
X188325000Y-34600000D01*
X188325000Y-31600000D02*
X184925000Y-31600000D01*
X188525000Y-34400000D02*
X188525000Y-31800000D01*
X184725000Y-31800000D02*
G75*
G02*
X184925000Y-31600000I200000J0D01*
G01*
X184925000Y-34600000D02*
G75*
G02*
X184725000Y-34400000I0J200000D01*
G01*
X188325000Y-31600000D02*
G75*
G02*
X188525000Y-31800000I-1J-200001D01*
G01*
X188525000Y-34400000D02*
G75*
G02*
X188325000Y-34600000I-200001J1D01*
G01*
%TO.C,LED33*%
X234900000Y-36500000D02*
X234900000Y-39100000D01*
X235100000Y-39300000D02*
X238500000Y-39300000D01*
X238500000Y-36300000D02*
X235100000Y-36300000D01*
X238700000Y-39100000D02*
X238700000Y-36500000D01*
X234900000Y-36500000D02*
G75*
G02*
X235100000Y-36300000I200000J0D01*
G01*
X235100000Y-39300000D02*
G75*
G02*
X234900000Y-39100000I0J200000D01*
G01*
X238500000Y-36300000D02*
G75*
G02*
X238700000Y-36500000I-1J-200001D01*
G01*
X238700000Y-39100000D02*
G75*
G02*
X238500000Y-39300000I-200001J1D01*
G01*
%TO.C,LED14*%
X165675000Y-60375000D02*
X165675000Y-62975000D01*
X165875000Y-63175000D02*
X169275000Y-63175000D01*
X169275000Y-60175000D02*
X165875000Y-60175000D01*
X169475000Y-62975000D02*
X169475000Y-60375000D01*
X165675000Y-60375000D02*
G75*
G02*
X165875000Y-60175000I200000J0D01*
G01*
X165875000Y-63175000D02*
G75*
G02*
X165675000Y-62975000I0J200000D01*
G01*
X169275000Y-60175000D02*
G75*
G02*
X169475000Y-60375000I-1J-200001D01*
G01*
X169475000Y-62975000D02*
G75*
G02*
X169275000Y-63175000I-200001J1D01*
G01*
%TO.C,LED15*%
X184725000Y-60375000D02*
X184725000Y-62975000D01*
X184925000Y-63175000D02*
X188325000Y-63175000D01*
X188325000Y-60175000D02*
X184925000Y-60175000D01*
X188525000Y-62975000D02*
X188525000Y-60375000D01*
X184725000Y-60375000D02*
G75*
G02*
X184925000Y-60175000I200000J0D01*
G01*
X184925000Y-63175000D02*
G75*
G02*
X184725000Y-62975000I0J200000D01*
G01*
X188325000Y-60175000D02*
G75*
G02*
X188525000Y-60375000I-1J-200001D01*
G01*
X188525000Y-62975000D02*
G75*
G02*
X188325000Y-63175000I-200001J1D01*
G01*
%TO.C,LED8*%
X203775000Y-31800000D02*
X203775000Y-34400000D01*
X203975000Y-34600000D02*
X207375000Y-34600000D01*
X207375000Y-31600000D02*
X203975000Y-31600000D01*
X207575000Y-34400000D02*
X207575000Y-31800000D01*
X203775000Y-31800000D02*
G75*
G02*
X203975000Y-31600000I200000J0D01*
G01*
X203975000Y-34600000D02*
G75*
G02*
X203775000Y-34400000I0J200000D01*
G01*
X207375000Y-31600000D02*
G75*
G02*
X207575000Y-31800000I-1J-200001D01*
G01*
X207575000Y-34400000D02*
G75*
G02*
X207375000Y-34600000I-200001J1D01*
G01*
%TO.C,LED3*%
X108525000Y-31800000D02*
X108525000Y-34400000D01*
X108725000Y-34600000D02*
X112125000Y-34600000D01*
X112125000Y-31600000D02*
X108725000Y-31600000D01*
X112325000Y-34400000D02*
X112325000Y-31800000D01*
X108525000Y-31800000D02*
G75*
G02*
X108725000Y-31600000I200000J0D01*
G01*
X108725000Y-34600000D02*
G75*
G02*
X108525000Y-34400000I0J200000D01*
G01*
X112125000Y-31600000D02*
G75*
G02*
X112325000Y-31800000I-1J-200001D01*
G01*
X112325000Y-34400000D02*
G75*
G02*
X112125000Y-34600000I-200001J1D01*
G01*
%TO.C,LED39*%
X234775000Y-45300000D02*
X234775000Y-47900000D01*
X234975000Y-48100000D02*
X238375000Y-48100000D01*
X238375000Y-45100000D02*
X234975000Y-45100000D01*
X238575000Y-47900000D02*
X238575000Y-45300000D01*
X234775000Y-45300000D02*
G75*
G02*
X234975000Y-45100000I200000J0D01*
G01*
X234975000Y-48100000D02*
G75*
G02*
X234775000Y-47900000I0J200000D01*
G01*
X238375000Y-45100000D02*
G75*
G02*
X238575000Y-45300000I-1J-200001D01*
G01*
X238575000Y-47900000D02*
G75*
G02*
X238375000Y-48100000I-200001J1D01*
G01*
%TO.C,LED10*%
X51375000Y-60375000D02*
X51375000Y-62975000D01*
X51575000Y-63175000D02*
X54975000Y-63175000D01*
X54975000Y-60175000D02*
X51575000Y-60175000D01*
X55175000Y-62975000D02*
X55175000Y-60375000D01*
X51375000Y-60375000D02*
G75*
G02*
X51575000Y-60175000I200000J0D01*
G01*
X51575000Y-63175000D02*
G75*
G02*
X51375000Y-62975000I0J200000D01*
G01*
X54975000Y-60175000D02*
G75*
G02*
X55175000Y-60375000I-1J-200001D01*
G01*
X55175000Y-62975000D02*
G75*
G02*
X54975000Y-63175000I-200001J1D01*
G01*
%TO.C,LED22*%
X118050000Y-79425000D02*
X118050000Y-82025000D01*
X118250000Y-82225000D02*
X121650000Y-82225000D01*
X121650000Y-79225000D02*
X118250000Y-79225000D01*
X121850000Y-82025000D02*
X121850000Y-79425000D01*
X118050000Y-79425000D02*
G75*
G02*
X118250000Y-79225000I200000J0D01*
G01*
X118250000Y-82225000D02*
G75*
G02*
X118050000Y-82025000I0J200000D01*
G01*
X121650000Y-79225000D02*
G75*
G02*
X121850000Y-79425000I-1J-200001D01*
G01*
X121850000Y-82025000D02*
G75*
G02*
X121650000Y-82225000I-200001J1D01*
G01*
%TO.C,LED36*%
X234900000Y-40900000D02*
X234900000Y-43500000D01*
X235100000Y-43700000D02*
X238500000Y-43700000D01*
X238500000Y-40700000D02*
X235100000Y-40700000D01*
X238700000Y-43500000D02*
X238700000Y-40900000D01*
X234900000Y-40900000D02*
G75*
G02*
X235100000Y-40700000I200000J0D01*
G01*
X235100000Y-43700000D02*
G75*
G02*
X234900000Y-43500000I0J200000D01*
G01*
X238500000Y-40700000D02*
G75*
G02*
X238700000Y-40900000I-1J-200001D01*
G01*
X238700000Y-43500000D02*
G75*
G02*
X238500000Y-43700000I-200001J1D01*
G01*
%TO.C,LED32*%
X270450000Y-79425000D02*
X270450000Y-82025000D01*
X270650000Y-82225000D02*
X274050000Y-82225000D01*
X274050000Y-79225000D02*
X270650000Y-79225000D01*
X274250000Y-82025000D02*
X274250000Y-79425000D01*
X270450000Y-79425000D02*
G75*
G02*
X270650000Y-79225000I200000J0D01*
G01*
X270650000Y-82225000D02*
G75*
G02*
X270450000Y-82025000I0J200000D01*
G01*
X274050000Y-79225000D02*
G75*
G02*
X274250000Y-79425000I-1J-200001D01*
G01*
X274250000Y-82025000D02*
G75*
G02*
X274050000Y-82225000I-200001J1D01*
G01*
%TO.C,LED44*%
X248700000Y-49700000D02*
X248700000Y-52300000D01*
X248900000Y-52500000D02*
X252300000Y-52500000D01*
X252300000Y-49500000D02*
X248900000Y-49500000D01*
X252500000Y-52300000D02*
X252500000Y-49700000D01*
X248700000Y-49700000D02*
G75*
G02*
X248900000Y-49500000I200000J0D01*
G01*
X248900000Y-52500000D02*
G75*
G02*
X248700000Y-52300000I0J200000D01*
G01*
X252300000Y-49500000D02*
G75*
G02*
X252500000Y-49700000I-1J-200001D01*
G01*
X252500000Y-52300000D02*
G75*
G02*
X252300000Y-52500000I-200001J1D01*
G01*
%TO.C,LED42*%
X234700000Y-49700000D02*
X234700000Y-52300000D01*
X234900000Y-52500000D02*
X238300000Y-52500000D01*
X238300000Y-49500000D02*
X234900000Y-49500000D01*
X238500000Y-52300000D02*
X238500000Y-49700000D01*
X234700000Y-49700000D02*
G75*
G02*
X234900000Y-49500000I200000J0D01*
G01*
X234900000Y-52500000D02*
G75*
G02*
X234700000Y-52300000I0J200000D01*
G01*
X238300000Y-49500000D02*
G75*
G02*
X238500000Y-49700000I-1J-200001D01*
G01*
X238500000Y-52300000D02*
G75*
G02*
X238300000Y-52500000I-200001J1D01*
G01*
%TO.C,LED45*%
X256100000Y-28100000D02*
X256100000Y-31500000D01*
X256300000Y-31700000D02*
X258900000Y-31700000D01*
X258900000Y-27900000D02*
X256300000Y-27900000D01*
X259100000Y-31500000D02*
X259100000Y-28100000D01*
X256100000Y-28100000D02*
G75*
G02*
X256300000Y-27900000I200001J-1D01*
G01*
X256300000Y-31700000D02*
G75*
G02*
X256100000Y-31500000I0J200000D01*
G01*
X258900000Y-27900000D02*
G75*
G02*
X259100000Y-28100000I-1J-200001D01*
G01*
X259100000Y-31500000D02*
G75*
G02*
X258900000Y-31700000I-200000J0D01*
G01*
%TO.C,LED25*%
X60900000Y-79425000D02*
X60900000Y-82025000D01*
X61100000Y-82225000D02*
X64500000Y-82225000D01*
X64500000Y-79225000D02*
X61100000Y-79225000D01*
X64700000Y-82025000D02*
X64700000Y-79425000D01*
X60900000Y-79425000D02*
G75*
G02*
X61100000Y-79225000I200000J0D01*
G01*
X61100000Y-82225000D02*
G75*
G02*
X60900000Y-82025000I0J200000D01*
G01*
X64500000Y-79225000D02*
G75*
G02*
X64700000Y-79425000I-1J-200001D01*
G01*
X64700000Y-82025000D02*
G75*
G02*
X64500000Y-82225000I-200001J1D01*
G01*
%TO.C,LED20*%
X156150000Y-79425000D02*
X156150000Y-82025000D01*
X156350000Y-82225000D02*
X159750000Y-82225000D01*
X159750000Y-79225000D02*
X156350000Y-79225000D01*
X159950000Y-82025000D02*
X159950000Y-79425000D01*
X156150000Y-79425000D02*
G75*
G02*
X156350000Y-79225000I200000J0D01*
G01*
X156350000Y-82225000D02*
G75*
G02*
X156150000Y-82025000I0J200000D01*
G01*
X159750000Y-79225000D02*
G75*
G02*
X159950000Y-79425000I-1J-200001D01*
G01*
X159950000Y-82025000D02*
G75*
G02*
X159750000Y-82225000I-200001J1D01*
G01*
%TO.C,LED17*%
X213300000Y-79425000D02*
X213300000Y-82025000D01*
X213500000Y-82225000D02*
X216900000Y-82225000D01*
X216900000Y-79225000D02*
X213500000Y-79225000D01*
X217100000Y-82025000D02*
X217100000Y-79425000D01*
X213300000Y-79425000D02*
G75*
G02*
X213500000Y-79225000I200000J0D01*
G01*
X213500000Y-82225000D02*
G75*
G02*
X213300000Y-82025000I0J200000D01*
G01*
X216900000Y-79225000D02*
G75*
G02*
X217100000Y-79425000I-1J-200001D01*
G01*
X217100000Y-82025000D02*
G75*
G02*
X216900000Y-82225000I-200001J1D01*
G01*
%TO.C,LED24*%
X79950000Y-79425000D02*
X79950000Y-82025000D01*
X80150000Y-82225000D02*
X83550000Y-82225000D01*
X83550000Y-79225000D02*
X80150000Y-79225000D01*
X83750000Y-82025000D02*
X83750000Y-79425000D01*
X79950000Y-79425000D02*
G75*
G02*
X80150000Y-79225000I200000J0D01*
G01*
X80150000Y-82225000D02*
G75*
G02*
X79950000Y-82025000I0J200000D01*
G01*
X83550000Y-79225000D02*
G75*
G02*
X83750000Y-79425000I-1J-200001D01*
G01*
X83750000Y-82025000D02*
G75*
G02*
X83550000Y-82225000I-200001J1D01*
G01*
%TO.C,LED21*%
X137100000Y-79425000D02*
X137100000Y-82025000D01*
X137300000Y-82225000D02*
X140700000Y-82225000D01*
X140700000Y-79225000D02*
X137300000Y-79225000D01*
X140900000Y-82025000D02*
X140900000Y-79425000D01*
X137100000Y-79425000D02*
G75*
G02*
X137300000Y-79225000I200000J0D01*
G01*
X137300000Y-82225000D02*
G75*
G02*
X137100000Y-82025000I0J200000D01*
G01*
X140700000Y-79225000D02*
G75*
G02*
X140900000Y-79425000I-1J-200001D01*
G01*
X140900000Y-82025000D02*
G75*
G02*
X140700000Y-82225000I-200001J1D01*
G01*
%TO.C,LED1*%
X70425000Y-31800000D02*
X70425000Y-34400000D01*
X70625000Y-34600000D02*
X74025000Y-34600000D01*
X74025000Y-31600000D02*
X70625000Y-31600000D01*
X74225000Y-34400000D02*
X74225000Y-31800000D01*
X70425000Y-31800000D02*
G75*
G02*
X70625000Y-31600000I200000J0D01*
G01*
X70625000Y-34600000D02*
G75*
G02*
X70425000Y-34400000I0J200000D01*
G01*
X74025000Y-31600000D02*
G75*
G02*
X74225000Y-31800000I-1J-200001D01*
G01*
X74225000Y-34400000D02*
G75*
G02*
X74025000Y-34600000I-200001J1D01*
G01*
%TO.C,LED29*%
X241875000Y-60375000D02*
X241875000Y-62975000D01*
X242075000Y-63175000D02*
X245475000Y-63175000D01*
X245475000Y-60175000D02*
X242075000Y-60175000D01*
X245675000Y-62975000D02*
X245675000Y-60375000D01*
X241875000Y-60375000D02*
G75*
G02*
X242075000Y-60175000I200000J0D01*
G01*
X242075000Y-63175000D02*
G75*
G02*
X241875000Y-62975000I0J200000D01*
G01*
X245475000Y-60175000D02*
G75*
G02*
X245675000Y-60375000I-1J-200001D01*
G01*
X245675000Y-62975000D02*
G75*
G02*
X245475000Y-63175000I-200001J1D01*
G01*
%TO.C,LED12*%
X108525000Y-60375000D02*
X108525000Y-62975000D01*
X108725000Y-63175000D02*
X112125000Y-63175000D01*
X112125000Y-60175000D02*
X108725000Y-60175000D01*
X112325000Y-62975000D02*
X112325000Y-60375000D01*
X108525000Y-60375000D02*
G75*
G02*
X108725000Y-60175000I200000J0D01*
G01*
X108725000Y-63175000D02*
G75*
G02*
X108525000Y-62975000I0J200000D01*
G01*
X112125000Y-60175000D02*
G75*
G02*
X112325000Y-60375000I-1J-200001D01*
G01*
X112325000Y-62975000D02*
G75*
G02*
X112125000Y-63175000I-200001J1D01*
G01*
%TO.C,LED2*%
X89475000Y-31800000D02*
X89475000Y-34400000D01*
X89675000Y-34600000D02*
X93075000Y-34600000D01*
X93075000Y-31600000D02*
X89675000Y-31600000D01*
X93275000Y-34400000D02*
X93275000Y-31800000D01*
X89475000Y-31800000D02*
G75*
G02*
X89675000Y-31600000I200000J0D01*
G01*
X89675000Y-34600000D02*
G75*
G02*
X89475000Y-34400000I0J200000D01*
G01*
X93075000Y-31600000D02*
G75*
G02*
X93275000Y-31800000I-1J-200001D01*
G01*
X93275000Y-34400000D02*
G75*
G02*
X93075000Y-34600000I-200001J1D01*
G01*
%TO.C,LED4*%
X127575000Y-31800000D02*
X127575000Y-34400000D01*
X127775000Y-34600000D02*
X131175000Y-34600000D01*
X131175000Y-31600000D02*
X127775000Y-31600000D01*
X131375000Y-34400000D02*
X131375000Y-31800000D01*
X127575000Y-31800000D02*
G75*
G02*
X127775000Y-31600000I200000J0D01*
G01*
X127775000Y-34600000D02*
G75*
G02*
X127575000Y-34400000I0J200000D01*
G01*
X131175000Y-31600000D02*
G75*
G02*
X131375000Y-31800000I-1J-200001D01*
G01*
X131375000Y-34400000D02*
G75*
G02*
X131175000Y-34600000I-200001J1D01*
G01*
%TO.C,LED31*%
X251400000Y-79425000D02*
X251400000Y-82025000D01*
X251600000Y-82225000D02*
X255000000Y-82225000D01*
X255000000Y-79225000D02*
X251600000Y-79225000D01*
X255200000Y-82025000D02*
X255200000Y-79425000D01*
X251400000Y-79425000D02*
G75*
G02*
X251600000Y-79225000I200000J0D01*
G01*
X251600000Y-82225000D02*
G75*
G02*
X251400000Y-82025000I0J200000D01*
G01*
X255000000Y-79225000D02*
G75*
G02*
X255200000Y-79425000I-1J-200001D01*
G01*
X255200000Y-82025000D02*
G75*
G02*
X255000000Y-82225000I-200001J1D01*
G01*
%TO.C,LED41*%
X248825000Y-45250000D02*
X248825000Y-47850000D01*
X249025000Y-48050000D02*
X252425000Y-48050000D01*
X252425000Y-45050000D02*
X249025000Y-45050000D01*
X252625000Y-47850000D02*
X252625000Y-45250000D01*
X248825000Y-45250000D02*
G75*
G02*
X249025000Y-45050000I200000J0D01*
G01*
X249025000Y-48050000D02*
G75*
G02*
X248825000Y-47850000I0J200000D01*
G01*
X252425000Y-45050000D02*
G75*
G02*
X252625000Y-45250000I-1J-200001D01*
G01*
X252625000Y-47850000D02*
G75*
G02*
X252425000Y-48050000I-200001J1D01*
G01*
%TO.C,LED28*%
X260925000Y-60375000D02*
X260925000Y-62975000D01*
X261125000Y-63175000D02*
X264525000Y-63175000D01*
X264525000Y-60175000D02*
X261125000Y-60175000D01*
X264725000Y-62975000D02*
X264725000Y-60375000D01*
X260925000Y-60375000D02*
G75*
G02*
X261125000Y-60175000I200000J0D01*
G01*
X261125000Y-63175000D02*
G75*
G02*
X260925000Y-62975000I0J200000D01*
G01*
X264525000Y-60175000D02*
G75*
G02*
X264725000Y-60375000I-1J-200001D01*
G01*
X264725000Y-62975000D02*
G75*
G02*
X264525000Y-63175000I-200001J1D01*
G01*
%TO.C,LED26*%
X41850000Y-79425000D02*
X41850000Y-82025000D01*
X42050000Y-82225000D02*
X45450000Y-82225000D01*
X45450000Y-79225000D02*
X42050000Y-79225000D01*
X45650000Y-82025000D02*
X45650000Y-79425000D01*
X41850000Y-79425000D02*
G75*
G02*
X42050000Y-79225000I200000J0D01*
G01*
X42050000Y-82225000D02*
G75*
G02*
X41850000Y-82025000I0J200000D01*
G01*
X45450000Y-79225000D02*
G75*
G02*
X45650000Y-79425000I-1J-200001D01*
G01*
X45650000Y-82025000D02*
G75*
G02*
X45450000Y-82225000I-200001J1D01*
G01*
%TO.C,LED18*%
X194250000Y-79425000D02*
X194250000Y-82025000D01*
X194450000Y-82225000D02*
X197850000Y-82225000D01*
X197850000Y-79225000D02*
X194450000Y-79225000D01*
X198050000Y-82025000D02*
X198050000Y-79425000D01*
X194250000Y-79425000D02*
G75*
G02*
X194450000Y-79225000I200000J0D01*
G01*
X194450000Y-82225000D02*
G75*
G02*
X194250000Y-82025000I0J200000D01*
G01*
X197850000Y-79225000D02*
G75*
G02*
X198050000Y-79425000I-1J-200001D01*
G01*
X198050000Y-82025000D02*
G75*
G02*
X197850000Y-82225000I-200001J1D01*
G01*
%TO.C,LED37*%
X241900000Y-40900000D02*
X241900000Y-43500000D01*
X242100000Y-43700000D02*
X245500000Y-43700000D01*
X245500000Y-40700000D02*
X242100000Y-40700000D01*
X245700000Y-43500000D02*
X245700000Y-40900000D01*
X241900000Y-40900000D02*
G75*
G02*
X242100000Y-40700000I200000J0D01*
G01*
X242100000Y-43700000D02*
G75*
G02*
X241900000Y-43500000I0J200000D01*
G01*
X245500000Y-40700000D02*
G75*
G02*
X245700000Y-40900000I-1J-200001D01*
G01*
X245700000Y-43500000D02*
G75*
G02*
X245500000Y-43700000I-200001J1D01*
G01*
%TO.C,LED13*%
X127575000Y-60375000D02*
X127575000Y-62975000D01*
X127775000Y-63175000D02*
X131175000Y-63175000D01*
X131175000Y-60175000D02*
X127775000Y-60175000D01*
X131375000Y-62975000D02*
X131375000Y-60375000D01*
X127575000Y-60375000D02*
G75*
G02*
X127775000Y-60175000I200000J0D01*
G01*
X127775000Y-63175000D02*
G75*
G02*
X127575000Y-62975000I0J200000D01*
G01*
X131175000Y-60175000D02*
G75*
G02*
X131375000Y-60375000I-1J-200001D01*
G01*
X131375000Y-62975000D02*
G75*
G02*
X131175000Y-63175000I-200001J1D01*
G01*
%TO.C,LED34*%
X241975000Y-36512000D02*
X241975000Y-39112000D01*
X242175000Y-39312000D02*
X245575000Y-39312000D01*
X245575000Y-36312000D02*
X242175000Y-36312000D01*
X245775000Y-39112000D02*
X245775000Y-36512000D01*
X241975000Y-36512000D02*
G75*
G02*
X242175000Y-36312000I200000J0D01*
G01*
X242175000Y-39312000D02*
G75*
G02*
X241975000Y-39112000I0J200000D01*
G01*
X245575000Y-36312000D02*
G75*
G02*
X245775000Y-36512000I-1J-200001D01*
G01*
X245775000Y-39112000D02*
G75*
G02*
X245575000Y-39312000I-200001J1D01*
G01*
%TO.C,LED27*%
X22800000Y-79425000D02*
X22800000Y-82025000D01*
X23000000Y-82225000D02*
X26400000Y-82225000D01*
X26400000Y-79225000D02*
X23000000Y-79225000D01*
X26600000Y-82025000D02*
X26600000Y-79425000D01*
X22800000Y-79425000D02*
G75*
G02*
X23000000Y-79225000I200000J0D01*
G01*
X23000000Y-82225000D02*
G75*
G02*
X22800000Y-82025000I0J200000D01*
G01*
X26400000Y-79225000D02*
G75*
G02*
X26600000Y-79425000I-1J-200001D01*
G01*
X26600000Y-82025000D02*
G75*
G02*
X26400000Y-82225000I-200001J1D01*
G01*
%TO.C,LED9*%
X32325000Y-60375000D02*
X32325000Y-62975000D01*
X32525000Y-63175000D02*
X35925000Y-63175000D01*
X35925000Y-60175000D02*
X32525000Y-60175000D01*
X36125000Y-62975000D02*
X36125000Y-60375000D01*
X32325000Y-60375000D02*
G75*
G02*
X32525000Y-60175000I200000J0D01*
G01*
X32525000Y-63175000D02*
G75*
G02*
X32325000Y-62975000I0J200000D01*
G01*
X35925000Y-60175000D02*
G75*
G02*
X36125000Y-60375000I-1J-200001D01*
G01*
X36125000Y-62975000D02*
G75*
G02*
X35925000Y-63175000I-200001J1D01*
G01*
%TO.C,LED40*%
X241775000Y-45300000D02*
X241775000Y-47900000D01*
X241975000Y-48100000D02*
X245375000Y-48100000D01*
X245375000Y-45100000D02*
X241975000Y-45100000D01*
X245575000Y-47900000D02*
X245575000Y-45300000D01*
X241775000Y-45300000D02*
G75*
G02*
X241975000Y-45100000I200000J0D01*
G01*
X241975000Y-48100000D02*
G75*
G02*
X241775000Y-47900000I0J200000D01*
G01*
X245375000Y-45100000D02*
G75*
G02*
X245575000Y-45300000I-1J-200001D01*
G01*
X245575000Y-47900000D02*
G75*
G02*
X245375000Y-48100000I-200001J1D01*
G01*
%TO.C,LED19*%
X175200000Y-79425000D02*
X175200000Y-82025000D01*
X175400000Y-82225000D02*
X178800000Y-82225000D01*
X178800000Y-79225000D02*
X175400000Y-79225000D01*
X179000000Y-82025000D02*
X179000000Y-79425000D01*
X175200000Y-79425000D02*
G75*
G02*
X175400000Y-79225000I200000J0D01*
G01*
X175400000Y-82225000D02*
G75*
G02*
X175200000Y-82025000I0J200000D01*
G01*
X178800000Y-79225000D02*
G75*
G02*
X179000000Y-79425000I-1J-200001D01*
G01*
X179000000Y-82025000D02*
G75*
G02*
X178800000Y-82225000I-200001J1D01*
G01*
%TO.C,LED16*%
X232350000Y-79425000D02*
X232350000Y-82025000D01*
X232550000Y-82225000D02*
X235950000Y-82225000D01*
X235950000Y-79225000D02*
X232550000Y-79225000D01*
X236150000Y-82025000D02*
X236150000Y-79425000D01*
X232350000Y-79425000D02*
G75*
G02*
X232550000Y-79225000I200000J0D01*
G01*
X232550000Y-82225000D02*
G75*
G02*
X232350000Y-82025000I0J200000D01*
G01*
X235950000Y-79225000D02*
G75*
G02*
X236150000Y-79425000I-1J-200001D01*
G01*
X236150000Y-82025000D02*
G75*
G02*
X235950000Y-82225000I-200001J1D01*
G01*
%TO.C,LED43*%
X241700000Y-49700000D02*
X241700000Y-52300000D01*
X241900000Y-52500000D02*
X245300000Y-52500000D01*
X245300000Y-49500000D02*
X241900000Y-49500000D01*
X245500000Y-52300000D02*
X245500000Y-49700000D01*
X241700000Y-49700000D02*
G75*
G02*
X241900000Y-49500000I200000J0D01*
G01*
X241900000Y-52500000D02*
G75*
G02*
X241700000Y-52300000I0J200000D01*
G01*
X245300000Y-49500000D02*
G75*
G02*
X245500000Y-49700000I-1J-200001D01*
G01*
X245500000Y-52300000D02*
G75*
G02*
X245300000Y-52500000I-200001J1D01*
G01*
%TO.C,LED38*%
X248975000Y-40900000D02*
X248975000Y-43500000D01*
X249175000Y-43700000D02*
X252575000Y-43700000D01*
X252575000Y-40700000D02*
X249175000Y-40700000D01*
X252775000Y-43500000D02*
X252775000Y-40900000D01*
X248975000Y-40900000D02*
G75*
G02*
X249175000Y-40700000I200000J0D01*
G01*
X249175000Y-43700000D02*
G75*
G02*
X248975000Y-43500000I0J200000D01*
G01*
X252575000Y-40700000D02*
G75*
G02*
X252775000Y-40900000I-1J-200001D01*
G01*
X252775000Y-43500000D02*
G75*
G02*
X252575000Y-43700000I-200001J1D01*
G01*
%TO.C,LED30*%
X222825000Y-60375000D02*
X222825000Y-62975000D01*
X223025000Y-63175000D02*
X226425000Y-63175000D01*
X226425000Y-60175000D02*
X223025000Y-60175000D01*
X226625000Y-62975000D02*
X226625000Y-60375000D01*
X222825000Y-60375000D02*
G75*
G02*
X223025000Y-60175000I200000J0D01*
G01*
X223025000Y-63175000D02*
G75*
G02*
X222825000Y-62975000I0J200000D01*
G01*
X226425000Y-60175000D02*
G75*
G02*
X226625000Y-60375000I-1J-200001D01*
G01*
X226625000Y-62975000D02*
G75*
G02*
X226425000Y-63175000I-200001J1D01*
G01*
%TO.C,LED5*%
X146625000Y-31800000D02*
X146625000Y-34400000D01*
X146825000Y-34600000D02*
X150225000Y-34600000D01*
X150225000Y-31600000D02*
X146825000Y-31600000D01*
X150425000Y-34400000D02*
X150425000Y-31800000D01*
X146625000Y-31800000D02*
G75*
G02*
X146825000Y-31600000I200000J0D01*
G01*
X146825000Y-34600000D02*
G75*
G02*
X146625000Y-34400000I0J200000D01*
G01*
X150225000Y-31600000D02*
G75*
G02*
X150425000Y-31800000I-1J-200001D01*
G01*
X150425000Y-34400000D02*
G75*
G02*
X150225000Y-34600000I-200001J1D01*
G01*
%TO.C,LED35*%
X248975000Y-36500000D02*
X248975000Y-39100000D01*
X249175000Y-39300000D02*
X252575000Y-39300000D01*
X252575000Y-36300000D02*
X249175000Y-36300000D01*
X252775000Y-39100000D02*
X252775000Y-36500000D01*
X248975000Y-36500000D02*
G75*
G02*
X249175000Y-36300000I200000J0D01*
G01*
X249175000Y-39300000D02*
G75*
G02*
X248975000Y-39100000I0J200000D01*
G01*
X252575000Y-36300000D02*
G75*
G02*
X252775000Y-36500000I-1J-200001D01*
G01*
X252775000Y-39100000D02*
G75*
G02*
X252575000Y-39300000I-200001J1D01*
G01*
%TO.C,LED6*%
X165675000Y-31800000D02*
X165675000Y-34400000D01*
X165875000Y-34600000D02*
X169275000Y-34600000D01*
X169275000Y-31600000D02*
X165875000Y-31600000D01*
X169475000Y-34400000D02*
X169475000Y-31800000D01*
X165675000Y-31800000D02*
G75*
G02*
X165875000Y-31600000I200000J0D01*
G01*
X165875000Y-34600000D02*
G75*
G02*
X165675000Y-34400000I0J200000D01*
G01*
X169275000Y-31600000D02*
G75*
G02*
X169475000Y-31800000I-1J-200001D01*
G01*
X169475000Y-34400000D02*
G75*
G02*
X169275000Y-34600000I-200001J1D01*
G01*
%TD*%
M02*
