%TF.GenerationSoftware,KiCad,Pcbnew,9.0.2*%
%TF.CreationDate,2025-12-30T22:19:12-05:00*%
%TF.ProjectId,Fracture,46726163-7475-4726-952e-6b696361645f,rev?*%
%TF.SameCoordinates,Original*%
%TF.FileFunction,Paste,Bot*%
%TF.FilePolarity,Positive*%
%FSLAX46Y46*%
G04 Gerber Fmt 4.6, Leading zero omitted, Abs format (unit mm)*
G04 Created by KiCad (PCBNEW 9.0.2) date 2025-12-30 22:19:12*
%MOMM*%
%LPD*%
G01*
G04 APERTURE LIST*
G04 Aperture macros list*
%AMRoundRect*
0 Rectangle with rounded corners*
0 $1 Rounding radius*
0 $2 $3 $4 $5 $6 $7 $8 $9 X,Y pos of 4 corners*
0 Add a 4 corners polygon primitive as box body*
4,1,4,$2,$3,$4,$5,$6,$7,$8,$9,$2,$3,0*
0 Add four circle primitives for the rounded corners*
1,1,$1+$1,$2,$3*
1,1,$1+$1,$4,$5*
1,1,$1+$1,$6,$7*
1,1,$1+$1,$8,$9*
0 Add four rect primitives between the rounded corners*
20,1,$1+$1,$2,$3,$4,$5,0*
20,1,$1+$1,$4,$5,$6,$7,0*
20,1,$1+$1,$6,$7,$8,$9,0*
20,1,$1+$1,$8,$9,$2,$3,0*%
%AMFreePoly0*
4,1,21,4.105355,5.175355,4.120000,5.140000,4.120000,-5.780000,4.105355,-5.815355,4.070000,-5.830000,2.540000,-5.830000,2.504645,-5.815355,2.490000,-5.780000,2.490000,-4.050000,-4.060000,-4.050000,-4.095355,-4.035355,-4.110000,-4.000000,-4.110000,4.000000,-4.095355,4.035355,-4.060000,4.050000,2.490000,4.050000,2.490000,5.140000,2.504645,5.175355,2.540000,5.190000,4.070000,5.190000,
4.105355,5.175355,4.105355,5.175355,$1*%
G04 Aperture macros list end*
%ADD10R,1.250000X0.700000*%
%ADD11R,4.000000X1.600000*%
%ADD12R,1.410000X1.350000*%
%ADD13R,1.380000X1.130000*%
%ADD14R,1.450000X0.820000*%
%ADD15RoundRect,0.205000X0.520000X0.205000X-0.520000X0.205000X-0.520000X-0.205000X0.520000X-0.205000X0*%
%ADD16R,1.500000X5.000000*%
%ADD17R,1.360000X1.230000*%
%ADD18R,1.350000X1.410000*%
%ADD19R,1.200000X2.200000*%
%ADD20R,1.650000X0.400000*%
%ADD21R,2.060000X1.540000*%
%ADD22R,1.130000X1.380000*%
%ADD23R,0.820000X1.450000*%
%ADD24RoundRect,0.205000X-0.205000X0.520000X-0.205000X-0.520000X0.205000X-0.520000X0.205000X0.520000X0*%
%ADD25RoundRect,0.375000X-0.375000X0.625000X-0.375000X-0.625000X0.375000X-0.625000X0.375000X0.625000X0*%
%ADD26RoundRect,0.500000X-1.400000X0.500000X-1.400000X-0.500000X1.400000X-0.500000X1.400000X0.500000X0*%
%ADD27RoundRect,0.375000X0.625000X0.375000X-0.625000X0.375000X-0.625000X-0.375000X0.625000X-0.375000X0*%
%ADD28RoundRect,0.500000X0.500000X1.400000X-0.500000X1.400000X-0.500000X-1.400000X0.500000X-1.400000X0*%
%ADD29FreePoly0,180.000000*%
%ADD30R,3.200000X1.150000*%
%ADD31O,0.570000X1.950000*%
%ADD32R,1.000000X0.800000*%
%ADD33R,4.000000X3.500000*%
%ADD34R,3.000000X1.400000*%
%ADD35R,1.200000X3.500000*%
%ADD36R,1.000000X1.250000*%
%ADD37R,1.100000X0.400000*%
%ADD38R,1.540000X2.060000*%
%ADD39R,0.300000X1.300000*%
%ADD40O,1.600000X0.600000*%
%ADD41R,0.900000X0.900000*%
%ADD42R,1.500000X0.900000*%
%ADD43R,0.900000X1.500000*%
%ADD44C,0.400000*%
G04 APERTURE END LIST*
D10*
%TO.C,S1*%
X73325000Y-38100000D03*
X71325000Y-37150000D03*
X71325000Y-39050000D03*
%TD*%
%TO.C,S13*%
X130475000Y-66675000D03*
X128475000Y-65725000D03*
X128475000Y-67625000D03*
%TD*%
%TO.C,S7*%
X187625000Y-38100000D03*
X185625000Y-37150000D03*
X185625000Y-39050000D03*
%TD*%
%TO.C,S25*%
X140000000Y-85725000D03*
X138000000Y-84775000D03*
X138000000Y-86675000D03*
%TD*%
%TO.C,S31*%
X254300000Y-85725000D03*
X252300000Y-84775000D03*
X252300000Y-86675000D03*
%TD*%
%TO.C,S10*%
X54275000Y-66675000D03*
X52275000Y-65725000D03*
X52275000Y-67625000D03*
%TD*%
%TO.C,S21*%
X63800000Y-85725000D03*
X61800000Y-84775000D03*
X61800000Y-86675000D03*
%TD*%
%TO.C,S32*%
X273350000Y-85725000D03*
X271350000Y-84775000D03*
X271350000Y-86675000D03*
%TD*%
%TO.C,S26*%
X159050000Y-85725000D03*
X157050000Y-84775000D03*
X157050000Y-86675000D03*
%TD*%
%TO.C,S15*%
X187625000Y-66675000D03*
X185625000Y-65725000D03*
X185625000Y-67625000D03*
%TD*%
%TO.C,S5*%
X149525000Y-38100000D03*
X147525000Y-37150000D03*
X147525000Y-39050000D03*
%TD*%
%TO.C,S18*%
X263825000Y-66675000D03*
X261825000Y-65725000D03*
X261825000Y-67625000D03*
%TD*%
%TO.C,S11*%
X92375000Y-66675000D03*
X90375000Y-65725000D03*
X90375000Y-67625000D03*
%TD*%
%TO.C,S14*%
X168575000Y-66675000D03*
X166575000Y-65725000D03*
X166575000Y-67625000D03*
%TD*%
%TO.C,S29*%
X216200000Y-85725000D03*
X214200000Y-84775000D03*
X214200000Y-86675000D03*
%TD*%
%TO.C,S27*%
X178100000Y-85725000D03*
X176100000Y-84775000D03*
X176100000Y-86675000D03*
%TD*%
%TO.C,S8*%
X206675000Y-38100000D03*
X204675000Y-37150000D03*
X204675000Y-39050000D03*
%TD*%
%TO.C,S30*%
X235250000Y-85725000D03*
X233250000Y-84775000D03*
X233250000Y-86675000D03*
%TD*%
%TO.C,S3*%
X111425000Y-38100000D03*
X109425000Y-37150000D03*
X109425000Y-39050000D03*
%TD*%
%TO.C,S17*%
X244775000Y-66675000D03*
X242775000Y-65725000D03*
X242775000Y-67625000D03*
%TD*%
%TO.C,S9*%
X35225000Y-66675000D03*
X33225000Y-65725000D03*
X33225000Y-67625000D03*
%TD*%
%TO.C,S20*%
X44750000Y-85725000D03*
X42750000Y-84775000D03*
X42750000Y-86675000D03*
%TD*%
%TO.C,S16*%
X225725000Y-66675000D03*
X223725000Y-65725000D03*
X223725000Y-67625000D03*
%TD*%
%TO.C,S6*%
X168575000Y-38100000D03*
X166575000Y-37150000D03*
X166575000Y-39050000D03*
%TD*%
%TO.C,S19*%
X25700000Y-85725000D03*
X23700000Y-84775000D03*
X23700000Y-86675000D03*
%TD*%
%TO.C,S4*%
X130475000Y-38100000D03*
X128475000Y-37150000D03*
X128475000Y-39050000D03*
%TD*%
%TO.C,S24*%
X120950000Y-85725000D03*
X118950000Y-84775000D03*
X118950000Y-86675000D03*
%TD*%
%TO.C,S23*%
X101900000Y-85725000D03*
X99900000Y-84775000D03*
X99900000Y-86675000D03*
%TD*%
%TO.C,S22*%
X82850000Y-85725000D03*
X80850000Y-84775000D03*
X80850000Y-86675000D03*
%TD*%
%TO.C,S12*%
X111425000Y-66675000D03*
X109425000Y-65725000D03*
X109425000Y-67625000D03*
%TD*%
%TO.C,S28*%
X197150000Y-85725000D03*
X195150000Y-84775000D03*
X195150000Y-86675000D03*
%TD*%
%TO.C,S2*%
X92375000Y-38100000D03*
X90375000Y-37150000D03*
X90375000Y-39050000D03*
%TD*%
D11*
%TO.C,C13*%
X29500000Y-55000000D03*
X36500000Y-55000000D03*
%TD*%
D12*
%TO.C,C22*%
X185600000Y-40800000D03*
X187600000Y-40800000D03*
%TD*%
D13*
%TO.C,R4*%
X46600000Y-37200000D03*
X46600000Y-35200000D03*
%TD*%
%TO.C,R13*%
X77800000Y-58400000D03*
X77800000Y-56400000D03*
%TD*%
D14*
%TO.C,LED11*%
X94050000Y-62425000D03*
X88700000Y-62425000D03*
D15*
X88700000Y-60925000D03*
D14*
X94050000Y-60925000D03*
%TD*%
%TO.C,LED23*%
X103575000Y-81475000D03*
X98225000Y-81475000D03*
D15*
X98225000Y-79975000D03*
D14*
X103575000Y-79975000D03*
%TD*%
D13*
%TO.C,R9*%
X239400000Y-31600000D03*
X239400000Y-33600000D03*
%TD*%
D14*
%TO.C,LED7*%
X189300000Y-33850000D03*
X183950000Y-33850000D03*
D15*
X183950000Y-32350000D03*
D14*
X189300000Y-32350000D03*
%TD*%
D12*
%TO.C,C45*%
X233400000Y-88400000D03*
X235400000Y-88400000D03*
%TD*%
%TO.C,C30*%
X185800000Y-69400000D03*
X187800000Y-69400000D03*
%TD*%
%TO.C,C29*%
X166800000Y-69400000D03*
X168800000Y-69400000D03*
%TD*%
D14*
%TO.C,LED33*%
X239475000Y-38550000D03*
X234125000Y-38550000D03*
D15*
X234125000Y-37050000D03*
D14*
X239475000Y-37050000D03*
%TD*%
D12*
%TO.C,C17*%
X90400000Y-40800000D03*
X92400000Y-40800000D03*
%TD*%
D16*
%TO.C,BUZZER1*%
X154200000Y-72800000D03*
X143400000Y-72800000D03*
%TD*%
D14*
%TO.C,LED14*%
X170250000Y-62425000D03*
X164900000Y-62425000D03*
D15*
X164900000Y-60925000D03*
D14*
X170250000Y-60925000D03*
%TD*%
D12*
%TO.C,C33*%
X261600000Y-69400000D03*
X263600000Y-69400000D03*
%TD*%
D17*
%TO.C,SW2*%
X252800000Y-27040000D03*
X252800000Y-31400000D03*
%TD*%
D12*
%TO.C,C39*%
X119000000Y-88400000D03*
X121000000Y-88400000D03*
%TD*%
D14*
%TO.C,LED15*%
X189300000Y-62425000D03*
X183950000Y-62425000D03*
D15*
X183950000Y-60925000D03*
D14*
X189300000Y-60925000D03*
%TD*%
D12*
%TO.C,C27*%
X109400000Y-69400000D03*
X111400000Y-69400000D03*
%TD*%
D18*
%TO.C,C2*%
X96200000Y-50400000D03*
X96200000Y-52400000D03*
%TD*%
%TO.C,C10*%
X60550000Y-53700000D03*
X60550000Y-55700000D03*
%TD*%
D12*
%TO.C,C32*%
X242800000Y-69400000D03*
X244800000Y-69400000D03*
%TD*%
%TO.C,C35*%
X43200000Y-88400000D03*
X45200000Y-88400000D03*
%TD*%
D14*
%TO.C,LED8*%
X208350000Y-33850000D03*
X203000000Y-33850000D03*
D15*
X203000000Y-32350000D03*
D14*
X208350000Y-32350000D03*
%TD*%
D18*
%TO.C,C61*%
X71000000Y-51000000D03*
X71000000Y-49000000D03*
%TD*%
D14*
%TO.C,LED3*%
X113100000Y-33850000D03*
X107750000Y-33850000D03*
D15*
X107750000Y-32350000D03*
D14*
X113100000Y-32350000D03*
%TD*%
%TO.C,LED39*%
X239350000Y-47350000D03*
X234000000Y-47350000D03*
D15*
X234000000Y-45850000D03*
D14*
X239350000Y-45850000D03*
%TD*%
D18*
%TO.C,C12*%
X41000000Y-49600000D03*
X41000000Y-47600000D03*
%TD*%
D12*
%TO.C,C34*%
X24000000Y-88400000D03*
X26000000Y-88400000D03*
%TD*%
D19*
%TO.C,SW1*%
X44100000Y-30387500D03*
X41600000Y-30387500D03*
X39100000Y-30387500D03*
%TD*%
D14*
%TO.C,LED10*%
X55950000Y-62425000D03*
X50600000Y-62425000D03*
D15*
X50600000Y-60925000D03*
D14*
X55950000Y-60925000D03*
%TD*%
%TO.C,LED22*%
X122625000Y-81475000D03*
X117275000Y-81475000D03*
D15*
X117275000Y-79975000D03*
D14*
X122625000Y-79975000D03*
%TD*%
D12*
%TO.C,C47*%
X271400000Y-88400000D03*
X273400000Y-88400000D03*
%TD*%
%TO.C,C25*%
X52400000Y-69400000D03*
X54400000Y-69400000D03*
%TD*%
D14*
%TO.C,LED36*%
X239475000Y-42950000D03*
X234125000Y-42950000D03*
D15*
X234125000Y-41450000D03*
D14*
X239475000Y-41450000D03*
%TD*%
D20*
%TO.C,U2*%
X121760000Y-49000000D03*
X121760000Y-49650000D03*
X121760000Y-50300000D03*
X121760000Y-50950000D03*
X121760000Y-51600000D03*
X121760000Y-52250000D03*
X121760000Y-52890000D03*
X121760000Y-53550000D03*
X121760000Y-54200000D03*
X121760000Y-54850000D03*
X121760000Y-55500000D03*
X121760000Y-56140000D03*
X127800000Y-56140000D03*
X127800000Y-55500000D03*
X127800000Y-54850000D03*
X127800000Y-54200000D03*
X127800000Y-53550000D03*
X127800000Y-52890000D03*
X127800000Y-52250000D03*
X127800000Y-51600000D03*
X127800000Y-50950000D03*
X127800000Y-50300000D03*
X127800000Y-49650000D03*
X127800000Y-49000000D03*
%TD*%
D14*
%TO.C,LED32*%
X275025000Y-81475000D03*
X269675000Y-81475000D03*
D15*
X269675000Y-79975000D03*
D14*
X275025000Y-79975000D03*
%TD*%
%TO.C,LED44*%
X253275000Y-51750000D03*
X247925000Y-51750000D03*
D15*
X247925000Y-50250000D03*
D14*
X253275000Y-50250000D03*
%TD*%
D18*
%TO.C,C49*%
X86200000Y-50400000D03*
X86200000Y-48400000D03*
%TD*%
D21*
%TO.C,D1*%
X91530000Y-45800000D03*
X86530000Y-45800000D03*
%TD*%
D14*
%TO.C,LED42*%
X239275000Y-51750000D03*
X233925000Y-51750000D03*
D15*
X233925000Y-50250000D03*
D14*
X239275000Y-50250000D03*
%TD*%
D22*
%TO.C,R7*%
X218600000Y-75600000D03*
X216600000Y-75600000D03*
%TD*%
D23*
%TO.C,LED45*%
X258350000Y-27125000D03*
X258350000Y-32475000D03*
D24*
X256850000Y-32475000D03*
D23*
X256850000Y-27125000D03*
%TD*%
D18*
%TO.C,C55*%
X61250000Y-47400000D03*
X61250000Y-45400000D03*
%TD*%
D22*
%TO.C,R16*%
X65600000Y-54000000D03*
X67600000Y-54000000D03*
%TD*%
D14*
%TO.C,LED25*%
X65475000Y-81475000D03*
X60125000Y-81475000D03*
D15*
X60125000Y-79975000D03*
D14*
X65475000Y-79975000D03*
%TD*%
D18*
%TO.C,C48*%
X84200000Y-49000000D03*
X84200000Y-47000000D03*
%TD*%
D14*
%TO.C,LED20*%
X160725000Y-81475000D03*
X155375000Y-81475000D03*
D15*
X155375000Y-79975000D03*
D14*
X160725000Y-79975000D03*
%TD*%
D12*
%TO.C,C28*%
X128600000Y-69400000D03*
X130600000Y-69400000D03*
%TD*%
D20*
%TO.C,U3*%
X177180000Y-48950000D03*
X177180000Y-49600000D03*
X177180000Y-50250000D03*
X177180000Y-50900000D03*
X177180000Y-51550000D03*
X177180000Y-52200000D03*
X177180000Y-52840000D03*
X177180000Y-53500000D03*
X177180000Y-54150000D03*
X177180000Y-54800000D03*
X177180000Y-55450000D03*
X177180000Y-56090000D03*
X183220000Y-56090000D03*
X183220000Y-55450000D03*
X183220000Y-54800000D03*
X183220000Y-54150000D03*
X183220000Y-53500000D03*
X183220000Y-52840000D03*
X183220000Y-52200000D03*
X183220000Y-51550000D03*
X183220000Y-50900000D03*
X183220000Y-50250000D03*
X183220000Y-49600000D03*
X183220000Y-48950000D03*
%TD*%
D12*
%TO.C,C26*%
X90200000Y-69400000D03*
X92200000Y-69400000D03*
%TD*%
%TO.C,C19*%
X128600000Y-40800000D03*
X130600000Y-40800000D03*
%TD*%
%TO.C,C15*%
X37400000Y-40800000D03*
X39400000Y-40800000D03*
%TD*%
%TO.C,C24*%
X33200000Y-69400000D03*
X35200000Y-69400000D03*
%TD*%
D14*
%TO.C,LED17*%
X217875000Y-81475000D03*
X212525000Y-81475000D03*
D15*
X212525000Y-79975000D03*
D14*
X217875000Y-79975000D03*
%TD*%
D25*
%TO.C,U1*%
X103100000Y-45050000D03*
D26*
X100800000Y-51350000D03*
D25*
X100800000Y-45050000D03*
X98500000Y-45050000D03*
%TD*%
D12*
%TO.C,C23*%
X204800000Y-40800000D03*
X206800000Y-40800000D03*
%TD*%
%TO.C,C6*%
X177000000Y-47400000D03*
X175000000Y-47400000D03*
%TD*%
D14*
%TO.C,LED24*%
X84525000Y-81475000D03*
X79175000Y-81475000D03*
D15*
X79175000Y-79975000D03*
D14*
X84525000Y-79975000D03*
%TD*%
D12*
%TO.C,C31*%
X223800000Y-69400000D03*
X225800000Y-69400000D03*
%TD*%
D27*
%TO.C,U4*%
X58150000Y-58300000D03*
D28*
X51850000Y-56000000D03*
D27*
X58150000Y-56000000D03*
X58150000Y-53700000D03*
%TD*%
D14*
%TO.C,LED21*%
X141675000Y-81475000D03*
X136325000Y-81475000D03*
D15*
X136325000Y-79975000D03*
D14*
X141675000Y-79975000D03*
%TD*%
D29*
%TO.C,U6*%
X24590000Y-45720000D03*
D30*
X34610000Y-48800000D03*
X34610000Y-47100000D03*
X34610000Y-45400000D03*
X34610000Y-43700000D03*
X34610000Y-42000000D03*
%TD*%
D12*
%TO.C,C43*%
X195200000Y-88400000D03*
X197200000Y-88400000D03*
%TD*%
%TO.C,C37*%
X81000000Y-88400000D03*
X83000000Y-88400000D03*
%TD*%
%TO.C,C16*%
X71600000Y-40800000D03*
X73600000Y-40800000D03*
%TD*%
D22*
%TO.C,R17*%
X65600000Y-56000000D03*
X67600000Y-56000000D03*
%TD*%
D12*
%TO.C,C42*%
X176200000Y-88400000D03*
X178200000Y-88400000D03*
%TD*%
D14*
%TO.C,LED1*%
X75000000Y-33850000D03*
X69650000Y-33850000D03*
D15*
X69650000Y-32350000D03*
D14*
X75000000Y-32350000D03*
%TD*%
%TO.C,LED29*%
X246450000Y-62425000D03*
X241100000Y-62425000D03*
D15*
X241100000Y-60925000D03*
D14*
X246450000Y-60925000D03*
%TD*%
%TO.C,LED12*%
X113100000Y-62425000D03*
X107750000Y-62425000D03*
D15*
X107750000Y-60925000D03*
D14*
X113100000Y-60925000D03*
%TD*%
D12*
%TO.C,C20*%
X147600000Y-40800000D03*
X149600000Y-40800000D03*
%TD*%
D31*
%TO.C,U7*%
X70490000Y-87310000D03*
X71770000Y-87310000D03*
X73030000Y-87310000D03*
X74300000Y-87310000D03*
X74300000Y-81890000D03*
X73030000Y-81890000D03*
X71770000Y-81890000D03*
X70490000Y-81890000D03*
%TD*%
D13*
%TO.C,R1*%
X127800000Y-47600000D03*
X127800000Y-45600000D03*
%TD*%
D14*
%TO.C,LED2*%
X94050000Y-33850000D03*
X88700000Y-33850000D03*
D15*
X88700000Y-32350000D03*
D14*
X94050000Y-32350000D03*
%TD*%
D12*
%TO.C,C52*%
X69200000Y-40200000D03*
X67200000Y-40200000D03*
%TD*%
D14*
%TO.C,LED4*%
X132150000Y-33850000D03*
X126800000Y-33850000D03*
D15*
X126800000Y-32350000D03*
D14*
X132150000Y-32350000D03*
%TD*%
D12*
%TO.C,C3*%
X179000000Y-45200000D03*
X181000000Y-45200000D03*
%TD*%
D14*
%TO.C,LED31*%
X255975000Y-81475000D03*
X250625000Y-81475000D03*
D15*
X250625000Y-79975000D03*
D14*
X255975000Y-79975000D03*
%TD*%
D12*
%TO.C,C21*%
X166800000Y-40800000D03*
X168800000Y-40800000D03*
%TD*%
%TO.C,C44*%
X214200000Y-88400000D03*
X216200000Y-88400000D03*
%TD*%
D13*
%TO.C,R3*%
X48600000Y-35200000D03*
X48600000Y-37200000D03*
%TD*%
D12*
%TO.C,C18*%
X109600000Y-40600000D03*
X111600000Y-40600000D03*
%TD*%
D14*
%TO.C,LED41*%
X253400000Y-47300000D03*
X248050000Y-47300000D03*
D15*
X248050000Y-45800000D03*
D14*
X253400000Y-45800000D03*
%TD*%
%TO.C,LED28*%
X265500000Y-62425000D03*
X260150000Y-62425000D03*
D15*
X260150000Y-60925000D03*
D14*
X265500000Y-60925000D03*
%TD*%
%TO.C,LED26*%
X46425000Y-81475000D03*
X41075000Y-81475000D03*
D15*
X41075000Y-79975000D03*
D14*
X46425000Y-79975000D03*
%TD*%
D12*
%TO.C,C38*%
X100000000Y-88400000D03*
X102000000Y-88400000D03*
%TD*%
D14*
%TO.C,LED18*%
X198825000Y-81475000D03*
X193475000Y-81475000D03*
D15*
X193475000Y-79975000D03*
D14*
X198825000Y-79975000D03*
%TD*%
D32*
%TO.C,U9*%
X66600000Y-43400000D03*
X68400000Y-43400000D03*
X68400000Y-42200000D03*
X66600000Y-42200000D03*
%TD*%
D18*
%TO.C,C53*%
X77800000Y-52400000D03*
X77800000Y-54400000D03*
%TD*%
D12*
%TO.C,C4*%
X123600000Y-45600000D03*
X125600000Y-45600000D03*
%TD*%
D14*
%TO.C,LED37*%
X246475000Y-42950000D03*
X241125000Y-42950000D03*
D15*
X241125000Y-41450000D03*
D14*
X246475000Y-41450000D03*
%TD*%
D18*
%TO.C,C50*%
X84200000Y-53000000D03*
X84200000Y-51000000D03*
%TD*%
D21*
%TO.C,D5*%
X89900000Y-58000000D03*
X94900000Y-58000000D03*
%TD*%
D33*
%TO.C,L2*%
X44000000Y-63800000D03*
X44000000Y-54200000D03*
%TD*%
D27*
%TO.C,U8*%
X76150000Y-67900000D03*
D28*
X69850000Y-65600000D03*
D27*
X76150000Y-65600000D03*
X76150000Y-63300000D03*
%TD*%
D14*
%TO.C,LED13*%
X132150000Y-62425000D03*
X126800000Y-62425000D03*
D15*
X126800000Y-60925000D03*
D14*
X132150000Y-60925000D03*
%TD*%
D18*
%TO.C,C62*%
X74600000Y-50800000D03*
X74600000Y-48800000D03*
%TD*%
D14*
%TO.C,LED34*%
X246550000Y-38562000D03*
X241200000Y-38562000D03*
D15*
X241200000Y-37062000D03*
D14*
X246550000Y-37062000D03*
%TD*%
D12*
%TO.C,C5*%
X121600000Y-47600000D03*
X119600000Y-47600000D03*
%TD*%
D18*
%TO.C,C51*%
X86200000Y-54600000D03*
X86200000Y-52600000D03*
%TD*%
D14*
%TO.C,LED27*%
X27375000Y-81475000D03*
X22025000Y-81475000D03*
D15*
X22025000Y-79975000D03*
D14*
X27375000Y-79975000D03*
%TD*%
%TO.C,LED9*%
X36900000Y-62425000D03*
X31550000Y-62425000D03*
D15*
X31550000Y-60925000D03*
D14*
X36900000Y-60925000D03*
%TD*%
D13*
%TO.C,R10*%
X237200000Y-33600000D03*
X237200000Y-31600000D03*
%TD*%
D17*
%TO.C,SW3*%
X247800000Y-27020000D03*
X247800000Y-31380000D03*
%TD*%
D22*
%TO.C,L1*%
X93830000Y-45800000D03*
X95770000Y-45800000D03*
%TD*%
D18*
%TO.C,C11*%
X239400000Y-29600000D03*
X239400000Y-27600000D03*
%TD*%
D13*
%TO.C,R2*%
X183200000Y-47400000D03*
X183200000Y-45400000D03*
%TD*%
D34*
%TO.C,CN1*%
X58400000Y-37745000D03*
X58400000Y-33745000D03*
X58400000Y-30745000D03*
X64400000Y-38845000D03*
%TD*%
D35*
%TO.C,C7*%
X41600000Y-38870000D03*
X41600000Y-33530000D03*
%TD*%
D12*
%TO.C,C46*%
X252400000Y-88400000D03*
X254400000Y-88400000D03*
%TD*%
D14*
%TO.C,LED40*%
X246350000Y-47350000D03*
X241000000Y-47350000D03*
D15*
X241000000Y-45850000D03*
D14*
X246350000Y-45850000D03*
%TD*%
D35*
%TO.C,C59*%
X55400000Y-40730000D03*
X55400000Y-46070000D03*
%TD*%
D36*
%TO.C,D2*%
X69571904Y-27721000D03*
X71771904Y-27721000D03*
%TD*%
D37*
%TO.C,U10*%
X64650000Y-48825000D03*
X64650000Y-49475000D03*
X64650000Y-50125000D03*
X64650000Y-50775000D03*
X68950000Y-50775000D03*
X68950000Y-50125000D03*
X68950000Y-49475000D03*
X68950000Y-48825000D03*
%TD*%
D18*
%TO.C,C8*%
X243000000Y-29600000D03*
X243000000Y-27600000D03*
%TD*%
D38*
%TO.C,D3*%
X38400000Y-51700000D03*
X38400000Y-46700000D03*
%TD*%
D12*
%TO.C,C58*%
X67600000Y-69600000D03*
X69600000Y-69600000D03*
%TD*%
D22*
%TO.C,R15*%
X72800000Y-44600000D03*
X74800000Y-44600000D03*
%TD*%
D18*
%TO.C,C1*%
X105400000Y-45000000D03*
X105400000Y-47000000D03*
%TD*%
D39*
%TO.C,P1*%
X48550000Y-33122500D03*
X49350000Y-33122500D03*
X49850000Y-33122500D03*
X50850000Y-33122500D03*
X52350000Y-33122500D03*
X53350000Y-33122500D03*
X53850000Y-33122500D03*
X54650000Y-33122500D03*
X54950000Y-33122500D03*
X54150000Y-33122500D03*
X52850000Y-33122500D03*
X51850000Y-33122500D03*
X51350000Y-33122500D03*
X50350000Y-33122500D03*
X49050000Y-33122500D03*
X48250000Y-33122500D03*
%TD*%
D12*
%TO.C,C36*%
X62000000Y-88400000D03*
X64000000Y-88400000D03*
%TD*%
D14*
%TO.C,LED19*%
X179775000Y-81475000D03*
X174425000Y-81475000D03*
D15*
X174425000Y-79975000D03*
D14*
X179775000Y-79975000D03*
%TD*%
D22*
%TO.C,R11*%
X16800000Y-57000000D03*
X18800000Y-57000000D03*
%TD*%
D14*
%TO.C,LED16*%
X236925000Y-81475000D03*
X231575000Y-81475000D03*
D15*
X231575000Y-79975000D03*
D14*
X236925000Y-79975000D03*
%TD*%
D22*
%TO.C,R5*%
X67600000Y-27800000D03*
X65600000Y-27800000D03*
%TD*%
D14*
%TO.C,LED43*%
X246275000Y-51750000D03*
X240925000Y-51750000D03*
D15*
X240925000Y-50250000D03*
D14*
X246275000Y-50250000D03*
%TD*%
D40*
%TO.C,U11*%
X76800000Y-41735000D03*
X76800000Y-43005000D03*
X76800000Y-44275000D03*
X76800000Y-45545000D03*
X76800000Y-46815000D03*
X76800000Y-48085000D03*
X76800000Y-49355000D03*
X76800000Y-50615000D03*
X82000000Y-50615000D03*
X82000000Y-49355000D03*
X82000000Y-48085000D03*
X82000000Y-46815000D03*
X82000000Y-45545000D03*
X82000000Y-44275000D03*
X82000000Y-43005000D03*
X82000000Y-41735000D03*
%TD*%
D22*
%TO.C,R8*%
X216600000Y-73600000D03*
X218600000Y-73600000D03*
%TD*%
D13*
%TO.C,R12*%
X79400000Y-37400000D03*
X79400000Y-35400000D03*
%TD*%
%TO.C,R14*%
X79800000Y-58400000D03*
X79800000Y-56400000D03*
%TD*%
D35*
%TO.C,C60*%
X48500000Y-40730000D03*
X48500000Y-46070000D03*
%TD*%
D14*
%TO.C,LED38*%
X253550000Y-42950000D03*
X248200000Y-42950000D03*
D15*
X248200000Y-41450000D03*
D14*
X253550000Y-41450000D03*
%TD*%
%TO.C,LED30*%
X227400000Y-62425000D03*
X222050000Y-62425000D03*
D15*
X222050000Y-60925000D03*
D14*
X227400000Y-60925000D03*
%TD*%
%TO.C,LED5*%
X151200000Y-33850000D03*
X145850000Y-33850000D03*
D15*
X145850000Y-32350000D03*
D14*
X151200000Y-32350000D03*
%TD*%
D12*
%TO.C,C41*%
X157000000Y-88400000D03*
X159000000Y-88400000D03*
%TD*%
D18*
%TO.C,C54*%
X79800000Y-52400000D03*
X79800000Y-54400000D03*
%TD*%
D21*
%TO.C,D4*%
X37700000Y-43600000D03*
X42700000Y-43600000D03*
%TD*%
D12*
%TO.C,C63*%
X72800000Y-46800000D03*
X74800000Y-46800000D03*
%TD*%
D18*
%TO.C,C9*%
X60550000Y-57881000D03*
X60550000Y-59881000D03*
%TD*%
%TO.C,C14*%
X217000000Y-57400000D03*
X217000000Y-59400000D03*
%TD*%
D14*
%TO.C,LED35*%
X253550000Y-38550000D03*
X248200000Y-38550000D03*
D15*
X248200000Y-37050000D03*
D14*
X253550000Y-37050000D03*
%TD*%
D12*
%TO.C,C40*%
X138600000Y-88400000D03*
X140600000Y-88400000D03*
%TD*%
D13*
%TO.C,R6*%
X243000000Y-31600000D03*
X243000000Y-33600000D03*
%TD*%
D18*
%TO.C,C56*%
X63400000Y-47400000D03*
X63400000Y-45400000D03*
%TD*%
%TO.C,C57*%
X78400000Y-66600000D03*
X78400000Y-68600000D03*
%TD*%
D14*
%TO.C,LED6*%
X170250000Y-33850000D03*
X164900000Y-33850000D03*
D15*
X164900000Y-32350000D03*
D14*
X170250000Y-32350000D03*
%TD*%
D22*
%TO.C,L3*%
X87458096Y-58029000D03*
X85518096Y-58029000D03*
%TD*%
D41*
%TO.C,U5*%
X205900000Y-64792500D03*
X205900000Y-66192500D03*
X205900000Y-67592500D03*
X207300000Y-64792500D03*
X207300000Y-66192500D03*
X207300000Y-67592500D03*
X208700000Y-64792500D03*
X208700000Y-66192500D03*
X208700000Y-67592500D03*
D42*
X196900000Y-58482500D03*
X196900000Y-59752500D03*
X196900000Y-61022500D03*
X196900000Y-62292500D03*
X196900000Y-63562500D03*
X196900000Y-64832500D03*
X196900000Y-66102500D03*
X196900000Y-67372500D03*
X196900000Y-68642500D03*
X196900000Y-69912500D03*
X196900000Y-71182500D03*
X196900000Y-72452500D03*
X196900000Y-73722500D03*
X196900000Y-74992500D03*
D43*
X198810000Y-76382500D03*
X200080000Y-76382500D03*
X201350000Y-76382500D03*
X202620000Y-76382500D03*
X203890000Y-76382500D03*
X205160000Y-76382500D03*
X206430000Y-76382500D03*
X207700000Y-76382500D03*
X208970000Y-76382500D03*
X210240000Y-76382500D03*
X211510000Y-76382500D03*
X212780000Y-76382500D03*
D42*
X214700000Y-74992500D03*
X214700000Y-73722500D03*
X214700000Y-72452500D03*
X214700000Y-71182500D03*
X214700000Y-69912500D03*
X214700000Y-68642500D03*
X214700000Y-67372500D03*
X214700000Y-66102500D03*
X214700000Y-64832500D03*
X214700000Y-63562500D03*
X214700000Y-62292500D03*
X214700000Y-61022500D03*
X214700000Y-59752500D03*
X214700000Y-58482500D03*
D44*
X205900000Y-65492500D03*
X205900000Y-66892500D03*
X206600000Y-64792500D03*
X206600000Y-66192500D03*
X206600000Y-67592500D03*
X207300000Y-65492500D03*
X207300000Y-66892500D03*
X208000000Y-64792500D03*
X208000000Y-66192500D03*
X208000000Y-67592500D03*
X208700000Y-65492500D03*
X208700000Y-66892500D03*
%TD*%
M02*
