M48
; DRILL file {KiCad 9.0.2} date 2026-01-01T18:40:35-0500
; FORMAT={-:-/ absolute / metric / decimal}
; #@! TF.CreationDate,2026-01-01T18:40:35-05:00
; #@! TF.GenerationSoftware,Kicad,Pcbnew,9.0.2
; #@! TF.FileFunction,NonPlated,1,4,NPTH
FMAT,2
METRIC
; #@! TA.AperFunction,NonPlated,NPTH,ComponentDrill
T1C1.750
%
G90
G05
T1
X19.595Y-85.7
X29.12Y-66.65
X29.755Y-85.7
X38.645Y-85.7
X39.28Y-66.65
X48.17Y-66.65
X48.805Y-85.7
X57.695Y-85.7
X58.33Y-66.65
X67.22Y-38.075
X67.855Y-85.7
X76.745Y-85.7
X77.38Y-38.075
X86.27Y-38.075
X86.27Y-66.65
X86.905Y-85.7
X95.795Y-85.7
X96.43Y-38.075
X96.43Y-66.65
X105.32Y-38.075
X105.32Y-66.65
X105.955Y-85.7
X114.845Y-85.7
X115.48Y-38.075
X115.48Y-66.65
X124.37Y-38.075
X124.37Y-66.65
X125.005Y-85.7
X133.895Y-85.7
X134.53Y-38.075
X134.53Y-66.65
X143.42Y-38.075
X144.055Y-85.7
X152.945Y-85.7
X153.58Y-38.075
X162.47Y-38.075
X162.47Y-66.65
X163.105Y-85.7
X171.995Y-85.7
X172.63Y-38.075
X172.63Y-66.65
X181.52Y-38.075
X181.52Y-66.65
X182.155Y-85.7
X191.045Y-85.7
X191.68Y-38.075
X191.68Y-66.65
X200.57Y-38.075
X201.205Y-85.7
X210.095Y-85.7
X210.73Y-38.075
X219.62Y-66.65
X220.255Y-85.7
X229.145Y-85.7
X229.78Y-66.65
X238.67Y-66.65
X239.305Y-85.7
X248.195Y-85.7
X248.83Y-66.65
X257.72Y-66.65
X258.355Y-85.7
X267.245Y-85.7
X267.88Y-66.65
X277.405Y-85.7
M30
