M48
; DRILL file {KiCad 9.0.2} date 2025-12-20T16:45:06-0500
; FORMAT={-:-/ absolute / metric / decimal}
; #@! TF.CreationDate,2025-12-20T16:45:06-05:00
; #@! TF.GenerationSoftware,Kicad,Pcbnew,9.0.2
; #@! TF.FileFunction,Plated,1,4,PTH
FMAT,2
METRIC
; #@! TA.AperFunction,Plated,PTH,ComponentDrill
T1C0.250
; #@! TA.AperFunction,Plated,PTH,ViaDrill
T2C0.300
; #@! TA.AperFunction,Plated,PTH,ComponentDrill
T3C0.500
; #@! TA.AperFunction,Plated,PTH,ComponentDrill
T4C0.750
; #@! TA.AperFunction,Plated,PTH,ComponentDrill
T5C0.800
; #@! TA.AperFunction,Plated,PTH,ComponentDrill
T6C0.900
; #@! TA.AperFunction,Plated,PTH,ComponentDrill
T7C0.900
; #@! TA.AperFunction,Plated,PTH,ComponentDrill
T8C1.000
; #@! TA.AperFunction,Plated,PTH,ComponentDrill
T9C1.200
; #@! TA.AperFunction,Plated,PTH,ComponentDrill
T10C1.500
; #@! TA.AperFunction,Plated,PTH,ComponentDrill
T11C3.200
%
G90
G05
T1
X205.9Y-65.492
X205.9Y-66.892
X206.6Y-64.793
X206.6Y-66.192
X206.6Y-67.593
X207.3Y-65.492
X207.3Y-66.892
X208.0Y-64.793
X208.0Y-66.192
X208.0Y-67.593
X208.7Y-65.492
X208.7Y-66.892
T2
X21.0Y-79.2
X22.2Y-84.4
X22.6Y-40.0
X22.6Y-40.6
X22.6Y-41.2
X23.2Y-40.0
X23.2Y-40.6
X23.2Y-41.2
X23.8Y-40.0
X23.8Y-40.6
X23.8Y-41.2
X24.4Y-40.0
X24.4Y-40.6
X24.4Y-41.2
X24.8Y-87.4
X25.0Y-40.0
X25.0Y-40.6
X25.0Y-41.2
X25.6Y-40.0
X25.6Y-40.6
X25.6Y-41.2
X26.2Y-40.0
X26.2Y-40.6
X26.2Y-41.2
X26.6Y-84.8
X26.8Y-40.0
X26.8Y-40.6
X26.8Y-41.2
X27.4Y-40.0
X27.4Y-40.6
X27.4Y-41.2
X27.4Y-87.8
X27.4Y-88.4
X27.4Y-89.0
X28.0Y-87.8
X28.0Y-88.4
X28.0Y-89.0
X28.387Y-82.388
X28.6Y-80.0
X28.6Y-87.8
X28.6Y-88.4
X28.6Y-89.0
X29.8Y-60.4
X32.0Y-65.6
X32.4Y-54.4
X32.4Y-55.0
X32.4Y-55.6
X33.0Y-54.4
X33.0Y-55.0
X33.0Y-55.6
X33.6Y-54.4
X33.6Y-55.0
X33.6Y-55.6
X34.0Y-68.2
X35.6Y-65.8
X36.6Y-68.8
X36.6Y-69.4
X36.6Y-70.0
X37.2Y-68.8
X37.2Y-69.4
X37.2Y-70.0
X37.8Y-63.2
X37.8Y-68.8
X37.8Y-69.4
X37.8Y-70.0
X39.6Y-53.8
X40.642Y-79.166
X41.6Y-84.6
X43.4Y-58.4
X43.4Y-59.0
X43.4Y-59.6
X44.0Y-58.4
X44.0Y-59.0
X44.0Y-59.6
X44.0Y-87.4
X44.6Y-58.4
X44.6Y-59.0
X44.6Y-59.6
X45.6Y-85.0
X46.0Y-41.2
X46.0Y-41.8
X46.0Y-42.4
X46.6Y-41.2
X46.6Y-41.8
X46.6Y-42.4
X46.6Y-87.8
X46.6Y-88.4
X46.6Y-89.0
X47.2Y-41.2
X47.2Y-41.8
X47.2Y-42.4
X47.2Y-87.8
X47.2Y-88.4
X47.2Y-89.0
X47.387Y-82.188
X47.8Y-87.8
X47.8Y-88.4
X47.8Y-89.0
X49.4Y-60.2
X50.4Y-30.4
X51.0Y-65.6
X51.175Y-31.568
X52.025Y-31.568
X53.0Y-30.4
X53.2Y-68.2
X55.2Y-65.8
X55.8Y-68.8
X55.8Y-69.4
X55.8Y-70.0
X56.2Y-57.6
X56.4Y-68.8
X56.4Y-69.4
X56.4Y-70.0
X56.787Y-63.188
X56.8Y-41.2
X56.8Y-41.8
X56.8Y-42.4
X57.0Y-68.8
X57.0Y-69.4
X57.0Y-70.0
X57.4Y-41.2
X57.4Y-41.8
X57.4Y-42.4
X58.0Y-41.2
X58.0Y-41.8
X58.0Y-42.4
X58.8Y-80.8
X58.9Y-79.3
X60.4Y-84.6
X61.8Y-55.4
X62.0Y-58.8
X62.8Y-87.2
X64.2Y-69.0
X64.2Y-69.6
X64.2Y-70.2
X64.6Y-51.4
X64.8Y-69.0
X64.8Y-69.6
X64.8Y-70.2
X64.8Y-85.0
X65.0Y-61.4
X65.4Y-69.0
X65.4Y-69.6
X65.4Y-70.2
X65.4Y-87.8
X65.4Y-88.4
X65.4Y-89.0
X65.6Y-50.2
X65.8Y-40.4
X66.0Y-87.8
X66.0Y-88.4
X66.0Y-89.0
X66.388Y-82.188
X66.6Y-87.8
X66.6Y-88.4
X66.6Y-89.0
X67.2Y-44.6
X68.576Y-55.824
X69.2Y-31.6
X69.2Y-51.6
X70.0Y-97.8
X70.4Y-36.4
X72.2Y-29.8
X72.2Y-30.4
X72.2Y-39.6
X72.8Y-29.8
X72.8Y-30.4
X73.4Y-27.4
X73.4Y-28.0
X74.0Y-27.4
X74.0Y-28.0
X74.4Y-37.2
X74.4Y-98.0
X74.8Y-99.4
X75.0Y-96.9
X75.987Y-34.587
X78.0Y-79.4
X79.4Y-46.6
X79.6Y-84.6
X80.0Y-42.4
X80.2Y-65.4
X80.2Y-66.0
X80.2Y-66.6
X80.8Y-47.0
X80.8Y-65.4
X80.8Y-66.0
X80.8Y-66.6
X81.4Y-65.4
X81.4Y-66.0
X81.4Y-66.6
X81.8Y-87.2
X82.2Y-38.8
X82.2Y-39.4
X82.2Y-40.0
X82.8Y-38.8
X82.8Y-39.4
X82.8Y-40.0
X82.807Y-49.986
X83.4Y-38.8
X83.4Y-39.4
X83.4Y-40.0
X83.8Y-85.0
X84.4Y-87.8
X84.4Y-88.4
X84.4Y-89.0
X84.7Y-67.7
X85.0Y-87.8
X85.0Y-88.4
X85.0Y-89.0
X85.388Y-82.188
X85.6Y-87.8
X85.6Y-88.4
X85.6Y-89.0
X86.143Y-82.45
X87.2Y-62.6
X87.4Y-60.4
X87.8Y-46.8
X88.0Y-31.6
X89.2Y-37.2
X89.2Y-65.6
X91.1Y-68.3
X91.2Y-39.6
X93.2Y-37.2
X93.2Y-65.8
X93.6Y-68.8
X93.6Y-69.4
X93.6Y-70.0
X93.8Y-41.0
X93.8Y-41.6
X93.8Y-42.2
X94.2Y-68.8
X94.2Y-69.4
X94.2Y-70.0
X94.4Y-41.0
X94.4Y-41.6
X94.4Y-42.2
X94.8Y-68.8
X94.8Y-69.4
X94.8Y-70.0
X94.987Y-34.587
X94.987Y-63.188
X95.0Y-41.0
X95.0Y-41.6
X95.0Y-42.2
X96.6Y-58.8
X97.8Y-46.8
X97.8Y-47.4
X97.8Y-48.0
X97.903Y-79.204
X98.2Y-51.4
X98.4Y-46.8
X98.4Y-47.4
X98.4Y-48.0
X98.6Y-84.4
X99.0Y-46.8
X99.0Y-47.4
X99.0Y-48.0
X100.0Y-53.0
X100.8Y-53.0
X100.8Y-87.2
X101.6Y-53.0
X103.0Y-85.0
X103.4Y-51.4
X103.4Y-87.8
X103.4Y-88.4
X103.4Y-89.0
X104.0Y-87.8
X104.0Y-88.4
X104.0Y-89.0
X104.387Y-82.188
X104.6Y-87.8
X104.6Y-88.4
X104.6Y-89.0
X106.6Y-60.0
X107.0Y-31.6
X108.0Y-65.8
X108.2Y-37.0
X110.2Y-39.6
X110.2Y-68.4
X112.2Y-37.2
X112.4Y-66.0
X112.6Y-42.0
X112.6Y-42.6
X112.6Y-43.2
X113.0Y-68.8
X113.0Y-69.4
X113.0Y-70.0
X113.2Y-42.0
X113.2Y-42.6
X113.2Y-43.2
X113.6Y-68.8
X113.6Y-69.4
X113.6Y-70.0
X113.8Y-42.0
X113.8Y-42.6
X113.8Y-43.2
X113.987Y-34.587
X113.987Y-63.188
X114.2Y-68.8
X114.2Y-69.4
X114.2Y-70.0
X114.4Y-60.0
X116.904Y-79.204
X117.8Y-84.6
X118.8Y-46.2
X119.8Y-50.1
X119.8Y-87.4
X120.0Y-43.4
X120.0Y-44.0
X120.0Y-44.6
X120.4Y-55.6
X120.426Y-49.7
X120.6Y-43.4
X120.6Y-44.0
X120.6Y-44.6
X121.2Y-43.4
X121.2Y-44.0
X121.2Y-44.6
X122.0Y-85.0
X122.4Y-87.8
X122.4Y-88.4
X122.4Y-89.0
X122.979Y-52.136
X123.0Y-50.7
X123.0Y-51.4
X123.0Y-54.2
X123.0Y-87.8
X123.0Y-88.4
X123.0Y-89.0
X123.2Y-52.8
X123.221Y-53.501
X123.587Y-82.188
X123.6Y-87.8
X123.6Y-88.4
X123.6Y-89.0
X124.0Y-53.501
X124.6Y-52.4
X124.626Y-53.187
X124.8Y-55.8
X125.235Y-52.078
X125.835Y-51.521
X126.2Y-31.8
X127.2Y-65.8
X127.4Y-37.2
X129.2Y-49.2
X129.4Y-39.8
X129.4Y-56.128
X129.4Y-68.4
X129.421Y-49.864
X129.825Y-50.436
X130.8Y-44.8
X130.8Y-45.4
X130.8Y-46.0
X131.4Y-37.4
X131.4Y-44.8
X131.4Y-45.4
X131.4Y-46.0
X132.0Y-40.2
X132.0Y-40.8
X132.0Y-41.4
X132.0Y-44.8
X132.0Y-45.4
X132.0Y-46.0
X132.0Y-67.6
X132.0Y-68.2
X132.0Y-68.8
X132.6Y-40.2
X132.6Y-40.8
X132.6Y-41.4
X132.6Y-67.6
X132.6Y-68.2
X132.6Y-68.8
X133.188Y-34.587
X133.188Y-63.188
X133.2Y-40.2
X133.2Y-40.8
X133.2Y-41.4
X133.2Y-67.6
X133.2Y-68.2
X133.2Y-68.8
X135.803Y-79.104
X136.6Y-84.6
X139.2Y-87.4
X141.0Y-84.8
X142.2Y-87.8
X142.2Y-88.4
X142.2Y-89.0
X142.588Y-82.188
X142.8Y-87.8
X142.8Y-88.4
X142.8Y-89.0
X143.4Y-87.8
X143.4Y-88.4
X143.4Y-89.0
X145.2Y-31.8
X146.4Y-37.2
X148.4Y-39.8
X150.4Y-37.4
X151.0Y-40.2
X151.0Y-40.8
X151.0Y-41.4
X151.6Y-40.2
X151.6Y-40.8
X151.6Y-41.4
X152.188Y-34.587
X152.2Y-40.2
X152.2Y-40.8
X152.2Y-41.4
X155.305Y-79.305
X155.8Y-84.8
X157.8Y-87.2
X159.8Y-85.0
X160.6Y-87.8
X160.6Y-88.4
X160.6Y-89.0
X161.2Y-55.2
X161.2Y-87.8
X161.2Y-88.4
X161.2Y-89.0
X161.588Y-82.188
X161.8Y-87.8
X161.8Y-88.4
X161.8Y-89.0
X162.2Y-55.2
X163.0Y-55.2
X163.875Y-60.075
X164.2Y-31.8
X165.4Y-37.0
X165.4Y-65.8
X167.6Y-39.8
X167.8Y-68.2
X169.4Y-37.4
X169.675Y-66.075
X170.2Y-68.8
X170.2Y-69.4
X170.2Y-70.0
X170.4Y-40.2
X170.4Y-40.8
X170.4Y-41.4
X170.8Y-68.8
X170.8Y-69.4
X170.8Y-70.0
X171.0Y-40.2
X171.0Y-40.8
X171.0Y-41.4
X171.188Y-34.587
X171.188Y-63.188
X171.2Y-54.8
X171.4Y-68.8
X171.4Y-69.4
X171.4Y-70.0
X171.6Y-40.2
X171.6Y-40.8
X171.6Y-41.4
X172.0Y-54.8
X172.7Y-54.8
X173.4Y-44.2
X173.4Y-44.8
X173.4Y-45.4
X173.4Y-46.4
X173.4Y-54.8
X174.0Y-44.2
X174.0Y-44.8
X174.0Y-45.4
X174.154Y-79.154
X174.169Y-54.982
X174.6Y-44.2
X174.6Y-44.8
X174.6Y-45.4
X174.778Y-55.328
X174.8Y-84.8
X175.415Y-55.629
X177.0Y-87.4
X178.337Y-56.382
X178.646Y-55.754
X178.8Y-53.4
X178.8Y-85.0
X179.422Y-53.022
X179.6Y-87.8
X179.6Y-88.4
X179.6Y-89.0
X180.2Y-53.2
X180.2Y-55.6
X180.2Y-87.8
X180.2Y-88.4
X180.2Y-89.0
X180.6Y-41.0
X180.6Y-41.6
X180.6Y-42.2
X180.787Y-82.188
X180.796Y-52.507
X180.8Y-87.8
X180.8Y-88.4
X180.8Y-89.0
X181.2Y-41.0
X181.2Y-41.6
X181.2Y-42.2
X181.513Y-52.261
X181.8Y-41.0
X181.8Y-41.6
X181.8Y-42.2
X181.842Y-52.879
X182.875Y-60.075
X183.2Y-31.8
X184.2Y-36.8
X184.4Y-65.6
X184.6Y-55.4
X184.657Y-54.702
X185.6Y-54.8
X186.374Y-54.726
X186.4Y-39.8
X186.4Y-46.0
X186.4Y-46.6
X186.4Y-47.2
X186.8Y-68.2
X187.0Y-46.0
X187.0Y-46.6
X187.0Y-47.2
X187.6Y-46.0
X187.6Y-46.6
X187.6Y-47.2
X188.4Y-37.4
X188.675Y-66.075
X189.2Y-40.2
X189.2Y-40.8
X189.2Y-41.4
X189.2Y-68.8
X189.2Y-69.4
X189.2Y-70.0
X189.8Y-40.2
X189.8Y-40.8
X189.8Y-41.4
X189.8Y-68.8
X189.8Y-69.4
X189.8Y-70.0
X190.188Y-34.587
X190.188Y-63.188
X190.4Y-40.2
X190.4Y-40.8
X190.4Y-41.4
X190.4Y-68.8
X190.4Y-69.4
X190.4Y-70.0
X192.1Y-63.3
X192.2Y-79.2
X192.2Y-80.8
X193.129Y-85.671
X194.4Y-76.8
X195.013Y-73.575
X195.237Y-77.2
X195.6Y-59.8
X196.0Y-87.2
X196.034Y-77.434
X196.763Y-77.764
X198.0Y-73.5
X198.2Y-61.0
X198.2Y-85.2
X198.4Y-67.2
X198.6Y-87.8
X198.6Y-88.4
X198.6Y-89.0
X199.0Y-66.0
X199.2Y-87.8
X199.2Y-88.4
X199.2Y-89.0
X199.6Y-65.249
X199.787Y-82.188
X199.8Y-87.8
X199.8Y-88.4
X199.8Y-89.0
X200.801Y-70.0
X202.0Y-66.8
X202.4Y-31.6
X202.6Y-75.225
X202.6Y-79.2
X202.696Y-64.0
X203.2Y-70.176
X203.296Y-63.345
X203.776Y-70.776
X203.8Y-37.0
X204.0Y-69.75
X204.4Y-71.4
X204.8Y-79.2
X205.6Y-39.8
X206.508Y-69.892
X206.8Y-73.4
X206.824Y-70.776
X207.6Y-37.2
X207.676Y-73.324
X208.4Y-40.2
X208.4Y-40.8
X208.4Y-41.4
X209.0Y-40.2
X209.0Y-40.8
X209.0Y-41.4
X209.188Y-34.587
X209.6Y-40.2
X209.6Y-40.8
X209.6Y-41.4
X210.2Y-75.2
X210.4Y-98.298
X211.2Y-64.4
X211.2Y-65.0
X211.2Y-65.6
X211.8Y-64.4
X211.8Y-65.0
X211.8Y-65.6
X212.024Y-71.024
X212.2Y-70.0
X212.254Y-79.124
X212.4Y-64.4
X212.4Y-65.0
X212.4Y-65.6
X213.0Y-73.2
X213.0Y-84.829
X213.4Y-68.8
X215.0Y-87.4
X215.8Y-59.6
X216.0Y-65.0
X216.0Y-67.25
X216.0Y-72.0
X216.2Y-66.2
X216.8Y-55.8
X217.2Y-85.2
X217.4Y-55.2
X217.4Y-55.8
X217.6Y-87.8
X217.6Y-88.4
X217.6Y-89.0
X218.2Y-87.8
X218.2Y-88.4
X218.2Y-89.0
X218.787Y-82.188
X218.8Y-87.8
X218.8Y-88.4
X218.8Y-89.0
X219.2Y-80.6
X220.0Y-73.975
X220.0Y-74.825
X221.4Y-60.2
X222.6Y-65.6
X223.4Y-58.8
X223.4Y-59.4
X224.0Y-58.8
X224.0Y-59.4
X224.8Y-68.2
X226.6Y-65.8
X227.2Y-68.8
X227.2Y-69.4
X227.2Y-70.0
X227.8Y-68.8
X227.8Y-69.4
X227.8Y-70.0
X228.387Y-63.188
X228.4Y-68.8
X228.4Y-69.4
X228.4Y-70.0
X230.8Y-79.2
X232.0Y-84.8
X232.624Y-97.847
X232.808Y-97.172
X233.2Y-49.4
X233.4Y-44.6
X234.0Y-35.8
X234.125Y-40.4
X234.2Y-87.4
X236.0Y-54.2
X236.0Y-54.8
X236.0Y-55.4
X236.2Y-85.0
X236.6Y-54.2
X236.6Y-54.8
X236.6Y-55.4
X236.8Y-87.8
X236.8Y-88.4
X236.8Y-89.0
X237.2Y-54.2
X237.2Y-54.8
X237.2Y-55.4
X237.4Y-87.8
X237.4Y-88.4
X237.4Y-89.0
X237.787Y-82.188
X238.0Y-87.8
X238.0Y-88.4
X238.0Y-89.0
X239.8Y-43.8
X239.8Y-48.0
X239.8Y-52.6
X240.2Y-39.427
X240.6Y-45.0
X240.6Y-60.4
X240.8Y-36.0
X240.8Y-40.6
X240.916Y-49.323
X241.0Y-26.701
X241.6Y-65.6
X243.0Y-54.2
X243.0Y-54.8
X243.0Y-55.4
X243.6Y-54.2
X243.6Y-54.8
X243.6Y-55.4
X243.8Y-68.2
X244.2Y-54.2
X244.2Y-54.8
X244.2Y-55.4
X245.6Y-34.4
X245.8Y-66.0
X246.2Y-68.8
X246.2Y-69.4
X246.2Y-70.0
X246.8Y-52.8
X246.8Y-68.8
X246.8Y-69.4
X246.8Y-70.0
X246.9Y-39.3
X246.9Y-48.1
X247.0Y-43.8
X247.387Y-63.188
X247.4Y-68.8
X247.4Y-69.4
X247.4Y-70.0
X247.925Y-49.2
X248.0Y-36.0
X248.2Y-40.6
X248.2Y-44.6
X249.6Y-79.0
X250.0Y-54.2
X250.0Y-54.8
X250.0Y-55.4
X250.6Y-54.2
X250.6Y-54.8
X250.6Y-55.4
X251.0Y-84.8
X251.2Y-54.2
X251.2Y-54.8
X251.2Y-55.4
X253.2Y-87.4
X253.594Y-47.994
X253.8Y-52.301
X254.4Y-43.8
X254.8Y-39.0
X255.2Y-84.8
X255.75Y-48.0
X255.8Y-44.8
X255.8Y-87.8
X255.8Y-88.4
X255.8Y-89.0
X256.4Y-87.8
X256.4Y-88.4
X256.4Y-89.0
X256.988Y-82.188
X257.0Y-87.8
X257.0Y-88.4
X257.0Y-89.0
X258.894Y-63.094
X259.0Y-43.0
X259.134Y-50.244
X259.6Y-60.2
X259.8Y-26.8
X259.8Y-48.8
X259.8Y-49.8
X260.6Y-29.2
X260.6Y-29.8
X260.6Y-30.4
X260.6Y-65.8
X261.2Y-29.2
X261.2Y-29.8
X261.2Y-30.4
X261.8Y-29.2
X261.8Y-29.8
X261.8Y-30.4
X262.4Y-44.8
X262.6Y-68.2
X263.0Y-41.2
X263.2Y-39.0
X263.2Y-45.4
X264.0Y-38.4
X264.6Y-40.925
X264.8Y-65.8
X265.0Y-68.8
X265.0Y-69.4
X265.0Y-70.0
X265.554Y-38.646
X265.6Y-68.8
X265.6Y-69.4
X265.6Y-70.0
X266.2Y-68.8
X266.2Y-69.4
X266.2Y-70.0
X266.387Y-63.188
X268.8Y-79.0
X268.8Y-87.8
X268.8Y-88.4
X268.8Y-89.0
X269.4Y-87.8
X269.4Y-88.4
X269.4Y-89.0
X270.0Y-84.8
X270.0Y-87.8
X270.0Y-88.4
X270.0Y-89.0
X272.2Y-87.4
X274.4Y-85.0
X275.988Y-82.188
X276.0Y-43.0
X276.0Y-43.6
X276.0Y-44.2
X276.6Y-43.0
X276.6Y-43.6
X276.6Y-44.2
T3
X16.4Y-28.8
X16.4Y-96.6
X17.103Y-27.103
X17.103Y-30.497
X17.103Y-94.903
X17.103Y-98.297
X18.8Y-26.4
X18.8Y-31.2
X18.8Y-94.2
X18.8Y-99.0
X20.497Y-27.103
X20.497Y-30.497
X20.497Y-94.903
X20.497Y-98.297
X21.2Y-28.8
X21.2Y-96.6
X146.4Y-62.8
X147.103Y-61.103
X147.103Y-64.497
X148.8Y-60.4
X148.8Y-65.2
X150.497Y-61.103
X150.497Y-64.497
X151.2Y-62.8
X276.2Y-28.8
X276.303Y-96.497
X276.903Y-27.103
X276.903Y-30.497
X277.006Y-94.8
X277.006Y-98.194
X278.6Y-26.4
X278.6Y-31.2
X278.703Y-94.097
X278.703Y-98.897
X280.297Y-27.103
X280.297Y-30.497
X280.4Y-94.8
X280.4Y-98.194
X281.0Y-28.8
X281.103Y-96.497
T4
X48.7Y-31.862
X54.5Y-31.862
T6
X38.2Y-27.188
X45.0Y-27.188
T8
X17.0Y-35.52
X17.0Y-38.06
X17.0Y-40.6
X17.0Y-43.14
X17.0Y-45.68
X17.0Y-48.22
X17.0Y-50.76
X17.0Y-53.3
X18.175Y-105.995
X18.18Y-109.57
X20.715Y-105.995
X20.72Y-109.57
X23.255Y-105.995
X23.26Y-109.57
X25.795Y-105.995
X25.8Y-109.57
X26.0Y-27.06
X26.0Y-29.6
X28.335Y-105.995
X28.34Y-109.57
X30.875Y-105.995
X30.88Y-109.57
X33.415Y-105.995
X33.42Y-109.57
X35.955Y-105.995
X35.96Y-109.57
X44.725Y-105.995
X44.73Y-109.57
X47.265Y-105.995
X47.27Y-109.57
X49.805Y-105.995
X49.81Y-109.57
X52.345Y-105.995
X52.35Y-109.57
X54.885Y-105.995
X54.89Y-109.57
X57.425Y-105.995
X57.43Y-109.57
X59.965Y-105.995
X59.97Y-109.57
X62.505Y-105.995
X62.51Y-109.57
X71.22Y-105.965
X71.225Y-109.54
X73.76Y-105.965
X73.765Y-109.54
X76.3Y-105.965
X76.305Y-109.54
X78.84Y-105.965
X78.845Y-109.54
X81.38Y-105.965
X81.385Y-109.54
X83.92Y-105.965
X83.925Y-109.54
X86.46Y-105.965
X86.465Y-109.54
X89.0Y-105.965
X89.005Y-109.54
X97.72Y-105.965
X97.725Y-109.54
X100.26Y-105.965
X100.265Y-109.54
X102.8Y-105.965
X102.805Y-109.54
X105.34Y-105.965
X105.345Y-109.54
X107.88Y-105.965
X107.885Y-109.54
X110.42Y-105.965
X110.425Y-109.54
X112.96Y-105.965
X112.965Y-109.54
X115.5Y-105.965
X115.505Y-109.54
X124.22Y-105.965
X124.225Y-109.54
X126.76Y-105.965
X126.765Y-109.54
X129.3Y-105.965
X129.305Y-109.54
X131.84Y-105.965
X131.845Y-109.54
X134.38Y-105.965
X134.385Y-109.54
X136.92Y-105.965
X136.925Y-109.54
X139.46Y-105.965
X139.465Y-109.54
X142.0Y-105.965
X142.005Y-109.54
X150.72Y-105.965
X150.725Y-109.54
X153.26Y-105.965
X153.265Y-109.54
X155.8Y-105.965
X155.805Y-109.54
X158.34Y-105.965
X158.345Y-109.54
X160.88Y-105.965
X160.885Y-109.54
X163.42Y-105.965
X163.425Y-109.54
X165.96Y-105.965
X165.965Y-109.54
X168.5Y-105.965
X168.505Y-109.54
X177.22Y-105.965
X177.225Y-109.54
X179.76Y-105.965
X179.765Y-109.54
X182.3Y-105.965
X182.305Y-109.54
X184.84Y-105.965
X184.845Y-109.54
X187.38Y-105.965
X187.385Y-109.54
X189.92Y-105.965
X189.925Y-109.54
X192.46Y-105.965
X192.465Y-109.54
X195.0Y-105.965
X195.005Y-109.54
X203.72Y-105.965
X203.725Y-109.54
X206.26Y-105.965
X206.265Y-109.54
X208.8Y-105.965
X208.805Y-109.54
X211.34Y-105.965
X211.345Y-109.54
X213.88Y-105.965
X213.885Y-109.54
X216.42Y-105.965
X216.425Y-109.54
X217.575Y-35.4
X217.575Y-37.9
X217.575Y-40.4
X218.96Y-105.965
X218.965Y-109.54
X221.5Y-105.965
X221.505Y-109.54
X230.22Y-105.965
X230.225Y-109.54
X232.075Y-35.4
X232.075Y-40.4
X232.76Y-105.965
X232.765Y-109.54
X235.3Y-105.965
X235.305Y-109.54
X237.84Y-105.965
X237.845Y-109.54
X240.38Y-105.965
X240.385Y-109.54
X242.92Y-105.965
X242.925Y-109.54
X245.46Y-105.965
X245.465Y-109.54
X248.0Y-105.965
X248.005Y-109.54
X256.72Y-105.965
X256.725Y-109.54
X259.26Y-105.965
X259.265Y-109.54
X261.8Y-105.965
X261.805Y-109.54
X264.34Y-105.965
X264.345Y-109.54
X266.88Y-105.965
X266.885Y-109.54
X269.42Y-105.965
X269.425Y-109.54
X271.96Y-105.965
X271.965Y-109.54
X274.5Y-105.965
X274.505Y-109.54
X280.4Y-35.52
X280.4Y-38.06
X280.4Y-40.6
X280.4Y-43.14
X280.4Y-45.68
X280.4Y-48.22
X280.4Y-50.76
X280.4Y-53.3
T9
X61.4Y-29.245
X61.4Y-36.245
T11
X18.8Y-28.8
X18.8Y-96.6
X148.8Y-62.8
X278.6Y-28.8
X278.703Y-96.497
T5
G00X47.27Y-27.883
M15
G01X47.27Y-28.482
M16
G05
G00X47.27Y-31.962
M15
G01X47.27Y-32.763
M16
G05
G00X55.93Y-27.883
M15
G01X55.93Y-28.482
M16
G05
G00X55.93Y-31.963
M15
G01X55.93Y-32.762
M16
G05
T7
G00X31.335Y-33.038
M15
G01X33.535Y-33.038
M16
G05
G00X33.535Y-39.038
M15
G01X31.335Y-39.038
M16
G05
G00X37.095Y-35.688
M15
G01X37.095Y-37.387
M16
G05
T10
G00X224.425Y-32.3
M15
G01X225.725Y-32.3
M16
G05
G00X224.425Y-43.5
M15
G01X225.725Y-43.5
M16
G05
M30
