M48
; DRILL file {KiCad 9.0.2} date 2026-01-01T17:19:05-0500
; FORMAT={-:-/ absolute / metric / decimal}
; #@! TF.CreationDate,2026-01-01T17:19:05-05:00
; #@! TF.GenerationSoftware,Kicad,Pcbnew,9.0.2
; #@! TF.FileFunction,Plated,1,2,PTH
FMAT,2
METRIC
; #@! TA.AperFunction,Plated,PTH,ComponentDrill
T1C1.000
%
G90
G05
T1
X54.816Y-28.731
X54.816Y-41.271
X54.816Y-53.811
X54.816Y-66.351
X54.816Y-78.891
X54.816Y-91.431
X54.816Y-103.971
X54.816Y-116.511
X54.821Y-32.306
X54.821Y-44.846
X54.821Y-57.386
X54.821Y-69.926
X54.821Y-82.466
X54.821Y-95.006
X54.821Y-107.546
X54.821Y-120.086
X57.356Y-28.731
X57.356Y-41.271
X57.356Y-53.811
X57.356Y-66.351
X57.356Y-78.891
X57.356Y-91.431
X57.356Y-103.971
X57.356Y-116.511
X57.361Y-32.306
X57.361Y-44.846
X57.361Y-57.386
X57.361Y-69.926
X57.361Y-82.466
X57.361Y-95.006
X57.361Y-107.546
X57.361Y-120.086
X59.896Y-28.731
X59.896Y-41.271
X59.896Y-53.811
X59.896Y-66.351
X59.896Y-78.891
X59.896Y-91.431
X59.896Y-103.971
X59.896Y-116.511
X59.901Y-32.306
X59.901Y-44.846
X59.901Y-57.386
X59.901Y-69.926
X59.901Y-82.466
X59.901Y-95.006
X59.901Y-107.546
X59.901Y-120.086
X62.436Y-28.731
X62.436Y-41.271
X62.436Y-53.811
X62.436Y-66.351
X62.436Y-78.891
X62.436Y-91.431
X62.436Y-103.971
X62.436Y-116.511
X62.441Y-32.306
X62.441Y-44.846
X62.441Y-57.386
X62.441Y-69.926
X62.441Y-82.466
X62.441Y-95.006
X62.441Y-107.546
X62.441Y-120.086
X64.976Y-28.731
X64.976Y-41.271
X64.976Y-53.811
X64.976Y-66.351
X64.976Y-78.891
X64.976Y-91.431
X64.976Y-103.971
X64.976Y-116.511
X64.981Y-32.306
X64.981Y-44.846
X64.981Y-57.386
X64.981Y-69.926
X64.981Y-82.466
X64.981Y-95.006
X64.981Y-107.546
X64.981Y-120.086
X67.516Y-28.731
X67.516Y-41.271
X67.516Y-53.811
X67.516Y-66.351
X67.516Y-78.891
X67.516Y-91.431
X67.516Y-103.971
X67.516Y-116.511
X67.521Y-32.306
X67.521Y-44.846
X67.521Y-57.386
X67.521Y-69.926
X67.521Y-82.466
X67.521Y-95.006
X67.521Y-107.546
X67.521Y-120.086
X70.056Y-28.731
X70.056Y-41.271
X70.056Y-53.811
X70.056Y-66.351
X70.056Y-78.891
X70.056Y-91.431
X70.056Y-103.971
X70.056Y-116.511
X70.061Y-32.306
X70.061Y-44.846
X70.061Y-57.386
X70.061Y-69.926
X70.061Y-82.466
X70.061Y-95.006
X70.061Y-107.546
X70.061Y-120.086
X72.596Y-28.731
X72.596Y-41.271
X72.596Y-53.811
X72.596Y-66.351
X72.596Y-78.891
X72.596Y-91.431
X72.596Y-103.971
X72.596Y-116.511
X72.601Y-32.306
X72.601Y-44.846
X72.601Y-57.386
X72.601Y-69.926
X72.601Y-82.466
X72.601Y-95.006
X72.601Y-107.546
X72.601Y-120.086
X81.366Y-28.731
X81.366Y-41.271
X81.366Y-53.811
X81.366Y-66.351
X81.366Y-78.891
X81.366Y-91.431
X81.366Y-103.971
X81.366Y-116.511
X81.371Y-32.306
X81.371Y-44.846
X81.371Y-57.386
X81.371Y-69.926
X81.371Y-82.466
X81.371Y-95.006
X81.371Y-107.546
X81.371Y-120.086
X83.906Y-28.731
X83.906Y-41.271
X83.906Y-53.811
X83.906Y-66.351
X83.906Y-78.891
X83.906Y-91.431
X83.906Y-103.971
X83.906Y-116.511
X83.911Y-32.306
X83.911Y-44.846
X83.911Y-57.386
X83.911Y-69.926
X83.911Y-82.466
X83.911Y-95.006
X83.911Y-107.546
X83.911Y-120.086
X86.446Y-28.731
X86.446Y-41.271
X86.446Y-53.811
X86.446Y-66.351
X86.446Y-78.891
X86.446Y-91.431
X86.446Y-103.971
X86.446Y-116.511
X86.451Y-32.306
X86.451Y-44.846
X86.451Y-57.386
X86.451Y-69.926
X86.451Y-82.466
X86.451Y-95.006
X86.451Y-107.546
X86.451Y-120.086
X88.986Y-28.731
X88.986Y-41.271
X88.986Y-53.811
X88.986Y-66.351
X88.986Y-78.891
X88.986Y-91.431
X88.986Y-103.971
X88.986Y-116.511
X88.991Y-32.306
X88.991Y-44.846
X88.991Y-57.386
X88.991Y-69.926
X88.991Y-82.466
X88.991Y-95.006
X88.991Y-107.546
X88.991Y-120.086
X91.526Y-28.731
X91.526Y-41.271
X91.526Y-53.811
X91.526Y-66.351
X91.526Y-78.891
X91.526Y-91.431
X91.526Y-103.971
X91.526Y-116.511
X91.531Y-32.306
X91.531Y-44.846
X91.531Y-57.386
X91.531Y-69.926
X91.531Y-82.466
X91.531Y-95.006
X91.531Y-107.546
X91.531Y-120.086
X94.066Y-28.731
X94.066Y-41.271
X94.066Y-53.811
X94.066Y-66.351
X94.066Y-78.891
X94.066Y-91.431
X94.066Y-103.971
X94.066Y-116.511
X94.071Y-32.306
X94.071Y-44.846
X94.071Y-57.386
X94.071Y-69.926
X94.071Y-82.466
X94.071Y-95.006
X94.071Y-107.546
X94.071Y-120.086
X96.606Y-28.731
X96.606Y-41.271
X96.606Y-53.811
X96.606Y-66.351
X96.606Y-78.891
X96.606Y-91.431
X96.606Y-103.971
X96.606Y-116.511
X96.611Y-32.306
X96.611Y-44.846
X96.611Y-57.386
X96.611Y-69.926
X96.611Y-82.466
X96.611Y-95.006
X96.611Y-107.546
X96.611Y-120.086
X99.146Y-28.731
X99.146Y-41.271
X99.146Y-53.811
X99.146Y-66.351
X99.146Y-78.891
X99.146Y-91.431
X99.146Y-103.971
X99.146Y-116.511
X99.151Y-32.306
X99.151Y-44.846
X99.151Y-57.386
X99.151Y-69.926
X99.151Y-82.466
X99.151Y-95.006
X99.151Y-107.546
X99.151Y-120.086
X107.861Y-28.701
X107.861Y-41.241
X107.861Y-53.781
X107.861Y-66.321
X107.861Y-78.861
X107.861Y-91.401
X107.861Y-103.941
X107.861Y-116.481
X107.866Y-32.276
X107.866Y-44.816
X107.866Y-57.356
X107.866Y-69.896
X107.866Y-82.436
X107.866Y-94.976
X107.866Y-107.516
X107.866Y-120.056
X110.401Y-28.701
X110.401Y-41.241
X110.401Y-53.781
X110.401Y-66.321
X110.401Y-78.861
X110.401Y-91.401
X110.401Y-103.941
X110.401Y-116.481
X110.406Y-32.276
X110.406Y-44.816
X110.406Y-57.356
X110.406Y-69.896
X110.406Y-82.436
X110.406Y-94.976
X110.406Y-107.516
X110.406Y-120.056
X112.941Y-28.701
X112.941Y-41.241
X112.941Y-53.781
X112.941Y-66.321
X112.941Y-78.861
X112.941Y-91.401
X112.941Y-103.941
X112.941Y-116.481
X112.946Y-32.276
X112.946Y-44.816
X112.946Y-57.356
X112.946Y-69.896
X112.946Y-82.436
X112.946Y-94.976
X112.946Y-107.516
X112.946Y-120.056
X115.481Y-28.701
X115.481Y-41.241
X115.481Y-53.781
X115.481Y-66.321
X115.481Y-78.861
X115.481Y-91.401
X115.481Y-103.941
X115.481Y-116.481
X115.486Y-32.276
X115.486Y-44.816
X115.486Y-57.356
X115.486Y-69.896
X115.486Y-82.436
X115.486Y-94.976
X115.486Y-107.516
X115.486Y-120.056
X118.021Y-28.701
X118.021Y-41.241
X118.021Y-53.781
X118.021Y-66.321
X118.021Y-78.861
X118.021Y-91.401
X118.021Y-103.941
X118.021Y-116.481
X118.026Y-32.276
X118.026Y-44.816
X118.026Y-57.356
X118.026Y-69.896
X118.026Y-82.436
X118.026Y-94.976
X118.026Y-107.516
X118.026Y-120.056
X120.561Y-28.701
X120.561Y-41.241
X120.561Y-53.781
X120.561Y-66.321
X120.561Y-78.861
X120.561Y-91.401
X120.561Y-103.941
X120.561Y-116.481
X120.566Y-32.276
X120.566Y-44.816
X120.566Y-57.356
X120.566Y-69.896
X120.566Y-82.436
X120.566Y-94.976
X120.566Y-107.516
X120.566Y-120.056
X123.101Y-28.701
X123.101Y-41.241
X123.101Y-53.781
X123.101Y-66.321
X123.101Y-78.861
X123.101Y-91.401
X123.101Y-103.941
X123.101Y-116.481
X123.106Y-32.276
X123.106Y-44.816
X123.106Y-57.356
X123.106Y-69.896
X123.106Y-82.436
X123.106Y-94.976
X123.106Y-107.516
X123.106Y-120.056
X125.641Y-28.701
X125.641Y-41.241
X125.641Y-53.781
X125.641Y-66.321
X125.641Y-78.861
X125.641Y-91.401
X125.641Y-103.941
X125.641Y-116.481
X125.646Y-32.276
X125.646Y-44.816
X125.646Y-57.356
X125.646Y-69.896
X125.646Y-82.436
X125.646Y-94.976
X125.646Y-107.516
X125.646Y-120.056
M30
