%TF.GenerationSoftware,KiCad,Pcbnew,9.0.2*%
%TF.CreationDate,2026-01-01T17:19:06-05:00*%
%TF.ProjectId,Fracture Connector,46726163-7475-4726-9520-436f6e6e6563,rev?*%
%TF.SameCoordinates,Original*%
%TF.FileFunction,Copper,L1,Top*%
%TF.FilePolarity,Positive*%
%FSLAX46Y46*%
G04 Gerber Fmt 4.6, Leading zero omitted, Abs format (unit mm)*
G04 Created by KiCad (PCBNEW 9.0.2) date 2026-01-01 17:19:06*
%MOMM*%
%LPD*%
G01*
G04 APERTURE LIST*
%TA.AperFunction,ComponentPad*%
%ADD10C,1.700000*%
%TD*%
%TA.AperFunction,ComponentPad*%
%ADD11R,1.700000X1.700000*%
%TD*%
%TA.AperFunction,Conductor*%
%ADD12C,2.000000*%
%TD*%
G04 APERTURE END LIST*
D10*
%TO.P,J48,8,Pin_8*%
%TO.N,Net-(J5-Pin_8)*%
X125640786Y-91400786D03*
%TO.P,J48,7,Pin_7*%
%TO.N,Net-(J5-Pin_7)*%
X123100786Y-91400786D03*
%TO.P,J48,6,Pin_6*%
%TO.N,Net-(J5-Pin_6)*%
X120560786Y-91400786D03*
%TO.P,J48,5,Pin_5*%
%TO.N,Net-(J5-Pin_5)*%
X118020786Y-91400786D03*
%TO.P,J48,4,Pin_4*%
%TO.N,Net-(J5-Pin_4)*%
X115480786Y-91400786D03*
%TO.P,J48,3,Pin_3*%
%TO.N,Net-(J5-Pin_3)*%
X112940786Y-91400786D03*
%TO.P,J48,2,Pin_2*%
%TO.N,Net-(J5-Pin_2)*%
X110400786Y-91400786D03*
D11*
%TO.P,J48,1,Pin_1*%
%TO.N,Net-(J5-Pin_1)*%
X107860786Y-91400786D03*
%TD*%
D10*
%TO.P,J46,8,Pin_8*%
%TO.N,Net-(J5-Pin_8)*%
X72595786Y-91430786D03*
%TO.P,J46,7,Pin_7*%
%TO.N,Net-(J5-Pin_7)*%
X70055786Y-91430786D03*
%TO.P,J46,6,Pin_6*%
%TO.N,Net-(J5-Pin_6)*%
X67515786Y-91430786D03*
%TO.P,J46,5,Pin_5*%
%TO.N,Net-(J5-Pin_5)*%
X64975786Y-91430786D03*
%TO.P,J46,4,Pin_4*%
%TO.N,Net-(J5-Pin_4)*%
X62435786Y-91430786D03*
%TO.P,J46,3,Pin_3*%
%TO.N,Net-(J5-Pin_3)*%
X59895786Y-91430786D03*
%TO.P,J46,2,Pin_2*%
%TO.N,Net-(J5-Pin_2)*%
X57355786Y-91430786D03*
D11*
%TO.P,J46,1,Pin_1*%
%TO.N,Net-(J5-Pin_1)*%
X54815786Y-91430786D03*
%TD*%
D10*
%TO.P,J45,8,Pin_8*%
%TO.N,Net-(J5-Pin_8)*%
X125645786Y-94975786D03*
%TO.P,J45,7,Pin_7*%
%TO.N,Net-(J5-Pin_7)*%
X123105786Y-94975786D03*
%TO.P,J45,6,Pin_6*%
%TO.N,Net-(J5-Pin_6)*%
X120565786Y-94975786D03*
%TO.P,J45,5,Pin_5*%
%TO.N,Net-(J5-Pin_5)*%
X118025786Y-94975786D03*
%TO.P,J45,4,Pin_4*%
%TO.N,Net-(J5-Pin_4)*%
X115485786Y-94975786D03*
%TO.P,J45,3,Pin_3*%
%TO.N,Net-(J5-Pin_3)*%
X112945786Y-94975786D03*
%TO.P,J45,2,Pin_2*%
%TO.N,Net-(J5-Pin_2)*%
X110405786Y-94975786D03*
D11*
%TO.P,J45,1,Pin_1*%
%TO.N,Net-(J5-Pin_1)*%
X107865786Y-94975786D03*
%TD*%
D10*
%TO.P,J43,8,Pin_8*%
%TO.N,Net-(J5-Pin_8)*%
X72600786Y-95005786D03*
%TO.P,J43,7,Pin_7*%
%TO.N,Net-(J5-Pin_7)*%
X70060786Y-95005786D03*
%TO.P,J43,6,Pin_6*%
%TO.N,Net-(J5-Pin_6)*%
X67520786Y-95005786D03*
%TO.P,J43,5,Pin_5*%
%TO.N,Net-(J5-Pin_5)*%
X64980786Y-95005786D03*
%TO.P,J43,4,Pin_4*%
%TO.N,Net-(J5-Pin_4)*%
X62440786Y-95005786D03*
%TO.P,J43,3,Pin_3*%
%TO.N,Net-(J5-Pin_3)*%
X59900786Y-95005786D03*
%TO.P,J43,2,Pin_2*%
%TO.N,Net-(J5-Pin_2)*%
X57360786Y-95005786D03*
D11*
%TO.P,J43,1,Pin_1*%
%TO.N,Net-(J5-Pin_1)*%
X54820786Y-95005786D03*
%TD*%
D10*
%TO.P,J44,8,Pin_8*%
%TO.N,Net-(J5-Pin_8)*%
X99150786Y-95005786D03*
%TO.P,J44,7,Pin_7*%
%TO.N,Net-(J5-Pin_7)*%
X96610786Y-95005786D03*
%TO.P,J44,6,Pin_6*%
%TO.N,Net-(J5-Pin_6)*%
X94070786Y-95005786D03*
%TO.P,J44,5,Pin_5*%
%TO.N,Net-(J5-Pin_5)*%
X91530786Y-95005786D03*
%TO.P,J44,4,Pin_4*%
%TO.N,Net-(J5-Pin_4)*%
X88990786Y-95005786D03*
%TO.P,J44,3,Pin_3*%
%TO.N,Net-(J5-Pin_3)*%
X86450786Y-95005786D03*
%TO.P,J44,2,Pin_2*%
%TO.N,Net-(J5-Pin_2)*%
X83910786Y-95005786D03*
D11*
%TO.P,J44,1,Pin_1*%
%TO.N,Net-(J5-Pin_1)*%
X81370786Y-95005786D03*
%TD*%
D10*
%TO.P,J47,8,Pin_8*%
%TO.N,Net-(J5-Pin_8)*%
X99145786Y-91430786D03*
%TO.P,J47,7,Pin_7*%
%TO.N,Net-(J5-Pin_7)*%
X96605786Y-91430786D03*
%TO.P,J47,6,Pin_6*%
%TO.N,Net-(J5-Pin_6)*%
X94065786Y-91430786D03*
%TO.P,J47,5,Pin_5*%
%TO.N,Net-(J5-Pin_5)*%
X91525786Y-91430786D03*
%TO.P,J47,4,Pin_4*%
%TO.N,Net-(J5-Pin_4)*%
X88985786Y-91430786D03*
%TO.P,J47,3,Pin_3*%
%TO.N,Net-(J5-Pin_3)*%
X86445786Y-91430786D03*
%TO.P,J47,2,Pin_2*%
%TO.N,Net-(J5-Pin_2)*%
X83905786Y-91430786D03*
D11*
%TO.P,J47,1,Pin_1*%
%TO.N,Net-(J5-Pin_1)*%
X81365786Y-91430786D03*
%TD*%
D10*
%TO.P,J42,8,Pin_8*%
%TO.N,Net-(J5-Pin_8)*%
X125640786Y-78860786D03*
%TO.P,J42,7,Pin_7*%
%TO.N,Net-(J5-Pin_7)*%
X123100786Y-78860786D03*
%TO.P,J42,6,Pin_6*%
%TO.N,Net-(J5-Pin_6)*%
X120560786Y-78860786D03*
%TO.P,J42,5,Pin_5*%
%TO.N,Net-(J5-Pin_5)*%
X118020786Y-78860786D03*
%TO.P,J42,4,Pin_4*%
%TO.N,Net-(J5-Pin_4)*%
X115480786Y-78860786D03*
%TO.P,J42,3,Pin_3*%
%TO.N,Net-(J5-Pin_3)*%
X112940786Y-78860786D03*
%TO.P,J42,2,Pin_2*%
%TO.N,Net-(J5-Pin_2)*%
X110400786Y-78860786D03*
D11*
%TO.P,J42,1,Pin_1*%
%TO.N,Net-(J5-Pin_1)*%
X107860786Y-78860786D03*
%TD*%
D10*
%TO.P,J40,8,Pin_8*%
%TO.N,Net-(J5-Pin_8)*%
X72595786Y-78890786D03*
%TO.P,J40,7,Pin_7*%
%TO.N,Net-(J5-Pin_7)*%
X70055786Y-78890786D03*
%TO.P,J40,6,Pin_6*%
%TO.N,Net-(J5-Pin_6)*%
X67515786Y-78890786D03*
%TO.P,J40,5,Pin_5*%
%TO.N,Net-(J5-Pin_5)*%
X64975786Y-78890786D03*
%TO.P,J40,4,Pin_4*%
%TO.N,Net-(J5-Pin_4)*%
X62435786Y-78890786D03*
%TO.P,J40,3,Pin_3*%
%TO.N,Net-(J5-Pin_3)*%
X59895786Y-78890786D03*
%TO.P,J40,2,Pin_2*%
%TO.N,Net-(J5-Pin_2)*%
X57355786Y-78890786D03*
D11*
%TO.P,J40,1,Pin_1*%
%TO.N,Net-(J5-Pin_1)*%
X54815786Y-78890786D03*
%TD*%
D10*
%TO.P,J39,8,Pin_8*%
%TO.N,Net-(J5-Pin_8)*%
X125645786Y-82435786D03*
%TO.P,J39,7,Pin_7*%
%TO.N,Net-(J5-Pin_7)*%
X123105786Y-82435786D03*
%TO.P,J39,6,Pin_6*%
%TO.N,Net-(J5-Pin_6)*%
X120565786Y-82435786D03*
%TO.P,J39,5,Pin_5*%
%TO.N,Net-(J5-Pin_5)*%
X118025786Y-82435786D03*
%TO.P,J39,4,Pin_4*%
%TO.N,Net-(J5-Pin_4)*%
X115485786Y-82435786D03*
%TO.P,J39,3,Pin_3*%
%TO.N,Net-(J5-Pin_3)*%
X112945786Y-82435786D03*
%TO.P,J39,2,Pin_2*%
%TO.N,Net-(J5-Pin_2)*%
X110405786Y-82435786D03*
D11*
%TO.P,J39,1,Pin_1*%
%TO.N,Net-(J5-Pin_1)*%
X107865786Y-82435786D03*
%TD*%
D10*
%TO.P,J37,8,Pin_8*%
%TO.N,Net-(J5-Pin_8)*%
X72600786Y-82465786D03*
%TO.P,J37,7,Pin_7*%
%TO.N,Net-(J5-Pin_7)*%
X70060786Y-82465786D03*
%TO.P,J37,6,Pin_6*%
%TO.N,Net-(J5-Pin_6)*%
X67520786Y-82465786D03*
%TO.P,J37,5,Pin_5*%
%TO.N,Net-(J5-Pin_5)*%
X64980786Y-82465786D03*
%TO.P,J37,4,Pin_4*%
%TO.N,Net-(J5-Pin_4)*%
X62440786Y-82465786D03*
%TO.P,J37,3,Pin_3*%
%TO.N,Net-(J5-Pin_3)*%
X59900786Y-82465786D03*
%TO.P,J37,2,Pin_2*%
%TO.N,Net-(J5-Pin_2)*%
X57360786Y-82465786D03*
D11*
%TO.P,J37,1,Pin_1*%
%TO.N,Net-(J5-Pin_1)*%
X54820786Y-82465786D03*
%TD*%
D10*
%TO.P,J38,8,Pin_8*%
%TO.N,Net-(J5-Pin_8)*%
X99150786Y-82465786D03*
%TO.P,J38,7,Pin_7*%
%TO.N,Net-(J5-Pin_7)*%
X96610786Y-82465786D03*
%TO.P,J38,6,Pin_6*%
%TO.N,Net-(J5-Pin_6)*%
X94070786Y-82465786D03*
%TO.P,J38,5,Pin_5*%
%TO.N,Net-(J5-Pin_5)*%
X91530786Y-82465786D03*
%TO.P,J38,4,Pin_4*%
%TO.N,Net-(J5-Pin_4)*%
X88990786Y-82465786D03*
%TO.P,J38,3,Pin_3*%
%TO.N,Net-(J5-Pin_3)*%
X86450786Y-82465786D03*
%TO.P,J38,2,Pin_2*%
%TO.N,Net-(J5-Pin_2)*%
X83910786Y-82465786D03*
D11*
%TO.P,J38,1,Pin_1*%
%TO.N,Net-(J5-Pin_1)*%
X81370786Y-82465786D03*
%TD*%
D10*
%TO.P,J41,8,Pin_8*%
%TO.N,Net-(J5-Pin_8)*%
X99145786Y-78890786D03*
%TO.P,J41,7,Pin_7*%
%TO.N,Net-(J5-Pin_7)*%
X96605786Y-78890786D03*
%TO.P,J41,6,Pin_6*%
%TO.N,Net-(J5-Pin_6)*%
X94065786Y-78890786D03*
%TO.P,J41,5,Pin_5*%
%TO.N,Net-(J5-Pin_5)*%
X91525786Y-78890786D03*
%TO.P,J41,4,Pin_4*%
%TO.N,Net-(J5-Pin_4)*%
X88985786Y-78890786D03*
%TO.P,J41,3,Pin_3*%
%TO.N,Net-(J5-Pin_3)*%
X86445786Y-78890786D03*
%TO.P,J41,2,Pin_2*%
%TO.N,Net-(J5-Pin_2)*%
X83905786Y-78890786D03*
D11*
%TO.P,J41,1,Pin_1*%
%TO.N,Net-(J5-Pin_1)*%
X81365786Y-78890786D03*
%TD*%
D10*
%TO.P,J36,8,Pin_8*%
%TO.N,Net-(J5-Pin_8)*%
X125640786Y-66320786D03*
%TO.P,J36,7,Pin_7*%
%TO.N,Net-(J5-Pin_7)*%
X123100786Y-66320786D03*
%TO.P,J36,6,Pin_6*%
%TO.N,Net-(J5-Pin_6)*%
X120560786Y-66320786D03*
%TO.P,J36,5,Pin_5*%
%TO.N,Net-(J5-Pin_5)*%
X118020786Y-66320786D03*
%TO.P,J36,4,Pin_4*%
%TO.N,Net-(J5-Pin_4)*%
X115480786Y-66320786D03*
%TO.P,J36,3,Pin_3*%
%TO.N,Net-(J5-Pin_3)*%
X112940786Y-66320786D03*
%TO.P,J36,2,Pin_2*%
%TO.N,Net-(J5-Pin_2)*%
X110400786Y-66320786D03*
D11*
%TO.P,J36,1,Pin_1*%
%TO.N,Net-(J5-Pin_1)*%
X107860786Y-66320786D03*
%TD*%
D10*
%TO.P,J34,8,Pin_8*%
%TO.N,Net-(J5-Pin_8)*%
X72595786Y-66350786D03*
%TO.P,J34,7,Pin_7*%
%TO.N,Net-(J5-Pin_7)*%
X70055786Y-66350786D03*
%TO.P,J34,6,Pin_6*%
%TO.N,Net-(J5-Pin_6)*%
X67515786Y-66350786D03*
%TO.P,J34,5,Pin_5*%
%TO.N,Net-(J5-Pin_5)*%
X64975786Y-66350786D03*
%TO.P,J34,4,Pin_4*%
%TO.N,Net-(J5-Pin_4)*%
X62435786Y-66350786D03*
%TO.P,J34,3,Pin_3*%
%TO.N,Net-(J5-Pin_3)*%
X59895786Y-66350786D03*
%TO.P,J34,2,Pin_2*%
%TO.N,Net-(J5-Pin_2)*%
X57355786Y-66350786D03*
D11*
%TO.P,J34,1,Pin_1*%
%TO.N,Net-(J5-Pin_1)*%
X54815786Y-66350786D03*
%TD*%
D10*
%TO.P,J33,8,Pin_8*%
%TO.N,Net-(J5-Pin_8)*%
X125645786Y-69895786D03*
%TO.P,J33,7,Pin_7*%
%TO.N,Net-(J5-Pin_7)*%
X123105786Y-69895786D03*
%TO.P,J33,6,Pin_6*%
%TO.N,Net-(J5-Pin_6)*%
X120565786Y-69895786D03*
%TO.P,J33,5,Pin_5*%
%TO.N,Net-(J5-Pin_5)*%
X118025786Y-69895786D03*
%TO.P,J33,4,Pin_4*%
%TO.N,Net-(J5-Pin_4)*%
X115485786Y-69895786D03*
%TO.P,J33,3,Pin_3*%
%TO.N,Net-(J5-Pin_3)*%
X112945786Y-69895786D03*
%TO.P,J33,2,Pin_2*%
%TO.N,Net-(J5-Pin_2)*%
X110405786Y-69895786D03*
D11*
%TO.P,J33,1,Pin_1*%
%TO.N,Net-(J5-Pin_1)*%
X107865786Y-69895786D03*
%TD*%
D10*
%TO.P,J31,8,Pin_8*%
%TO.N,Net-(J5-Pin_8)*%
X72600786Y-69925786D03*
%TO.P,J31,7,Pin_7*%
%TO.N,Net-(J5-Pin_7)*%
X70060786Y-69925786D03*
%TO.P,J31,6,Pin_6*%
%TO.N,Net-(J5-Pin_6)*%
X67520786Y-69925786D03*
%TO.P,J31,5,Pin_5*%
%TO.N,Net-(J5-Pin_5)*%
X64980786Y-69925786D03*
%TO.P,J31,4,Pin_4*%
%TO.N,Net-(J5-Pin_4)*%
X62440786Y-69925786D03*
%TO.P,J31,3,Pin_3*%
%TO.N,Net-(J5-Pin_3)*%
X59900786Y-69925786D03*
%TO.P,J31,2,Pin_2*%
%TO.N,Net-(J5-Pin_2)*%
X57360786Y-69925786D03*
D11*
%TO.P,J31,1,Pin_1*%
%TO.N,Net-(J5-Pin_1)*%
X54820786Y-69925786D03*
%TD*%
D10*
%TO.P,J32,8,Pin_8*%
%TO.N,Net-(J5-Pin_8)*%
X99150786Y-69925786D03*
%TO.P,J32,7,Pin_7*%
%TO.N,Net-(J5-Pin_7)*%
X96610786Y-69925786D03*
%TO.P,J32,6,Pin_6*%
%TO.N,Net-(J5-Pin_6)*%
X94070786Y-69925786D03*
%TO.P,J32,5,Pin_5*%
%TO.N,Net-(J5-Pin_5)*%
X91530786Y-69925786D03*
%TO.P,J32,4,Pin_4*%
%TO.N,Net-(J5-Pin_4)*%
X88990786Y-69925786D03*
%TO.P,J32,3,Pin_3*%
%TO.N,Net-(J5-Pin_3)*%
X86450786Y-69925786D03*
%TO.P,J32,2,Pin_2*%
%TO.N,Net-(J5-Pin_2)*%
X83910786Y-69925786D03*
D11*
%TO.P,J32,1,Pin_1*%
%TO.N,Net-(J5-Pin_1)*%
X81370786Y-69925786D03*
%TD*%
D10*
%TO.P,J35,8,Pin_8*%
%TO.N,Net-(J5-Pin_8)*%
X99145786Y-66350786D03*
%TO.P,J35,7,Pin_7*%
%TO.N,Net-(J5-Pin_7)*%
X96605786Y-66350786D03*
%TO.P,J35,6,Pin_6*%
%TO.N,Net-(J5-Pin_6)*%
X94065786Y-66350786D03*
%TO.P,J35,5,Pin_5*%
%TO.N,Net-(J5-Pin_5)*%
X91525786Y-66350786D03*
%TO.P,J35,4,Pin_4*%
%TO.N,Net-(J5-Pin_4)*%
X88985786Y-66350786D03*
%TO.P,J35,3,Pin_3*%
%TO.N,Net-(J5-Pin_3)*%
X86445786Y-66350786D03*
%TO.P,J35,2,Pin_2*%
%TO.N,Net-(J5-Pin_2)*%
X83905786Y-66350786D03*
D11*
%TO.P,J35,1,Pin_1*%
%TO.N,Net-(J5-Pin_1)*%
X81365786Y-66350786D03*
%TD*%
D10*
%TO.P,J30,8,Pin_8*%
%TO.N,Net-(J5-Pin_8)*%
X125640786Y-53780786D03*
%TO.P,J30,7,Pin_7*%
%TO.N,Net-(J5-Pin_7)*%
X123100786Y-53780786D03*
%TO.P,J30,6,Pin_6*%
%TO.N,Net-(J5-Pin_6)*%
X120560786Y-53780786D03*
%TO.P,J30,5,Pin_5*%
%TO.N,Net-(J5-Pin_5)*%
X118020786Y-53780786D03*
%TO.P,J30,4,Pin_4*%
%TO.N,Net-(J5-Pin_4)*%
X115480786Y-53780786D03*
%TO.P,J30,3,Pin_3*%
%TO.N,Net-(J5-Pin_3)*%
X112940786Y-53780786D03*
%TO.P,J30,2,Pin_2*%
%TO.N,Net-(J5-Pin_2)*%
X110400786Y-53780786D03*
D11*
%TO.P,J30,1,Pin_1*%
%TO.N,Net-(J5-Pin_1)*%
X107860786Y-53780786D03*
%TD*%
D10*
%TO.P,J28,8,Pin_8*%
%TO.N,Net-(J5-Pin_8)*%
X72595786Y-53810786D03*
%TO.P,J28,7,Pin_7*%
%TO.N,Net-(J5-Pin_7)*%
X70055786Y-53810786D03*
%TO.P,J28,6,Pin_6*%
%TO.N,Net-(J5-Pin_6)*%
X67515786Y-53810786D03*
%TO.P,J28,5,Pin_5*%
%TO.N,Net-(J5-Pin_5)*%
X64975786Y-53810786D03*
%TO.P,J28,4,Pin_4*%
%TO.N,Net-(J5-Pin_4)*%
X62435786Y-53810786D03*
%TO.P,J28,3,Pin_3*%
%TO.N,Net-(J5-Pin_3)*%
X59895786Y-53810786D03*
%TO.P,J28,2,Pin_2*%
%TO.N,Net-(J5-Pin_2)*%
X57355786Y-53810786D03*
D11*
%TO.P,J28,1,Pin_1*%
%TO.N,Net-(J5-Pin_1)*%
X54815786Y-53810786D03*
%TD*%
D10*
%TO.P,J27,8,Pin_8*%
%TO.N,Net-(J5-Pin_8)*%
X125645786Y-57355786D03*
%TO.P,J27,7,Pin_7*%
%TO.N,Net-(J5-Pin_7)*%
X123105786Y-57355786D03*
%TO.P,J27,6,Pin_6*%
%TO.N,Net-(J5-Pin_6)*%
X120565786Y-57355786D03*
%TO.P,J27,5,Pin_5*%
%TO.N,Net-(J5-Pin_5)*%
X118025786Y-57355786D03*
%TO.P,J27,4,Pin_4*%
%TO.N,Net-(J5-Pin_4)*%
X115485786Y-57355786D03*
%TO.P,J27,3,Pin_3*%
%TO.N,Net-(J5-Pin_3)*%
X112945786Y-57355786D03*
%TO.P,J27,2,Pin_2*%
%TO.N,Net-(J5-Pin_2)*%
X110405786Y-57355786D03*
D11*
%TO.P,J27,1,Pin_1*%
%TO.N,Net-(J5-Pin_1)*%
X107865786Y-57355786D03*
%TD*%
D10*
%TO.P,J25,8,Pin_8*%
%TO.N,Net-(J5-Pin_8)*%
X72600786Y-57385786D03*
%TO.P,J25,7,Pin_7*%
%TO.N,Net-(J5-Pin_7)*%
X70060786Y-57385786D03*
%TO.P,J25,6,Pin_6*%
%TO.N,Net-(J5-Pin_6)*%
X67520786Y-57385786D03*
%TO.P,J25,5,Pin_5*%
%TO.N,Net-(J5-Pin_5)*%
X64980786Y-57385786D03*
%TO.P,J25,4,Pin_4*%
%TO.N,Net-(J5-Pin_4)*%
X62440786Y-57385786D03*
%TO.P,J25,3,Pin_3*%
%TO.N,Net-(J5-Pin_3)*%
X59900786Y-57385786D03*
%TO.P,J25,2,Pin_2*%
%TO.N,Net-(J5-Pin_2)*%
X57360786Y-57385786D03*
D11*
%TO.P,J25,1,Pin_1*%
%TO.N,Net-(J5-Pin_1)*%
X54820786Y-57385786D03*
%TD*%
D10*
%TO.P,J26,8,Pin_8*%
%TO.N,Net-(J5-Pin_8)*%
X99150786Y-57385786D03*
%TO.P,J26,7,Pin_7*%
%TO.N,Net-(J5-Pin_7)*%
X96610786Y-57385786D03*
%TO.P,J26,6,Pin_6*%
%TO.N,Net-(J5-Pin_6)*%
X94070786Y-57385786D03*
%TO.P,J26,5,Pin_5*%
%TO.N,Net-(J5-Pin_5)*%
X91530786Y-57385786D03*
%TO.P,J26,4,Pin_4*%
%TO.N,Net-(J5-Pin_4)*%
X88990786Y-57385786D03*
%TO.P,J26,3,Pin_3*%
%TO.N,Net-(J5-Pin_3)*%
X86450786Y-57385786D03*
%TO.P,J26,2,Pin_2*%
%TO.N,Net-(J5-Pin_2)*%
X83910786Y-57385786D03*
D11*
%TO.P,J26,1,Pin_1*%
%TO.N,Net-(J5-Pin_1)*%
X81370786Y-57385786D03*
%TD*%
D10*
%TO.P,J29,8,Pin_8*%
%TO.N,Net-(J5-Pin_8)*%
X99145786Y-53810786D03*
%TO.P,J29,7,Pin_7*%
%TO.N,Net-(J5-Pin_7)*%
X96605786Y-53810786D03*
%TO.P,J29,6,Pin_6*%
%TO.N,Net-(J5-Pin_6)*%
X94065786Y-53810786D03*
%TO.P,J29,5,Pin_5*%
%TO.N,Net-(J5-Pin_5)*%
X91525786Y-53810786D03*
%TO.P,J29,4,Pin_4*%
%TO.N,Net-(J5-Pin_4)*%
X88985786Y-53810786D03*
%TO.P,J29,3,Pin_3*%
%TO.N,Net-(J5-Pin_3)*%
X86445786Y-53810786D03*
%TO.P,J29,2,Pin_2*%
%TO.N,Net-(J5-Pin_2)*%
X83905786Y-53810786D03*
D11*
%TO.P,J29,1,Pin_1*%
%TO.N,Net-(J5-Pin_1)*%
X81365786Y-53810786D03*
%TD*%
D10*
%TO.P,J24,8,Pin_8*%
%TO.N,Net-(J5-Pin_8)*%
X125640786Y-41240786D03*
%TO.P,J24,7,Pin_7*%
%TO.N,Net-(J5-Pin_7)*%
X123100786Y-41240786D03*
%TO.P,J24,6,Pin_6*%
%TO.N,Net-(J5-Pin_6)*%
X120560786Y-41240786D03*
%TO.P,J24,5,Pin_5*%
%TO.N,Net-(J5-Pin_5)*%
X118020786Y-41240786D03*
%TO.P,J24,4,Pin_4*%
%TO.N,Net-(J5-Pin_4)*%
X115480786Y-41240786D03*
%TO.P,J24,3,Pin_3*%
%TO.N,Net-(J5-Pin_3)*%
X112940786Y-41240786D03*
%TO.P,J24,2,Pin_2*%
%TO.N,Net-(J5-Pin_2)*%
X110400786Y-41240786D03*
D11*
%TO.P,J24,1,Pin_1*%
%TO.N,Net-(J5-Pin_1)*%
X107860786Y-41240786D03*
%TD*%
D10*
%TO.P,J22,8,Pin_8*%
%TO.N,Net-(J5-Pin_8)*%
X72595786Y-41270786D03*
%TO.P,J22,7,Pin_7*%
%TO.N,Net-(J5-Pin_7)*%
X70055786Y-41270786D03*
%TO.P,J22,6,Pin_6*%
%TO.N,Net-(J5-Pin_6)*%
X67515786Y-41270786D03*
%TO.P,J22,5,Pin_5*%
%TO.N,Net-(J5-Pin_5)*%
X64975786Y-41270786D03*
%TO.P,J22,4,Pin_4*%
%TO.N,Net-(J5-Pin_4)*%
X62435786Y-41270786D03*
%TO.P,J22,3,Pin_3*%
%TO.N,Net-(J5-Pin_3)*%
X59895786Y-41270786D03*
%TO.P,J22,2,Pin_2*%
%TO.N,Net-(J5-Pin_2)*%
X57355786Y-41270786D03*
D11*
%TO.P,J22,1,Pin_1*%
%TO.N,Net-(J5-Pin_1)*%
X54815786Y-41270786D03*
%TD*%
D10*
%TO.P,J21,8,Pin_8*%
%TO.N,Net-(J5-Pin_8)*%
X125645786Y-44815786D03*
%TO.P,J21,7,Pin_7*%
%TO.N,Net-(J5-Pin_7)*%
X123105786Y-44815786D03*
%TO.P,J21,6,Pin_6*%
%TO.N,Net-(J5-Pin_6)*%
X120565786Y-44815786D03*
%TO.P,J21,5,Pin_5*%
%TO.N,Net-(J5-Pin_5)*%
X118025786Y-44815786D03*
%TO.P,J21,4,Pin_4*%
%TO.N,Net-(J5-Pin_4)*%
X115485786Y-44815786D03*
%TO.P,J21,3,Pin_3*%
%TO.N,Net-(J5-Pin_3)*%
X112945786Y-44815786D03*
%TO.P,J21,2,Pin_2*%
%TO.N,Net-(J5-Pin_2)*%
X110405786Y-44815786D03*
D11*
%TO.P,J21,1,Pin_1*%
%TO.N,Net-(J5-Pin_1)*%
X107865786Y-44815786D03*
%TD*%
D10*
%TO.P,J19,8,Pin_8*%
%TO.N,Net-(J5-Pin_8)*%
X72600786Y-44845786D03*
%TO.P,J19,7,Pin_7*%
%TO.N,Net-(J5-Pin_7)*%
X70060786Y-44845786D03*
%TO.P,J19,6,Pin_6*%
%TO.N,Net-(J5-Pin_6)*%
X67520786Y-44845786D03*
%TO.P,J19,5,Pin_5*%
%TO.N,Net-(J5-Pin_5)*%
X64980786Y-44845786D03*
%TO.P,J19,4,Pin_4*%
%TO.N,Net-(J5-Pin_4)*%
X62440786Y-44845786D03*
%TO.P,J19,3,Pin_3*%
%TO.N,Net-(J5-Pin_3)*%
X59900786Y-44845786D03*
%TO.P,J19,2,Pin_2*%
%TO.N,Net-(J5-Pin_2)*%
X57360786Y-44845786D03*
D11*
%TO.P,J19,1,Pin_1*%
%TO.N,Net-(J5-Pin_1)*%
X54820786Y-44845786D03*
%TD*%
D10*
%TO.P,J20,8,Pin_8*%
%TO.N,Net-(J5-Pin_8)*%
X99150786Y-44845786D03*
%TO.P,J20,7,Pin_7*%
%TO.N,Net-(J5-Pin_7)*%
X96610786Y-44845786D03*
%TO.P,J20,6,Pin_6*%
%TO.N,Net-(J5-Pin_6)*%
X94070786Y-44845786D03*
%TO.P,J20,5,Pin_5*%
%TO.N,Net-(J5-Pin_5)*%
X91530786Y-44845786D03*
%TO.P,J20,4,Pin_4*%
%TO.N,Net-(J5-Pin_4)*%
X88990786Y-44845786D03*
%TO.P,J20,3,Pin_3*%
%TO.N,Net-(J5-Pin_3)*%
X86450786Y-44845786D03*
%TO.P,J20,2,Pin_2*%
%TO.N,Net-(J5-Pin_2)*%
X83910786Y-44845786D03*
D11*
%TO.P,J20,1,Pin_1*%
%TO.N,Net-(J5-Pin_1)*%
X81370786Y-44845786D03*
%TD*%
D10*
%TO.P,J23,8,Pin_8*%
%TO.N,Net-(J5-Pin_8)*%
X99145786Y-41270786D03*
%TO.P,J23,7,Pin_7*%
%TO.N,Net-(J5-Pin_7)*%
X96605786Y-41270786D03*
%TO.P,J23,6,Pin_6*%
%TO.N,Net-(J5-Pin_6)*%
X94065786Y-41270786D03*
%TO.P,J23,5,Pin_5*%
%TO.N,Net-(J5-Pin_5)*%
X91525786Y-41270786D03*
%TO.P,J23,4,Pin_4*%
%TO.N,Net-(J5-Pin_4)*%
X88985786Y-41270786D03*
%TO.P,J23,3,Pin_3*%
%TO.N,Net-(J5-Pin_3)*%
X86445786Y-41270786D03*
%TO.P,J23,2,Pin_2*%
%TO.N,Net-(J5-Pin_2)*%
X83905786Y-41270786D03*
D11*
%TO.P,J23,1,Pin_1*%
%TO.N,Net-(J5-Pin_1)*%
X81365786Y-41270786D03*
%TD*%
D10*
%TO.P,J18,8,Pin_8*%
%TO.N,Net-(J5-Pin_8)*%
X125640786Y-28700786D03*
%TO.P,J18,7,Pin_7*%
%TO.N,Net-(J5-Pin_7)*%
X123100786Y-28700786D03*
%TO.P,J18,6,Pin_6*%
%TO.N,Net-(J5-Pin_6)*%
X120560786Y-28700786D03*
%TO.P,J18,5,Pin_5*%
%TO.N,Net-(J5-Pin_5)*%
X118020786Y-28700786D03*
%TO.P,J18,4,Pin_4*%
%TO.N,Net-(J5-Pin_4)*%
X115480786Y-28700786D03*
%TO.P,J18,3,Pin_3*%
%TO.N,Net-(J5-Pin_3)*%
X112940786Y-28700786D03*
%TO.P,J18,2,Pin_2*%
%TO.N,Net-(J5-Pin_2)*%
X110400786Y-28700786D03*
D11*
%TO.P,J18,1,Pin_1*%
%TO.N,Net-(J5-Pin_1)*%
X107860786Y-28700786D03*
%TD*%
D10*
%TO.P,J16,8,Pin_8*%
%TO.N,Net-(J5-Pin_8)*%
X72595786Y-28730786D03*
%TO.P,J16,7,Pin_7*%
%TO.N,Net-(J5-Pin_7)*%
X70055786Y-28730786D03*
%TO.P,J16,6,Pin_6*%
%TO.N,Net-(J5-Pin_6)*%
X67515786Y-28730786D03*
%TO.P,J16,5,Pin_5*%
%TO.N,Net-(J5-Pin_5)*%
X64975786Y-28730786D03*
%TO.P,J16,4,Pin_4*%
%TO.N,Net-(J5-Pin_4)*%
X62435786Y-28730786D03*
%TO.P,J16,3,Pin_3*%
%TO.N,Net-(J5-Pin_3)*%
X59895786Y-28730786D03*
%TO.P,J16,2,Pin_2*%
%TO.N,Net-(J5-Pin_2)*%
X57355786Y-28730786D03*
D11*
%TO.P,J16,1,Pin_1*%
%TO.N,Net-(J5-Pin_1)*%
X54815786Y-28730786D03*
%TD*%
D10*
%TO.P,J15,8,Pin_8*%
%TO.N,Net-(J5-Pin_8)*%
X125645786Y-32275786D03*
%TO.P,J15,7,Pin_7*%
%TO.N,Net-(J5-Pin_7)*%
X123105786Y-32275786D03*
%TO.P,J15,6,Pin_6*%
%TO.N,Net-(J5-Pin_6)*%
X120565786Y-32275786D03*
%TO.P,J15,5,Pin_5*%
%TO.N,Net-(J5-Pin_5)*%
X118025786Y-32275786D03*
%TO.P,J15,4,Pin_4*%
%TO.N,Net-(J5-Pin_4)*%
X115485786Y-32275786D03*
%TO.P,J15,3,Pin_3*%
%TO.N,Net-(J5-Pin_3)*%
X112945786Y-32275786D03*
%TO.P,J15,2,Pin_2*%
%TO.N,Net-(J5-Pin_2)*%
X110405786Y-32275786D03*
D11*
%TO.P,J15,1,Pin_1*%
%TO.N,Net-(J5-Pin_1)*%
X107865786Y-32275786D03*
%TD*%
D10*
%TO.P,J13,8,Pin_8*%
%TO.N,Net-(J5-Pin_8)*%
X72600786Y-32305786D03*
%TO.P,J13,7,Pin_7*%
%TO.N,Net-(J5-Pin_7)*%
X70060786Y-32305786D03*
%TO.P,J13,6,Pin_6*%
%TO.N,Net-(J5-Pin_6)*%
X67520786Y-32305786D03*
%TO.P,J13,5,Pin_5*%
%TO.N,Net-(J5-Pin_5)*%
X64980786Y-32305786D03*
%TO.P,J13,4,Pin_4*%
%TO.N,Net-(J5-Pin_4)*%
X62440786Y-32305786D03*
%TO.P,J13,3,Pin_3*%
%TO.N,Net-(J5-Pin_3)*%
X59900786Y-32305786D03*
%TO.P,J13,2,Pin_2*%
%TO.N,Net-(J5-Pin_2)*%
X57360786Y-32305786D03*
D11*
%TO.P,J13,1,Pin_1*%
%TO.N,Net-(J5-Pin_1)*%
X54820786Y-32305786D03*
%TD*%
D10*
%TO.P,J14,8,Pin_8*%
%TO.N,Net-(J5-Pin_8)*%
X99150786Y-32305786D03*
%TO.P,J14,7,Pin_7*%
%TO.N,Net-(J5-Pin_7)*%
X96610786Y-32305786D03*
%TO.P,J14,6,Pin_6*%
%TO.N,Net-(J5-Pin_6)*%
X94070786Y-32305786D03*
%TO.P,J14,5,Pin_5*%
%TO.N,Net-(J5-Pin_5)*%
X91530786Y-32305786D03*
%TO.P,J14,4,Pin_4*%
%TO.N,Net-(J5-Pin_4)*%
X88990786Y-32305786D03*
%TO.P,J14,3,Pin_3*%
%TO.N,Net-(J5-Pin_3)*%
X86450786Y-32305786D03*
%TO.P,J14,2,Pin_2*%
%TO.N,Net-(J5-Pin_2)*%
X83910786Y-32305786D03*
D11*
%TO.P,J14,1,Pin_1*%
%TO.N,Net-(J5-Pin_1)*%
X81370786Y-32305786D03*
%TD*%
D10*
%TO.P,J17,8,Pin_8*%
%TO.N,Net-(J5-Pin_8)*%
X99145786Y-28730786D03*
%TO.P,J17,7,Pin_7*%
%TO.N,Net-(J5-Pin_7)*%
X96605786Y-28730786D03*
%TO.P,J17,6,Pin_6*%
%TO.N,Net-(J5-Pin_6)*%
X94065786Y-28730786D03*
%TO.P,J17,5,Pin_5*%
%TO.N,Net-(J5-Pin_5)*%
X91525786Y-28730786D03*
%TO.P,J17,4,Pin_4*%
%TO.N,Net-(J5-Pin_4)*%
X88985786Y-28730786D03*
%TO.P,J17,3,Pin_3*%
%TO.N,Net-(J5-Pin_3)*%
X86445786Y-28730786D03*
%TO.P,J17,2,Pin_2*%
%TO.N,Net-(J5-Pin_2)*%
X83905786Y-28730786D03*
D11*
%TO.P,J17,1,Pin_1*%
%TO.N,Net-(J5-Pin_1)*%
X81365786Y-28730786D03*
%TD*%
D10*
%TO.P,J11,8,Pin_8*%
%TO.N,Net-(J5-Pin_8)*%
X99145786Y-103970786D03*
%TO.P,J11,7,Pin_7*%
%TO.N,Net-(J5-Pin_7)*%
X96605786Y-103970786D03*
%TO.P,J11,6,Pin_6*%
%TO.N,Net-(J5-Pin_6)*%
X94065786Y-103970786D03*
%TO.P,J11,5,Pin_5*%
%TO.N,Net-(J5-Pin_5)*%
X91525786Y-103970786D03*
%TO.P,J11,4,Pin_4*%
%TO.N,Net-(J5-Pin_4)*%
X88985786Y-103970786D03*
%TO.P,J11,3,Pin_3*%
%TO.N,Net-(J5-Pin_3)*%
X86445786Y-103970786D03*
%TO.P,J11,2,Pin_2*%
%TO.N,Net-(J5-Pin_2)*%
X83905786Y-103970786D03*
D11*
%TO.P,J11,1,Pin_1*%
%TO.N,Net-(J5-Pin_1)*%
X81365786Y-103970786D03*
%TD*%
D10*
%TO.P,J8,8,Pin_8*%
%TO.N,Net-(J5-Pin_8)*%
X99150786Y-107545786D03*
%TO.P,J8,7,Pin_7*%
%TO.N,Net-(J5-Pin_7)*%
X96610786Y-107545786D03*
%TO.P,J8,6,Pin_6*%
%TO.N,Net-(J5-Pin_6)*%
X94070786Y-107545786D03*
%TO.P,J8,5,Pin_5*%
%TO.N,Net-(J5-Pin_5)*%
X91530786Y-107545786D03*
%TO.P,J8,4,Pin_4*%
%TO.N,Net-(J5-Pin_4)*%
X88990786Y-107545786D03*
%TO.P,J8,3,Pin_3*%
%TO.N,Net-(J5-Pin_3)*%
X86450786Y-107545786D03*
%TO.P,J8,2,Pin_2*%
%TO.N,Net-(J5-Pin_2)*%
X83910786Y-107545786D03*
D11*
%TO.P,J8,1,Pin_1*%
%TO.N,Net-(J5-Pin_1)*%
X81370786Y-107545786D03*
%TD*%
D10*
%TO.P,J7,8,Pin_8*%
%TO.N,Net-(J5-Pin_8)*%
X72600786Y-107545786D03*
%TO.P,J7,7,Pin_7*%
%TO.N,Net-(J5-Pin_7)*%
X70060786Y-107545786D03*
%TO.P,J7,6,Pin_6*%
%TO.N,Net-(J5-Pin_6)*%
X67520786Y-107545786D03*
%TO.P,J7,5,Pin_5*%
%TO.N,Net-(J5-Pin_5)*%
X64980786Y-107545786D03*
%TO.P,J7,4,Pin_4*%
%TO.N,Net-(J5-Pin_4)*%
X62440786Y-107545786D03*
%TO.P,J7,3,Pin_3*%
%TO.N,Net-(J5-Pin_3)*%
X59900786Y-107545786D03*
%TO.P,J7,2,Pin_2*%
%TO.N,Net-(J5-Pin_2)*%
X57360786Y-107545786D03*
D11*
%TO.P,J7,1,Pin_1*%
%TO.N,Net-(J5-Pin_1)*%
X54820786Y-107545786D03*
%TD*%
D10*
%TO.P,J9,8,Pin_8*%
%TO.N,Net-(J5-Pin_8)*%
X125645786Y-107515786D03*
%TO.P,J9,7,Pin_7*%
%TO.N,Net-(J5-Pin_7)*%
X123105786Y-107515786D03*
%TO.P,J9,6,Pin_6*%
%TO.N,Net-(J5-Pin_6)*%
X120565786Y-107515786D03*
%TO.P,J9,5,Pin_5*%
%TO.N,Net-(J5-Pin_5)*%
X118025786Y-107515786D03*
%TO.P,J9,4,Pin_4*%
%TO.N,Net-(J5-Pin_4)*%
X115485786Y-107515786D03*
%TO.P,J9,3,Pin_3*%
%TO.N,Net-(J5-Pin_3)*%
X112945786Y-107515786D03*
%TO.P,J9,2,Pin_2*%
%TO.N,Net-(J5-Pin_2)*%
X110405786Y-107515786D03*
D11*
%TO.P,J9,1,Pin_1*%
%TO.N,Net-(J5-Pin_1)*%
X107865786Y-107515786D03*
%TD*%
D10*
%TO.P,J10,8,Pin_8*%
%TO.N,Net-(J5-Pin_8)*%
X72595786Y-103970786D03*
%TO.P,J10,7,Pin_7*%
%TO.N,Net-(J5-Pin_7)*%
X70055786Y-103970786D03*
%TO.P,J10,6,Pin_6*%
%TO.N,Net-(J5-Pin_6)*%
X67515786Y-103970786D03*
%TO.P,J10,5,Pin_5*%
%TO.N,Net-(J5-Pin_5)*%
X64975786Y-103970786D03*
%TO.P,J10,4,Pin_4*%
%TO.N,Net-(J5-Pin_4)*%
X62435786Y-103970786D03*
%TO.P,J10,3,Pin_3*%
%TO.N,Net-(J5-Pin_3)*%
X59895786Y-103970786D03*
%TO.P,J10,2,Pin_2*%
%TO.N,Net-(J5-Pin_2)*%
X57355786Y-103970786D03*
D11*
%TO.P,J10,1,Pin_1*%
%TO.N,Net-(J5-Pin_1)*%
X54815786Y-103970786D03*
%TD*%
D10*
%TO.P,J12,8,Pin_8*%
%TO.N,Net-(J5-Pin_8)*%
X125640786Y-103940786D03*
%TO.P,J12,7,Pin_7*%
%TO.N,Net-(J5-Pin_7)*%
X123100786Y-103940786D03*
%TO.P,J12,6,Pin_6*%
%TO.N,Net-(J5-Pin_6)*%
X120560786Y-103940786D03*
%TO.P,J12,5,Pin_5*%
%TO.N,Net-(J5-Pin_5)*%
X118020786Y-103940786D03*
%TO.P,J12,4,Pin_4*%
%TO.N,Net-(J5-Pin_4)*%
X115480786Y-103940786D03*
%TO.P,J12,3,Pin_3*%
%TO.N,Net-(J5-Pin_3)*%
X112940786Y-103940786D03*
%TO.P,J12,2,Pin_2*%
%TO.N,Net-(J5-Pin_2)*%
X110400786Y-103940786D03*
D11*
%TO.P,J12,1,Pin_1*%
%TO.N,Net-(J5-Pin_1)*%
X107860786Y-103940786D03*
%TD*%
%TO.P,J6,1,Pin_1*%
%TO.N,Net-(J5-Pin_1)*%
X107860786Y-116480786D03*
D10*
%TO.P,J6,2,Pin_2*%
%TO.N,Net-(J5-Pin_2)*%
X110400786Y-116480786D03*
%TO.P,J6,3,Pin_3*%
%TO.N,Net-(J5-Pin_3)*%
X112940786Y-116480786D03*
%TO.P,J6,4,Pin_4*%
%TO.N,Net-(J5-Pin_4)*%
X115480786Y-116480786D03*
%TO.P,J6,5,Pin_5*%
%TO.N,Net-(J5-Pin_5)*%
X118020786Y-116480786D03*
%TO.P,J6,6,Pin_6*%
%TO.N,Net-(J5-Pin_6)*%
X120560786Y-116480786D03*
%TO.P,J6,7,Pin_7*%
%TO.N,Net-(J5-Pin_7)*%
X123100786Y-116480786D03*
%TO.P,J6,8,Pin_8*%
%TO.N,Net-(J5-Pin_8)*%
X125640786Y-116480786D03*
%TD*%
D11*
%TO.P,J5,1,Pin_1*%
%TO.N,Net-(J5-Pin_1)*%
X54820786Y-120085786D03*
D10*
%TO.P,J5,2,Pin_2*%
%TO.N,Net-(J5-Pin_2)*%
X57360786Y-120085786D03*
%TO.P,J5,3,Pin_3*%
%TO.N,Net-(J5-Pin_3)*%
X59900786Y-120085786D03*
%TO.P,J5,4,Pin_4*%
%TO.N,Net-(J5-Pin_4)*%
X62440786Y-120085786D03*
%TO.P,J5,5,Pin_5*%
%TO.N,Net-(J5-Pin_5)*%
X64980786Y-120085786D03*
%TO.P,J5,6,Pin_6*%
%TO.N,Net-(J5-Pin_6)*%
X67520786Y-120085786D03*
%TO.P,J5,7,Pin_7*%
%TO.N,Net-(J5-Pin_7)*%
X70060786Y-120085786D03*
%TO.P,J5,8,Pin_8*%
%TO.N,Net-(J5-Pin_8)*%
X72600786Y-120085786D03*
%TD*%
D11*
%TO.P,J5,1,Pin_1*%
%TO.N,Net-(J5-Pin_1)*%
X107865786Y-120055786D03*
D10*
%TO.P,J5,2,Pin_2*%
%TO.N,Net-(J5-Pin_2)*%
X110405786Y-120055786D03*
%TO.P,J5,3,Pin_3*%
%TO.N,Net-(J5-Pin_3)*%
X112945786Y-120055786D03*
%TO.P,J5,4,Pin_4*%
%TO.N,Net-(J5-Pin_4)*%
X115485786Y-120055786D03*
%TO.P,J5,5,Pin_5*%
%TO.N,Net-(J5-Pin_5)*%
X118025786Y-120055786D03*
%TO.P,J5,6,Pin_6*%
%TO.N,Net-(J5-Pin_6)*%
X120565786Y-120055786D03*
%TO.P,J5,7,Pin_7*%
%TO.N,Net-(J5-Pin_7)*%
X123105786Y-120055786D03*
%TO.P,J5,8,Pin_8*%
%TO.N,Net-(J5-Pin_8)*%
X125645786Y-120055786D03*
%TD*%
D11*
%TO.P,J6,1,Pin_1*%
%TO.N,Net-(J5-Pin_1)*%
X54815786Y-116510786D03*
D10*
%TO.P,J6,2,Pin_2*%
%TO.N,Net-(J5-Pin_2)*%
X57355786Y-116510786D03*
%TO.P,J6,3,Pin_3*%
%TO.N,Net-(J5-Pin_3)*%
X59895786Y-116510786D03*
%TO.P,J6,4,Pin_4*%
%TO.N,Net-(J5-Pin_4)*%
X62435786Y-116510786D03*
%TO.P,J6,5,Pin_5*%
%TO.N,Net-(J5-Pin_5)*%
X64975786Y-116510786D03*
%TO.P,J6,6,Pin_6*%
%TO.N,Net-(J5-Pin_6)*%
X67515786Y-116510786D03*
%TO.P,J6,7,Pin_7*%
%TO.N,Net-(J5-Pin_7)*%
X70055786Y-116510786D03*
%TO.P,J6,8,Pin_8*%
%TO.N,Net-(J5-Pin_8)*%
X72595786Y-116510786D03*
%TD*%
D11*
%TO.P,J5,1,Pin_1*%
%TO.N,Net-(J5-Pin_1)*%
X81370786Y-120085786D03*
D10*
%TO.P,J5,2,Pin_2*%
%TO.N,Net-(J5-Pin_2)*%
X83910786Y-120085786D03*
%TO.P,J5,3,Pin_3*%
%TO.N,Net-(J5-Pin_3)*%
X86450786Y-120085786D03*
%TO.P,J5,4,Pin_4*%
%TO.N,Net-(J5-Pin_4)*%
X88990786Y-120085786D03*
%TO.P,J5,5,Pin_5*%
%TO.N,Net-(J5-Pin_5)*%
X91530786Y-120085786D03*
%TO.P,J5,6,Pin_6*%
%TO.N,Net-(J5-Pin_6)*%
X94070786Y-120085786D03*
%TO.P,J5,7,Pin_7*%
%TO.N,Net-(J5-Pin_7)*%
X96610786Y-120085786D03*
%TO.P,J5,8,Pin_8*%
%TO.N,Net-(J5-Pin_8)*%
X99150786Y-120085786D03*
%TD*%
D11*
%TO.P,J6,1,Pin_1*%
%TO.N,Net-(J5-Pin_1)*%
X81365786Y-116510786D03*
D10*
%TO.P,J6,2,Pin_2*%
%TO.N,Net-(J5-Pin_2)*%
X83905786Y-116510786D03*
%TO.P,J6,3,Pin_3*%
%TO.N,Net-(J5-Pin_3)*%
X86445786Y-116510786D03*
%TO.P,J6,4,Pin_4*%
%TO.N,Net-(J5-Pin_4)*%
X88985786Y-116510786D03*
%TO.P,J6,5,Pin_5*%
%TO.N,Net-(J5-Pin_5)*%
X91525786Y-116510786D03*
%TO.P,J6,6,Pin_6*%
%TO.N,Net-(J5-Pin_6)*%
X94065786Y-116510786D03*
%TO.P,J6,7,Pin_7*%
%TO.N,Net-(J5-Pin_7)*%
X96605786Y-116510786D03*
%TO.P,J6,8,Pin_8*%
%TO.N,Net-(J5-Pin_8)*%
X99145786Y-116510786D03*
%TD*%
D12*
%TO.N,Net-(J5-Pin_5)*%
X91530786Y-95005786D02*
X91530786Y-91435786D01*
%TO.N,Net-(J5-Pin_6)*%
X67520786Y-95005786D02*
X67520786Y-91435786D01*
%TO.N,Net-(J5-Pin_3)*%
X86450786Y-95005786D02*
X86450786Y-91435786D01*
%TO.N,Net-(J5-Pin_8)*%
X125640786Y-94970786D02*
X125645786Y-94975786D01*
%TO.N,Net-(J5-Pin_2)*%
X83910786Y-95005786D02*
X83910786Y-91435786D01*
%TO.N,Net-(J5-Pin_8)*%
X99145786Y-91430786D02*
X99145786Y-95000786D01*
%TO.N,Net-(J5-Pin_3)*%
X112945786Y-91405786D02*
X112940786Y-91400786D01*
X59900786Y-91435786D02*
X59895786Y-91430786D01*
%TO.N,Net-(J5-Pin_2)*%
X83910786Y-91435786D02*
X83905786Y-91430786D01*
%TO.N,Net-(J5-Pin_7)*%
X70060786Y-91435786D02*
X70055786Y-91430786D01*
%TO.N,Net-(J5-Pin_3)*%
X112945786Y-94975786D02*
X112945786Y-91405786D01*
%TO.N,Net-(J5-Pin_1)*%
X54820786Y-95005786D02*
X54820786Y-91435786D01*
%TO.N,Net-(J5-Pin_7)*%
X70060786Y-95005786D02*
X70060786Y-91435786D01*
%TO.N,Net-(J5-Pin_2)*%
X57360786Y-95005786D02*
X57360786Y-91435786D01*
%TO.N,Net-(J5-Pin_1)*%
X107865786Y-91405786D02*
X107860786Y-91400786D01*
%TO.N,Net-(J5-Pin_2)*%
X110405786Y-91405786D02*
X110400786Y-91400786D01*
X110405786Y-94975786D02*
X110405786Y-91405786D01*
X57360786Y-91435786D02*
X57355786Y-91430786D01*
%TO.N,Net-(J5-Pin_1)*%
X81370786Y-95005786D02*
X81370786Y-91435786D01*
%TO.N,Net-(J5-Pin_4)*%
X115485786Y-91405786D02*
X115480786Y-91400786D01*
%TO.N,Net-(J5-Pin_3)*%
X86450786Y-91435786D02*
X86445786Y-91430786D01*
%TO.N,Net-(J5-Pin_1)*%
X107865786Y-94975786D02*
X107865786Y-91405786D01*
X54820786Y-91435786D02*
X54815786Y-91430786D01*
%TO.N,Net-(J5-Pin_8)*%
X125640786Y-91400786D02*
X125640786Y-94970786D01*
%TO.N,Net-(J5-Pin_3)*%
X59900786Y-95005786D02*
X59900786Y-91435786D01*
%TO.N,Net-(J5-Pin_4)*%
X62440786Y-95005786D02*
X62440786Y-91435786D01*
%TO.N,Net-(J5-Pin_5)*%
X64980786Y-91435786D02*
X64975786Y-91430786D01*
%TO.N,Net-(J5-Pin_6)*%
X120565786Y-91405786D02*
X120560786Y-91400786D01*
%TO.N,Net-(J5-Pin_5)*%
X91530786Y-91435786D02*
X91525786Y-91430786D01*
%TO.N,Net-(J5-Pin_8)*%
X72595786Y-91430786D02*
X72595786Y-95000786D01*
%TO.N,Net-(J5-Pin_5)*%
X118025786Y-94975786D02*
X118025786Y-91405786D01*
%TO.N,Net-(J5-Pin_7)*%
X96610786Y-95005786D02*
X96610786Y-91435786D01*
%TO.N,Net-(J5-Pin_6)*%
X120565786Y-94975786D02*
X120565786Y-91405786D01*
%TO.N,Net-(J5-Pin_8)*%
X72595786Y-95000786D02*
X72600786Y-95005786D01*
%TO.N,Net-(J5-Pin_4)*%
X62440786Y-91435786D02*
X62435786Y-91430786D01*
%TO.N,Net-(J5-Pin_8)*%
X99145786Y-95000786D02*
X99150786Y-95005786D01*
%TO.N,Net-(J5-Pin_5)*%
X118025786Y-91405786D02*
X118020786Y-91400786D01*
%TO.N,Net-(J5-Pin_4)*%
X88990786Y-91435786D02*
X88985786Y-91430786D01*
X88990786Y-95005786D02*
X88990786Y-91435786D01*
%TO.N,Net-(J5-Pin_7)*%
X123105786Y-94975786D02*
X123105786Y-91405786D01*
%TO.N,Net-(J5-Pin_4)*%
X115485786Y-94975786D02*
X115485786Y-91405786D01*
%TO.N,Net-(J5-Pin_5)*%
X64980786Y-95005786D02*
X64980786Y-91435786D01*
%TO.N,Net-(J5-Pin_7)*%
X96610786Y-91435786D02*
X96605786Y-91430786D01*
X123105786Y-91405786D02*
X123100786Y-91400786D01*
%TO.N,Net-(J5-Pin_6)*%
X94070786Y-95005786D02*
X94070786Y-91435786D01*
X94070786Y-91435786D02*
X94065786Y-91430786D01*
%TO.N,Net-(J5-Pin_1)*%
X81370786Y-91435786D02*
X81365786Y-91430786D01*
%TO.N,Net-(J5-Pin_6)*%
X67520786Y-91435786D02*
X67515786Y-91430786D01*
%TO.N,Net-(J5-Pin_5)*%
X91530786Y-82465786D02*
X91530786Y-78895786D01*
%TO.N,Net-(J5-Pin_6)*%
X67520786Y-82465786D02*
X67520786Y-78895786D01*
%TO.N,Net-(J5-Pin_3)*%
X86450786Y-82465786D02*
X86450786Y-78895786D01*
%TO.N,Net-(J5-Pin_8)*%
X125640786Y-82430786D02*
X125645786Y-82435786D01*
%TO.N,Net-(J5-Pin_2)*%
X83910786Y-82465786D02*
X83910786Y-78895786D01*
%TO.N,Net-(J5-Pin_8)*%
X99145786Y-78890786D02*
X99145786Y-82460786D01*
%TO.N,Net-(J5-Pin_3)*%
X112945786Y-78865786D02*
X112940786Y-78860786D01*
X59900786Y-78895786D02*
X59895786Y-78890786D01*
%TO.N,Net-(J5-Pin_2)*%
X83910786Y-78895786D02*
X83905786Y-78890786D01*
%TO.N,Net-(J5-Pin_7)*%
X70060786Y-78895786D02*
X70055786Y-78890786D01*
%TO.N,Net-(J5-Pin_3)*%
X112945786Y-82435786D02*
X112945786Y-78865786D01*
%TO.N,Net-(J5-Pin_1)*%
X54820786Y-82465786D02*
X54820786Y-78895786D01*
%TO.N,Net-(J5-Pin_7)*%
X70060786Y-82465786D02*
X70060786Y-78895786D01*
%TO.N,Net-(J5-Pin_2)*%
X57360786Y-82465786D02*
X57360786Y-78895786D01*
%TO.N,Net-(J5-Pin_1)*%
X107865786Y-78865786D02*
X107860786Y-78860786D01*
%TO.N,Net-(J5-Pin_2)*%
X110405786Y-78865786D02*
X110400786Y-78860786D01*
X110405786Y-82435786D02*
X110405786Y-78865786D01*
X57360786Y-78895786D02*
X57355786Y-78890786D01*
%TO.N,Net-(J5-Pin_1)*%
X81370786Y-82465786D02*
X81370786Y-78895786D01*
%TO.N,Net-(J5-Pin_4)*%
X115485786Y-78865786D02*
X115480786Y-78860786D01*
%TO.N,Net-(J5-Pin_3)*%
X86450786Y-78895786D02*
X86445786Y-78890786D01*
%TO.N,Net-(J5-Pin_1)*%
X107865786Y-82435786D02*
X107865786Y-78865786D01*
X54820786Y-78895786D02*
X54815786Y-78890786D01*
%TO.N,Net-(J5-Pin_8)*%
X125640786Y-78860786D02*
X125640786Y-82430786D01*
%TO.N,Net-(J5-Pin_3)*%
X59900786Y-82465786D02*
X59900786Y-78895786D01*
%TO.N,Net-(J5-Pin_4)*%
X62440786Y-82465786D02*
X62440786Y-78895786D01*
%TO.N,Net-(J5-Pin_5)*%
X64980786Y-78895786D02*
X64975786Y-78890786D01*
%TO.N,Net-(J5-Pin_6)*%
X120565786Y-78865786D02*
X120560786Y-78860786D01*
%TO.N,Net-(J5-Pin_5)*%
X91530786Y-78895786D02*
X91525786Y-78890786D01*
%TO.N,Net-(J5-Pin_8)*%
X72595786Y-78890786D02*
X72595786Y-82460786D01*
%TO.N,Net-(J5-Pin_5)*%
X118025786Y-82435786D02*
X118025786Y-78865786D01*
%TO.N,Net-(J5-Pin_7)*%
X96610786Y-82465786D02*
X96610786Y-78895786D01*
%TO.N,Net-(J5-Pin_6)*%
X120565786Y-82435786D02*
X120565786Y-78865786D01*
%TO.N,Net-(J5-Pin_8)*%
X72595786Y-82460786D02*
X72600786Y-82465786D01*
%TO.N,Net-(J5-Pin_4)*%
X62440786Y-78895786D02*
X62435786Y-78890786D01*
%TO.N,Net-(J5-Pin_8)*%
X99145786Y-82460786D02*
X99150786Y-82465786D01*
%TO.N,Net-(J5-Pin_5)*%
X118025786Y-78865786D02*
X118020786Y-78860786D01*
%TO.N,Net-(J5-Pin_4)*%
X88990786Y-78895786D02*
X88985786Y-78890786D01*
X88990786Y-82465786D02*
X88990786Y-78895786D01*
%TO.N,Net-(J5-Pin_7)*%
X123105786Y-82435786D02*
X123105786Y-78865786D01*
%TO.N,Net-(J5-Pin_4)*%
X115485786Y-82435786D02*
X115485786Y-78865786D01*
%TO.N,Net-(J5-Pin_5)*%
X64980786Y-82465786D02*
X64980786Y-78895786D01*
%TO.N,Net-(J5-Pin_7)*%
X96610786Y-78895786D02*
X96605786Y-78890786D01*
X123105786Y-78865786D02*
X123100786Y-78860786D01*
%TO.N,Net-(J5-Pin_6)*%
X94070786Y-82465786D02*
X94070786Y-78895786D01*
X94070786Y-78895786D02*
X94065786Y-78890786D01*
%TO.N,Net-(J5-Pin_1)*%
X81370786Y-78895786D02*
X81365786Y-78890786D01*
%TO.N,Net-(J5-Pin_6)*%
X67520786Y-78895786D02*
X67515786Y-78890786D01*
%TO.N,Net-(J5-Pin_5)*%
X91530786Y-69925786D02*
X91530786Y-66355786D01*
%TO.N,Net-(J5-Pin_6)*%
X67520786Y-69925786D02*
X67520786Y-66355786D01*
%TO.N,Net-(J5-Pin_3)*%
X86450786Y-69925786D02*
X86450786Y-66355786D01*
%TO.N,Net-(J5-Pin_8)*%
X125640786Y-69890786D02*
X125645786Y-69895786D01*
%TO.N,Net-(J5-Pin_2)*%
X83910786Y-69925786D02*
X83910786Y-66355786D01*
%TO.N,Net-(J5-Pin_8)*%
X99145786Y-66350786D02*
X99145786Y-69920786D01*
%TO.N,Net-(J5-Pin_3)*%
X112945786Y-66325786D02*
X112940786Y-66320786D01*
X59900786Y-66355786D02*
X59895786Y-66350786D01*
%TO.N,Net-(J5-Pin_2)*%
X83910786Y-66355786D02*
X83905786Y-66350786D01*
%TO.N,Net-(J5-Pin_7)*%
X70060786Y-66355786D02*
X70055786Y-66350786D01*
%TO.N,Net-(J5-Pin_3)*%
X112945786Y-69895786D02*
X112945786Y-66325786D01*
%TO.N,Net-(J5-Pin_1)*%
X54820786Y-69925786D02*
X54820786Y-66355786D01*
%TO.N,Net-(J5-Pin_7)*%
X70060786Y-69925786D02*
X70060786Y-66355786D01*
%TO.N,Net-(J5-Pin_2)*%
X57360786Y-69925786D02*
X57360786Y-66355786D01*
%TO.N,Net-(J5-Pin_1)*%
X107865786Y-66325786D02*
X107860786Y-66320786D01*
%TO.N,Net-(J5-Pin_2)*%
X110405786Y-66325786D02*
X110400786Y-66320786D01*
X110405786Y-69895786D02*
X110405786Y-66325786D01*
X57360786Y-66355786D02*
X57355786Y-66350786D01*
%TO.N,Net-(J5-Pin_1)*%
X81370786Y-69925786D02*
X81370786Y-66355786D01*
%TO.N,Net-(J5-Pin_4)*%
X115485786Y-66325786D02*
X115480786Y-66320786D01*
%TO.N,Net-(J5-Pin_3)*%
X86450786Y-66355786D02*
X86445786Y-66350786D01*
%TO.N,Net-(J5-Pin_1)*%
X107865786Y-69895786D02*
X107865786Y-66325786D01*
X54820786Y-66355786D02*
X54815786Y-66350786D01*
%TO.N,Net-(J5-Pin_8)*%
X125640786Y-66320786D02*
X125640786Y-69890786D01*
%TO.N,Net-(J5-Pin_3)*%
X59900786Y-69925786D02*
X59900786Y-66355786D01*
%TO.N,Net-(J5-Pin_4)*%
X62440786Y-69925786D02*
X62440786Y-66355786D01*
%TO.N,Net-(J5-Pin_5)*%
X64980786Y-66355786D02*
X64975786Y-66350786D01*
%TO.N,Net-(J5-Pin_6)*%
X120565786Y-66325786D02*
X120560786Y-66320786D01*
%TO.N,Net-(J5-Pin_5)*%
X91530786Y-66355786D02*
X91525786Y-66350786D01*
%TO.N,Net-(J5-Pin_8)*%
X72595786Y-66350786D02*
X72595786Y-69920786D01*
%TO.N,Net-(J5-Pin_5)*%
X118025786Y-69895786D02*
X118025786Y-66325786D01*
%TO.N,Net-(J5-Pin_7)*%
X96610786Y-69925786D02*
X96610786Y-66355786D01*
%TO.N,Net-(J5-Pin_6)*%
X120565786Y-69895786D02*
X120565786Y-66325786D01*
%TO.N,Net-(J5-Pin_8)*%
X72595786Y-69920786D02*
X72600786Y-69925786D01*
%TO.N,Net-(J5-Pin_4)*%
X62440786Y-66355786D02*
X62435786Y-66350786D01*
%TO.N,Net-(J5-Pin_8)*%
X99145786Y-69920786D02*
X99150786Y-69925786D01*
%TO.N,Net-(J5-Pin_5)*%
X118025786Y-66325786D02*
X118020786Y-66320786D01*
%TO.N,Net-(J5-Pin_4)*%
X88990786Y-66355786D02*
X88985786Y-66350786D01*
X88990786Y-69925786D02*
X88990786Y-66355786D01*
%TO.N,Net-(J5-Pin_7)*%
X123105786Y-69895786D02*
X123105786Y-66325786D01*
%TO.N,Net-(J5-Pin_4)*%
X115485786Y-69895786D02*
X115485786Y-66325786D01*
%TO.N,Net-(J5-Pin_5)*%
X64980786Y-69925786D02*
X64980786Y-66355786D01*
%TO.N,Net-(J5-Pin_7)*%
X96610786Y-66355786D02*
X96605786Y-66350786D01*
X123105786Y-66325786D02*
X123100786Y-66320786D01*
%TO.N,Net-(J5-Pin_6)*%
X94070786Y-69925786D02*
X94070786Y-66355786D01*
X94070786Y-66355786D02*
X94065786Y-66350786D01*
%TO.N,Net-(J5-Pin_1)*%
X81370786Y-66355786D02*
X81365786Y-66350786D01*
%TO.N,Net-(J5-Pin_6)*%
X67520786Y-66355786D02*
X67515786Y-66350786D01*
%TO.N,Net-(J5-Pin_5)*%
X91530786Y-57385786D02*
X91530786Y-53815786D01*
%TO.N,Net-(J5-Pin_6)*%
X67520786Y-57385786D02*
X67520786Y-53815786D01*
%TO.N,Net-(J5-Pin_3)*%
X86450786Y-57385786D02*
X86450786Y-53815786D01*
%TO.N,Net-(J5-Pin_8)*%
X125640786Y-57350786D02*
X125645786Y-57355786D01*
%TO.N,Net-(J5-Pin_2)*%
X83910786Y-57385786D02*
X83910786Y-53815786D01*
%TO.N,Net-(J5-Pin_8)*%
X99145786Y-53810786D02*
X99145786Y-57380786D01*
%TO.N,Net-(J5-Pin_3)*%
X112945786Y-53785786D02*
X112940786Y-53780786D01*
X59900786Y-53815786D02*
X59895786Y-53810786D01*
%TO.N,Net-(J5-Pin_2)*%
X83910786Y-53815786D02*
X83905786Y-53810786D01*
%TO.N,Net-(J5-Pin_7)*%
X70060786Y-53815786D02*
X70055786Y-53810786D01*
%TO.N,Net-(J5-Pin_3)*%
X112945786Y-57355786D02*
X112945786Y-53785786D01*
%TO.N,Net-(J5-Pin_1)*%
X54820786Y-57385786D02*
X54820786Y-53815786D01*
%TO.N,Net-(J5-Pin_7)*%
X70060786Y-57385786D02*
X70060786Y-53815786D01*
%TO.N,Net-(J5-Pin_2)*%
X57360786Y-57385786D02*
X57360786Y-53815786D01*
%TO.N,Net-(J5-Pin_1)*%
X107865786Y-53785786D02*
X107860786Y-53780786D01*
%TO.N,Net-(J5-Pin_2)*%
X110405786Y-53785786D02*
X110400786Y-53780786D01*
X110405786Y-57355786D02*
X110405786Y-53785786D01*
X57360786Y-53815786D02*
X57355786Y-53810786D01*
%TO.N,Net-(J5-Pin_1)*%
X81370786Y-57385786D02*
X81370786Y-53815786D01*
%TO.N,Net-(J5-Pin_4)*%
X115485786Y-53785786D02*
X115480786Y-53780786D01*
%TO.N,Net-(J5-Pin_3)*%
X86450786Y-53815786D02*
X86445786Y-53810786D01*
%TO.N,Net-(J5-Pin_1)*%
X107865786Y-57355786D02*
X107865786Y-53785786D01*
X54820786Y-53815786D02*
X54815786Y-53810786D01*
%TO.N,Net-(J5-Pin_8)*%
X125640786Y-53780786D02*
X125640786Y-57350786D01*
%TO.N,Net-(J5-Pin_3)*%
X59900786Y-57385786D02*
X59900786Y-53815786D01*
%TO.N,Net-(J5-Pin_4)*%
X62440786Y-57385786D02*
X62440786Y-53815786D01*
%TO.N,Net-(J5-Pin_5)*%
X64980786Y-53815786D02*
X64975786Y-53810786D01*
%TO.N,Net-(J5-Pin_6)*%
X120565786Y-53785786D02*
X120560786Y-53780786D01*
%TO.N,Net-(J5-Pin_5)*%
X91530786Y-53815786D02*
X91525786Y-53810786D01*
%TO.N,Net-(J5-Pin_8)*%
X72595786Y-53810786D02*
X72595786Y-57380786D01*
%TO.N,Net-(J5-Pin_5)*%
X118025786Y-57355786D02*
X118025786Y-53785786D01*
%TO.N,Net-(J5-Pin_7)*%
X96610786Y-57385786D02*
X96610786Y-53815786D01*
%TO.N,Net-(J5-Pin_6)*%
X120565786Y-57355786D02*
X120565786Y-53785786D01*
%TO.N,Net-(J5-Pin_8)*%
X72595786Y-57380786D02*
X72600786Y-57385786D01*
%TO.N,Net-(J5-Pin_4)*%
X62440786Y-53815786D02*
X62435786Y-53810786D01*
%TO.N,Net-(J5-Pin_8)*%
X99145786Y-57380786D02*
X99150786Y-57385786D01*
%TO.N,Net-(J5-Pin_5)*%
X118025786Y-53785786D02*
X118020786Y-53780786D01*
%TO.N,Net-(J5-Pin_4)*%
X88990786Y-53815786D02*
X88985786Y-53810786D01*
X88990786Y-57385786D02*
X88990786Y-53815786D01*
%TO.N,Net-(J5-Pin_7)*%
X123105786Y-57355786D02*
X123105786Y-53785786D01*
%TO.N,Net-(J5-Pin_4)*%
X115485786Y-57355786D02*
X115485786Y-53785786D01*
%TO.N,Net-(J5-Pin_5)*%
X64980786Y-57385786D02*
X64980786Y-53815786D01*
%TO.N,Net-(J5-Pin_7)*%
X96610786Y-53815786D02*
X96605786Y-53810786D01*
X123105786Y-53785786D02*
X123100786Y-53780786D01*
%TO.N,Net-(J5-Pin_6)*%
X94070786Y-57385786D02*
X94070786Y-53815786D01*
X94070786Y-53815786D02*
X94065786Y-53810786D01*
%TO.N,Net-(J5-Pin_1)*%
X81370786Y-53815786D02*
X81365786Y-53810786D01*
%TO.N,Net-(J5-Pin_6)*%
X67520786Y-53815786D02*
X67515786Y-53810786D01*
%TO.N,Net-(J5-Pin_5)*%
X91530786Y-44845786D02*
X91530786Y-41275786D01*
%TO.N,Net-(J5-Pin_6)*%
X67520786Y-44845786D02*
X67520786Y-41275786D01*
%TO.N,Net-(J5-Pin_3)*%
X86450786Y-44845786D02*
X86450786Y-41275786D01*
%TO.N,Net-(J5-Pin_8)*%
X125640786Y-44810786D02*
X125645786Y-44815786D01*
%TO.N,Net-(J5-Pin_2)*%
X83910786Y-44845786D02*
X83910786Y-41275786D01*
%TO.N,Net-(J5-Pin_8)*%
X99145786Y-41270786D02*
X99145786Y-44840786D01*
%TO.N,Net-(J5-Pin_3)*%
X112945786Y-41245786D02*
X112940786Y-41240786D01*
X59900786Y-41275786D02*
X59895786Y-41270786D01*
%TO.N,Net-(J5-Pin_2)*%
X83910786Y-41275786D02*
X83905786Y-41270786D01*
%TO.N,Net-(J5-Pin_7)*%
X70060786Y-41275786D02*
X70055786Y-41270786D01*
%TO.N,Net-(J5-Pin_3)*%
X112945786Y-44815786D02*
X112945786Y-41245786D01*
%TO.N,Net-(J5-Pin_1)*%
X54820786Y-44845786D02*
X54820786Y-41275786D01*
%TO.N,Net-(J5-Pin_7)*%
X70060786Y-44845786D02*
X70060786Y-41275786D01*
%TO.N,Net-(J5-Pin_2)*%
X57360786Y-44845786D02*
X57360786Y-41275786D01*
%TO.N,Net-(J5-Pin_1)*%
X107865786Y-41245786D02*
X107860786Y-41240786D01*
%TO.N,Net-(J5-Pin_2)*%
X110405786Y-41245786D02*
X110400786Y-41240786D01*
X110405786Y-44815786D02*
X110405786Y-41245786D01*
X57360786Y-41275786D02*
X57355786Y-41270786D01*
%TO.N,Net-(J5-Pin_1)*%
X81370786Y-44845786D02*
X81370786Y-41275786D01*
%TO.N,Net-(J5-Pin_4)*%
X115485786Y-41245786D02*
X115480786Y-41240786D01*
%TO.N,Net-(J5-Pin_3)*%
X86450786Y-41275786D02*
X86445786Y-41270786D01*
%TO.N,Net-(J5-Pin_1)*%
X107865786Y-44815786D02*
X107865786Y-41245786D01*
X54820786Y-41275786D02*
X54815786Y-41270786D01*
%TO.N,Net-(J5-Pin_8)*%
X125640786Y-41240786D02*
X125640786Y-44810786D01*
%TO.N,Net-(J5-Pin_3)*%
X59900786Y-44845786D02*
X59900786Y-41275786D01*
%TO.N,Net-(J5-Pin_4)*%
X62440786Y-44845786D02*
X62440786Y-41275786D01*
%TO.N,Net-(J5-Pin_5)*%
X64980786Y-41275786D02*
X64975786Y-41270786D01*
%TO.N,Net-(J5-Pin_6)*%
X120565786Y-41245786D02*
X120560786Y-41240786D01*
%TO.N,Net-(J5-Pin_5)*%
X91530786Y-41275786D02*
X91525786Y-41270786D01*
%TO.N,Net-(J5-Pin_8)*%
X72595786Y-41270786D02*
X72595786Y-44840786D01*
%TO.N,Net-(J5-Pin_5)*%
X118025786Y-44815786D02*
X118025786Y-41245786D01*
%TO.N,Net-(J5-Pin_7)*%
X96610786Y-44845786D02*
X96610786Y-41275786D01*
%TO.N,Net-(J5-Pin_6)*%
X120565786Y-44815786D02*
X120565786Y-41245786D01*
%TO.N,Net-(J5-Pin_8)*%
X72595786Y-44840786D02*
X72600786Y-44845786D01*
%TO.N,Net-(J5-Pin_4)*%
X62440786Y-41275786D02*
X62435786Y-41270786D01*
%TO.N,Net-(J5-Pin_8)*%
X99145786Y-44840786D02*
X99150786Y-44845786D01*
%TO.N,Net-(J5-Pin_5)*%
X118025786Y-41245786D02*
X118020786Y-41240786D01*
%TO.N,Net-(J5-Pin_4)*%
X88990786Y-41275786D02*
X88985786Y-41270786D01*
X88990786Y-44845786D02*
X88990786Y-41275786D01*
%TO.N,Net-(J5-Pin_7)*%
X123105786Y-44815786D02*
X123105786Y-41245786D01*
%TO.N,Net-(J5-Pin_4)*%
X115485786Y-44815786D02*
X115485786Y-41245786D01*
%TO.N,Net-(J5-Pin_5)*%
X64980786Y-44845786D02*
X64980786Y-41275786D01*
%TO.N,Net-(J5-Pin_7)*%
X96610786Y-41275786D02*
X96605786Y-41270786D01*
X123105786Y-41245786D02*
X123100786Y-41240786D01*
%TO.N,Net-(J5-Pin_6)*%
X94070786Y-44845786D02*
X94070786Y-41275786D01*
X94070786Y-41275786D02*
X94065786Y-41270786D01*
%TO.N,Net-(J5-Pin_1)*%
X81370786Y-41275786D02*
X81365786Y-41270786D01*
%TO.N,Net-(J5-Pin_6)*%
X67520786Y-41275786D02*
X67515786Y-41270786D01*
%TO.N,Net-(J5-Pin_5)*%
X91530786Y-32305786D02*
X91530786Y-28735786D01*
%TO.N,Net-(J5-Pin_6)*%
X67520786Y-32305786D02*
X67520786Y-28735786D01*
%TO.N,Net-(J5-Pin_3)*%
X86450786Y-32305786D02*
X86450786Y-28735786D01*
%TO.N,Net-(J5-Pin_8)*%
X125640786Y-32270786D02*
X125645786Y-32275786D01*
%TO.N,Net-(J5-Pin_2)*%
X83910786Y-32305786D02*
X83910786Y-28735786D01*
%TO.N,Net-(J5-Pin_8)*%
X99145786Y-28730786D02*
X99145786Y-32300786D01*
%TO.N,Net-(J5-Pin_3)*%
X112945786Y-28705786D02*
X112940786Y-28700786D01*
X59900786Y-28735786D02*
X59895786Y-28730786D01*
%TO.N,Net-(J5-Pin_2)*%
X83910786Y-28735786D02*
X83905786Y-28730786D01*
%TO.N,Net-(J5-Pin_7)*%
X70060786Y-28735786D02*
X70055786Y-28730786D01*
%TO.N,Net-(J5-Pin_3)*%
X112945786Y-32275786D02*
X112945786Y-28705786D01*
%TO.N,Net-(J5-Pin_1)*%
X54820786Y-32305786D02*
X54820786Y-28735786D01*
%TO.N,Net-(J5-Pin_7)*%
X70060786Y-32305786D02*
X70060786Y-28735786D01*
%TO.N,Net-(J5-Pin_2)*%
X57360786Y-32305786D02*
X57360786Y-28735786D01*
%TO.N,Net-(J5-Pin_1)*%
X107865786Y-28705786D02*
X107860786Y-28700786D01*
%TO.N,Net-(J5-Pin_2)*%
X110405786Y-28705786D02*
X110400786Y-28700786D01*
X110405786Y-32275786D02*
X110405786Y-28705786D01*
X57360786Y-28735786D02*
X57355786Y-28730786D01*
%TO.N,Net-(J5-Pin_1)*%
X81370786Y-32305786D02*
X81370786Y-28735786D01*
%TO.N,Net-(J5-Pin_4)*%
X115485786Y-28705786D02*
X115480786Y-28700786D01*
%TO.N,Net-(J5-Pin_3)*%
X86450786Y-28735786D02*
X86445786Y-28730786D01*
%TO.N,Net-(J5-Pin_1)*%
X107865786Y-32275786D02*
X107865786Y-28705786D01*
X54820786Y-28735786D02*
X54815786Y-28730786D01*
%TO.N,Net-(J5-Pin_8)*%
X125640786Y-28700786D02*
X125640786Y-32270786D01*
%TO.N,Net-(J5-Pin_3)*%
X59900786Y-32305786D02*
X59900786Y-28735786D01*
%TO.N,Net-(J5-Pin_4)*%
X62440786Y-32305786D02*
X62440786Y-28735786D01*
%TO.N,Net-(J5-Pin_5)*%
X64980786Y-28735786D02*
X64975786Y-28730786D01*
%TO.N,Net-(J5-Pin_6)*%
X120565786Y-28705786D02*
X120560786Y-28700786D01*
%TO.N,Net-(J5-Pin_5)*%
X91530786Y-28735786D02*
X91525786Y-28730786D01*
%TO.N,Net-(J5-Pin_8)*%
X72595786Y-28730786D02*
X72595786Y-32300786D01*
%TO.N,Net-(J5-Pin_5)*%
X118025786Y-32275786D02*
X118025786Y-28705786D01*
%TO.N,Net-(J5-Pin_7)*%
X96610786Y-32305786D02*
X96610786Y-28735786D01*
%TO.N,Net-(J5-Pin_6)*%
X120565786Y-32275786D02*
X120565786Y-28705786D01*
%TO.N,Net-(J5-Pin_8)*%
X72595786Y-32300786D02*
X72600786Y-32305786D01*
%TO.N,Net-(J5-Pin_4)*%
X62440786Y-28735786D02*
X62435786Y-28730786D01*
%TO.N,Net-(J5-Pin_8)*%
X99145786Y-32300786D02*
X99150786Y-32305786D01*
%TO.N,Net-(J5-Pin_5)*%
X118025786Y-28705786D02*
X118020786Y-28700786D01*
%TO.N,Net-(J5-Pin_4)*%
X88990786Y-28735786D02*
X88985786Y-28730786D01*
X88990786Y-32305786D02*
X88990786Y-28735786D01*
%TO.N,Net-(J5-Pin_7)*%
X123105786Y-32275786D02*
X123105786Y-28705786D01*
%TO.N,Net-(J5-Pin_4)*%
X115485786Y-32275786D02*
X115485786Y-28705786D01*
%TO.N,Net-(J5-Pin_5)*%
X64980786Y-32305786D02*
X64980786Y-28735786D01*
%TO.N,Net-(J5-Pin_7)*%
X96610786Y-28735786D02*
X96605786Y-28730786D01*
X123105786Y-28705786D02*
X123100786Y-28700786D01*
%TO.N,Net-(J5-Pin_6)*%
X94070786Y-32305786D02*
X94070786Y-28735786D01*
X94070786Y-28735786D02*
X94065786Y-28730786D01*
%TO.N,Net-(J5-Pin_1)*%
X81370786Y-28735786D02*
X81365786Y-28730786D01*
%TO.N,Net-(J5-Pin_6)*%
X67520786Y-28735786D02*
X67515786Y-28730786D01*
X67520786Y-103975786D02*
X67515786Y-103970786D01*
%TO.N,Net-(J5-Pin_1)*%
X81370786Y-103975786D02*
X81365786Y-103970786D01*
%TO.N,Net-(J5-Pin_6)*%
X94070786Y-103975786D02*
X94065786Y-103970786D01*
X94070786Y-107545786D02*
X94070786Y-103975786D01*
%TO.N,Net-(J5-Pin_7)*%
X123105786Y-103945786D02*
X123100786Y-103940786D01*
X96610786Y-103975786D02*
X96605786Y-103970786D01*
%TO.N,Net-(J5-Pin_5)*%
X64980786Y-107545786D02*
X64980786Y-103975786D01*
%TO.N,Net-(J5-Pin_4)*%
X115485786Y-107515786D02*
X115485786Y-103945786D01*
%TO.N,Net-(J5-Pin_7)*%
X123105786Y-107515786D02*
X123105786Y-103945786D01*
%TO.N,Net-(J5-Pin_4)*%
X88990786Y-107545786D02*
X88990786Y-103975786D01*
X88990786Y-103975786D02*
X88985786Y-103970786D01*
%TO.N,Net-(J5-Pin_5)*%
X118025786Y-103945786D02*
X118020786Y-103940786D01*
%TO.N,Net-(J5-Pin_8)*%
X99145786Y-107540786D02*
X99150786Y-107545786D01*
%TO.N,Net-(J5-Pin_4)*%
X62440786Y-103975786D02*
X62435786Y-103970786D01*
%TO.N,Net-(J5-Pin_8)*%
X72595786Y-107540786D02*
X72600786Y-107545786D01*
%TO.N,Net-(J5-Pin_6)*%
X120565786Y-107515786D02*
X120565786Y-103945786D01*
%TO.N,Net-(J5-Pin_7)*%
X96610786Y-107545786D02*
X96610786Y-103975786D01*
%TO.N,Net-(J5-Pin_5)*%
X118025786Y-107515786D02*
X118025786Y-103945786D01*
%TO.N,Net-(J5-Pin_8)*%
X72595786Y-103970786D02*
X72595786Y-107540786D01*
%TO.N,Net-(J5-Pin_5)*%
X91530786Y-103975786D02*
X91525786Y-103970786D01*
%TO.N,Net-(J5-Pin_6)*%
X120565786Y-103945786D02*
X120560786Y-103940786D01*
%TO.N,Net-(J5-Pin_5)*%
X64980786Y-103975786D02*
X64975786Y-103970786D01*
%TO.N,Net-(J5-Pin_4)*%
X62440786Y-107545786D02*
X62440786Y-103975786D01*
%TO.N,Net-(J5-Pin_3)*%
X59900786Y-107545786D02*
X59900786Y-103975786D01*
%TO.N,Net-(J5-Pin_8)*%
X125640786Y-103940786D02*
X125640786Y-107510786D01*
%TO.N,Net-(J5-Pin_1)*%
X54820786Y-103975786D02*
X54815786Y-103970786D01*
X107865786Y-107515786D02*
X107865786Y-103945786D01*
%TO.N,Net-(J5-Pin_3)*%
X86450786Y-103975786D02*
X86445786Y-103970786D01*
%TO.N,Net-(J5-Pin_4)*%
X115485786Y-103945786D02*
X115480786Y-103940786D01*
%TO.N,Net-(J5-Pin_1)*%
X81370786Y-107545786D02*
X81370786Y-103975786D01*
%TO.N,Net-(J5-Pin_2)*%
X57360786Y-103975786D02*
X57355786Y-103970786D01*
X110405786Y-107515786D02*
X110405786Y-103945786D01*
X110405786Y-103945786D02*
X110400786Y-103940786D01*
%TO.N,Net-(J5-Pin_1)*%
X107865786Y-103945786D02*
X107860786Y-103940786D01*
%TO.N,Net-(J5-Pin_2)*%
X57360786Y-107545786D02*
X57360786Y-103975786D01*
%TO.N,Net-(J5-Pin_7)*%
X70060786Y-107545786D02*
X70060786Y-103975786D01*
%TO.N,Net-(J5-Pin_1)*%
X54820786Y-107545786D02*
X54820786Y-103975786D01*
%TO.N,Net-(J5-Pin_3)*%
X112945786Y-107515786D02*
X112945786Y-103945786D01*
%TO.N,Net-(J5-Pin_7)*%
X70060786Y-103975786D02*
X70055786Y-103970786D01*
%TO.N,Net-(J5-Pin_2)*%
X83910786Y-103975786D02*
X83905786Y-103970786D01*
%TO.N,Net-(J5-Pin_3)*%
X59900786Y-103975786D02*
X59895786Y-103970786D01*
X112945786Y-103945786D02*
X112940786Y-103940786D01*
%TO.N,Net-(J5-Pin_8)*%
X99145786Y-103970786D02*
X99145786Y-107540786D01*
%TO.N,Net-(J5-Pin_2)*%
X83910786Y-107545786D02*
X83910786Y-103975786D01*
%TO.N,Net-(J5-Pin_8)*%
X125640786Y-107510786D02*
X125645786Y-107515786D01*
%TO.N,Net-(J5-Pin_3)*%
X86450786Y-107545786D02*
X86450786Y-103975786D01*
%TO.N,Net-(J5-Pin_6)*%
X67520786Y-107545786D02*
X67520786Y-103975786D01*
%TO.N,Net-(J5-Pin_5)*%
X91530786Y-107545786D02*
X91530786Y-103975786D01*
%TO.N,Net-(J5-Pin_4)*%
X115485786Y-120055786D02*
X115485786Y-116485786D01*
X88990786Y-120085786D02*
X88990786Y-116515786D01*
%TO.N,Net-(J5-Pin_7)*%
X123105786Y-120055786D02*
X123105786Y-116485786D01*
%TO.N,Net-(J5-Pin_4)*%
X115485786Y-116485786D02*
X115480786Y-116480786D01*
%TO.N,Net-(J5-Pin_7)*%
X70060786Y-120085786D02*
X70060786Y-116515786D01*
%TO.N,Net-(J5-Pin_1)*%
X107865786Y-120055786D02*
X107865786Y-116485786D01*
%TO.N,Net-(J5-Pin_7)*%
X70060786Y-116515786D02*
X70055786Y-116510786D01*
%TO.N,Net-(J5-Pin_1)*%
X81370786Y-120085786D02*
X81370786Y-116515786D01*
%TO.N,Net-(J5-Pin_7)*%
X123105786Y-116485786D02*
X123100786Y-116480786D01*
%TO.N,Net-(J5-Pin_1)*%
X107865786Y-116485786D02*
X107860786Y-116480786D01*
%TO.N,Net-(J5-Pin_4)*%
X88990786Y-116515786D02*
X88985786Y-116510786D01*
%TO.N,Net-(J5-Pin_1)*%
X81370786Y-116515786D02*
X81365786Y-116510786D01*
%TO.N,Net-(J5-Pin_8)*%
X72595786Y-120080786D02*
X72600786Y-120085786D01*
%TO.N,Net-(J5-Pin_5)*%
X91530786Y-116515786D02*
X91525786Y-116510786D01*
%TO.N,Net-(J5-Pin_6)*%
X94070786Y-120085786D02*
X94070786Y-116515786D01*
%TO.N,Net-(J5-Pin_7)*%
X96610786Y-116515786D02*
X96605786Y-116510786D01*
X96610786Y-120085786D02*
X96610786Y-116515786D01*
%TO.N,Net-(J5-Pin_6)*%
X67520786Y-116515786D02*
X67515786Y-116510786D01*
X94070786Y-116515786D02*
X94065786Y-116510786D01*
X120565786Y-120055786D02*
X120565786Y-116485786D01*
X120565786Y-116485786D02*
X120560786Y-116480786D01*
%TO.N,Net-(J5-Pin_8)*%
X72595786Y-116510786D02*
X72595786Y-120080786D01*
%TO.N,Net-(J5-Pin_5)*%
X118025786Y-120055786D02*
X118025786Y-116485786D01*
X118025786Y-116485786D02*
X118020786Y-116480786D01*
%TO.N,Net-(J5-Pin_8)*%
X99145786Y-120080786D02*
X99150786Y-120085786D01*
X99145786Y-116510786D02*
X99145786Y-120080786D01*
%TO.N,Net-(J5-Pin_5)*%
X91530786Y-120085786D02*
X91530786Y-116515786D01*
%TO.N,Net-(J5-Pin_6)*%
X67520786Y-120085786D02*
X67520786Y-116515786D01*
%TO.N,Net-(J5-Pin_2)*%
X110405786Y-116485786D02*
X110400786Y-116480786D01*
%TO.N,Net-(J5-Pin_8)*%
X125640786Y-116480786D02*
X125640786Y-120050786D01*
X125640786Y-120050786D02*
X125645786Y-120055786D01*
%TO.N,Net-(J5-Pin_3)*%
X86450786Y-120085786D02*
X86450786Y-116515786D01*
%TO.N,Net-(J5-Pin_2)*%
X110405786Y-120055786D02*
X110405786Y-116485786D01*
X83910786Y-120085786D02*
X83910786Y-116515786D01*
%TO.N,Net-(J5-Pin_3)*%
X86450786Y-116515786D02*
X86445786Y-116510786D01*
X112945786Y-120055786D02*
X112945786Y-116485786D01*
X112945786Y-116485786D02*
X112940786Y-116480786D01*
%TO.N,Net-(J5-Pin_2)*%
X83910786Y-116515786D02*
X83905786Y-116510786D01*
%TO.N,Net-(J5-Pin_5)*%
X64980786Y-116515786D02*
X64975786Y-116510786D01*
X64980786Y-120085786D02*
X64980786Y-116515786D01*
%TO.N,Net-(J5-Pin_4)*%
X62440786Y-116515786D02*
X62435786Y-116510786D01*
X62440786Y-120085786D02*
X62440786Y-116515786D01*
%TO.N,Net-(J5-Pin_3)*%
X59900786Y-120085786D02*
X59900786Y-116515786D01*
X59900786Y-116515786D02*
X59895786Y-116510786D01*
%TO.N,Net-(J5-Pin_2)*%
X57360786Y-116515786D02*
X57355786Y-116510786D01*
X57360786Y-120085786D02*
X57360786Y-116515786D01*
%TO.N,Net-(J5-Pin_1)*%
X54820786Y-116515786D02*
X54815786Y-116510786D01*
X54820786Y-120085786D02*
X54820786Y-116515786D01*
%TD*%
M02*
