M48
; DRILL file {KiCad 9.0.2} date 2026-01-01T17:19:05-0500
; FORMAT={-:-/ absolute / metric / decimal}
; #@! TF.CreationDate,2026-01-01T17:19:05-05:00
; #@! TF.GenerationSoftware,Kicad,Pcbnew,9.0.2
; #@! TF.FileFunction,NonPlated,1,2,NPTH
FMAT,2
METRIC
; #@! TA.AperFunction,NonPlated,NPTH,ComponentDrill
T1C0.500
%
G90
G05
T1
X60.841Y-35.656
X60.841Y-37.856
X60.841Y-48.196
X60.841Y-50.396
X60.841Y-60.736
X60.841Y-62.936
X60.841Y-73.276
X60.841Y-75.476
X60.841Y-85.816
X60.841Y-88.016
X60.841Y-98.356
X60.841Y-100.556
X60.841Y-110.896
X60.841Y-113.096
X61.641Y-35.656
X61.641Y-37.856
X61.641Y-48.196
X61.641Y-50.396
X61.641Y-60.736
X61.641Y-62.936
X61.641Y-73.276
X61.641Y-75.476
X61.641Y-85.816
X61.641Y-88.016
X61.641Y-98.356
X61.641Y-100.556
X61.641Y-110.896
X61.641Y-113.096
X62.441Y-35.656
X62.441Y-37.856
X62.441Y-48.196
X62.441Y-50.396
X62.441Y-60.736
X62.441Y-62.936
X62.441Y-73.276
X62.441Y-75.476
X62.441Y-85.816
X62.441Y-88.016
X62.441Y-98.356
X62.441Y-100.556
X62.441Y-110.896
X62.441Y-113.096
X75.991Y-29.686
X75.991Y-30.486
X75.991Y-31.286
X75.991Y-42.226
X75.991Y-43.026
X75.991Y-43.826
X75.991Y-54.766
X75.991Y-55.566
X75.991Y-56.366
X75.991Y-67.306
X75.991Y-68.106
X75.991Y-68.906
X75.991Y-79.846
X75.991Y-80.646
X75.991Y-81.446
X75.991Y-92.386
X75.991Y-93.186
X75.991Y-93.986
X75.991Y-104.926
X75.991Y-105.726
X75.991Y-106.526
X75.991Y-117.466
X75.991Y-118.266
X75.991Y-119.066
X78.191Y-29.686
X78.191Y-30.486
X78.191Y-31.286
X78.191Y-42.226
X78.191Y-43.026
X78.191Y-43.826
X78.191Y-54.766
X78.191Y-55.566
X78.191Y-56.366
X78.191Y-67.306
X78.191Y-68.106
X78.191Y-68.906
X78.191Y-79.846
X78.191Y-80.646
X78.191Y-81.446
X78.191Y-92.386
X78.191Y-93.186
X78.191Y-93.986
X78.191Y-104.926
X78.191Y-105.726
X78.191Y-106.526
X78.191Y-117.466
X78.191Y-118.266
X78.191Y-119.066
X87.391Y-35.656
X87.391Y-37.856
X87.391Y-48.196
X87.391Y-50.396
X87.391Y-60.736
X87.391Y-62.936
X87.391Y-73.276
X87.391Y-75.476
X87.391Y-85.816
X87.391Y-88.016
X87.391Y-98.356
X87.391Y-100.556
X87.391Y-110.896
X87.391Y-113.096
X88.191Y-35.656
X88.191Y-37.856
X88.191Y-48.196
X88.191Y-50.396
X88.191Y-60.736
X88.191Y-62.936
X88.191Y-73.276
X88.191Y-75.476
X88.191Y-85.816
X88.191Y-88.016
X88.191Y-98.356
X88.191Y-100.556
X88.191Y-110.896
X88.191Y-113.096
X88.991Y-35.656
X88.991Y-37.856
X88.991Y-48.196
X88.991Y-50.396
X88.991Y-60.736
X88.991Y-62.936
X88.991Y-73.276
X88.991Y-75.476
X88.991Y-85.816
X88.991Y-88.016
X88.991Y-98.356
X88.991Y-100.556
X88.991Y-110.896
X88.991Y-113.096
X102.541Y-29.686
X102.541Y-30.486
X102.541Y-31.286
X102.541Y-42.226
X102.541Y-43.026
X102.541Y-43.826
X102.541Y-54.766
X102.541Y-55.566
X102.541Y-56.366
X102.541Y-67.306
X102.541Y-68.106
X102.541Y-68.906
X102.541Y-79.846
X102.541Y-80.646
X102.541Y-81.446
X102.541Y-92.386
X102.541Y-93.186
X102.541Y-93.986
X102.541Y-104.926
X102.541Y-105.726
X102.541Y-106.526
X102.541Y-117.466
X102.541Y-118.266
X102.541Y-119.066
X104.741Y-29.686
X104.741Y-30.486
X104.741Y-31.286
X104.741Y-42.226
X104.741Y-43.026
X104.741Y-43.826
X104.741Y-54.766
X104.741Y-55.566
X104.741Y-56.366
X104.741Y-67.306
X104.741Y-68.106
X104.741Y-68.906
X104.741Y-79.846
X104.741Y-80.646
X104.741Y-81.446
X104.741Y-92.386
X104.741Y-93.186
X104.741Y-93.986
X104.741Y-104.926
X104.741Y-105.726
X104.741Y-106.526
X104.741Y-117.466
X104.741Y-118.266
X104.741Y-119.066
X113.886Y-35.626
X113.886Y-37.826
X113.886Y-48.166
X113.886Y-50.366
X113.886Y-60.706
X113.886Y-62.906
X113.886Y-73.246
X113.886Y-75.446
X113.886Y-85.786
X113.886Y-87.986
X113.886Y-98.326
X113.886Y-100.526
X113.886Y-110.866
X113.886Y-113.066
X114.686Y-35.626
X114.686Y-37.826
X114.686Y-48.166
X114.686Y-50.366
X114.686Y-60.706
X114.686Y-62.906
X114.686Y-73.246
X114.686Y-75.446
X114.686Y-85.786
X114.686Y-87.986
X114.686Y-98.326
X114.686Y-100.526
X114.686Y-110.866
X114.686Y-113.066
X115.486Y-35.626
X115.486Y-37.826
X115.486Y-48.166
X115.486Y-50.366
X115.486Y-60.706
X115.486Y-62.906
X115.486Y-73.246
X115.486Y-75.446
X115.486Y-85.786
X115.486Y-87.986
X115.486Y-98.326
X115.486Y-100.526
X115.486Y-110.866
X115.486Y-113.066
M30
